<mxfile host="app.diagrams.net" modified="2021-04-09T11:02:45.117Z" agent="5.0 (Windows NT 10.0; WOW64) AppleWebKit/537.36 (KHTML, like Gecko) Chrome/89.0.4389.114 Safari/537.36" etag="HZQRCUerXbxU-FiFgtS4" version="14.5.6" type="github" pages="3">
  <diagram id="C5RBs43oDa-KdzZeNtuy" name="Page-1">
    <mxGraphModel dx="2334" dy="932" grid="1" gridSize="10" guides="1" tooltips="1" connect="1" arrows="1" fold="1" page="1" pageScale="1" pageWidth="827" pageHeight="1169" math="0" shadow="0">
      <root>
        <mxCell id="WIyWlLk6GJQsqaUBKTNV-0" />
        <mxCell id="WIyWlLk6GJQsqaUBKTNV-1" parent="WIyWlLk6GJQsqaUBKTNV-0" />
        <mxCell id="knYrjemtc0tiyjtiQurs-2" value="KL30 ON" style="edgeStyle=orthogonalEdgeStyle;rounded=0;orthogonalLoop=1;jettySize=auto;html=1;exitX=1;exitY=0.75;exitDx=0;exitDy=0;entryX=0;entryY=0.75;entryDx=0;entryDy=0;" edge="1" parent="WIyWlLk6GJQsqaUBKTNV-1" source="WIyWlLk6GJQsqaUBKTNV-3" target="knYrjemtc0tiyjtiQurs-0">
          <mxGeometry relative="1" as="geometry">
            <Array as="points">
              <mxPoint x="409" y="90" />
              <mxPoint x="409" y="90" />
            </Array>
          </mxGeometry>
        </mxCell>
        <mxCell id="WIyWlLk6GJQsqaUBKTNV-3" value="POWER OFF" style="rounded=1;whiteSpace=wrap;html=1;fontSize=12;glass=0;strokeWidth=1;shadow=0;" parent="WIyWlLk6GJQsqaUBKTNV-1" vertex="1">
          <mxGeometry x="209" y="60" width="120" height="40" as="geometry" />
        </mxCell>
        <mxCell id="WIyWlLk6GJQsqaUBKTNV-8" value="" style="rounded=0;html=1;jettySize=auto;orthogonalLoop=1;fontSize=11;endArrow=block;endFill=0;endSize=8;strokeWidth=1;shadow=0;labelBackgroundColor=none;edgeStyle=orthogonalEdgeStyle;exitX=0.5;exitY=1;exitDx=0;exitDy=0;entryX=0.5;entryY=0;entryDx=0;entryDy=0;" parent="WIyWlLk6GJQsqaUBKTNV-1" source="knYrjemtc0tiyjtiQurs-10" target="WIyWlLk6GJQsqaUBKTNV-10" edge="1">
          <mxGeometry x="0.3333" y="20" relative="1" as="geometry">
            <mxPoint as="offset" />
          </mxGeometry>
        </mxCell>
        <mxCell id="aUSHLzcYX4MqDzXcXwPa-6" style="edgeStyle=orthogonalEdgeStyle;rounded=0;orthogonalLoop=1;jettySize=auto;html=1;exitX=0;exitY=0.5;exitDx=0;exitDy=0;entryX=0;entryY=0.5;entryDx=0;entryDy=0;" edge="1" parent="WIyWlLk6GJQsqaUBKTNV-1" source="WIyWlLk6GJQsqaUBKTNV-10" target="aUSHLzcYX4MqDzXcXwPa-3">
          <mxGeometry relative="1" as="geometry" />
        </mxCell>
        <mxCell id="aUSHLzcYX4MqDzXcXwPa-7" value="FALSE" style="edgeLabel;html=1;align=center;verticalAlign=middle;resizable=0;points=[];" vertex="1" connectable="0" parent="aUSHLzcYX4MqDzXcXwPa-6">
          <mxGeometry x="-0.5619" y="2" relative="1" as="geometry">
            <mxPoint as="offset" />
          </mxGeometry>
        </mxCell>
        <mxCell id="aUSHLzcYX4MqDzXcXwPa-11" style="edgeStyle=orthogonalEdgeStyle;rounded=0;orthogonalLoop=1;jettySize=auto;html=1;exitX=0.5;exitY=1;exitDx=0;exitDy=0;" edge="1" parent="WIyWlLk6GJQsqaUBKTNV-1" source="WIyWlLk6GJQsqaUBKTNV-10" target="aUSHLzcYX4MqDzXcXwPa-9">
          <mxGeometry relative="1" as="geometry" />
        </mxCell>
        <mxCell id="WIyWlLk6GJQsqaUBKTNV-10" value="Init_Check" style="rhombus;whiteSpace=wrap;html=1;shadow=0;fontFamily=Helvetica;fontSize=12;align=center;strokeWidth=1;spacing=6;spacingTop=-4;" parent="WIyWlLk6GJQsqaUBKTNV-1" vertex="1">
          <mxGeometry x="479" y="549.86" width="100" height="80" as="geometry" />
        </mxCell>
        <mxCell id="knYrjemtc0tiyjtiQurs-3" style="edgeStyle=orthogonalEdgeStyle;rounded=0;orthogonalLoop=1;jettySize=auto;html=1;exitX=0;exitY=0.25;exitDx=0;exitDy=0;entryX=1;entryY=0.25;entryDx=0;entryDy=0;" edge="1" parent="WIyWlLk6GJQsqaUBKTNV-1" source="knYrjemtc0tiyjtiQurs-0" target="WIyWlLk6GJQsqaUBKTNV-3">
          <mxGeometry relative="1" as="geometry" />
        </mxCell>
        <mxCell id="knYrjemtc0tiyjtiQurs-4" value="KL30 OFF" style="edgeLabel;html=1;align=center;verticalAlign=middle;resizable=0;points=[];" vertex="1" connectable="0" parent="knYrjemtc0tiyjtiQurs-3">
          <mxGeometry x="0.2429" y="-2" relative="1" as="geometry">
            <mxPoint x="17" as="offset" />
          </mxGeometry>
        </mxCell>
        <mxCell id="knYrjemtc0tiyjtiQurs-6" value="KL 15" style="edgeStyle=orthogonalEdgeStyle;rounded=0;orthogonalLoop=1;jettySize=auto;html=1;exitX=0.5;exitY=1;exitDx=0;exitDy=0;entryX=0.5;entryY=0;entryDx=0;entryDy=0;" edge="1" parent="WIyWlLk6GJQsqaUBKTNV-1" source="knYrjemtc0tiyjtiQurs-0" target="knYrjemtc0tiyjtiQurs-10">
          <mxGeometry relative="1" as="geometry">
            <mxPoint x="529" y="200" as="targetPoint" />
          </mxGeometry>
        </mxCell>
        <mxCell id="knYrjemtc0tiyjtiQurs-0" value="SLEEP" style="rounded=1;whiteSpace=wrap;html=1;fontSize=12;glass=0;strokeWidth=1;shadow=0;" vertex="1" parent="WIyWlLk6GJQsqaUBKTNV-1">
          <mxGeometry x="469" y="60" width="120" height="40" as="geometry" />
        </mxCell>
        <mxCell id="knYrjemtc0tiyjtiQurs-10" value="INIT" style="rounded=1;whiteSpace=wrap;html=1;fontSize=12;glass=0;strokeWidth=1;shadow=0;" vertex="1" parent="WIyWlLk6GJQsqaUBKTNV-1">
          <mxGeometry x="469" y="230" width="120" height="50" as="geometry" />
        </mxCell>
        <mxCell id="aUSHLzcYX4MqDzXcXwPa-1" value="&lt;br&gt;Init Cehcl&lt;br&gt;Vehicle CAN&lt;br&gt;BMS CAN?&lt;br&gt;ALL BCU are ready" style="rounded=1;whiteSpace=wrap;html=1;fontSize=12;glass=0;strokeWidth=1;shadow=0;" vertex="1" parent="WIyWlLk6GJQsqaUBKTNV-1">
          <mxGeometry x="40" y="554.86" width="160" height="80" as="geometry" />
        </mxCell>
        <mxCell id="aUSHLzcYX4MqDzXcXwPa-3" value="ERROR MODE" style="rounded=1;whiteSpace=wrap;html=1;fontSize=12;glass=0;strokeWidth=1;shadow=0;direction=west;" vertex="1" parent="WIyWlLk6GJQsqaUBKTNV-1">
          <mxGeometry x="219" y="564.86" width="120" height="50" as="geometry" />
        </mxCell>
        <mxCell id="aUSHLzcYX4MqDzXcXwPa-55" value="ESU_OPERATE=1" style="edgeStyle=orthogonalEdgeStyle;rounded=0;orthogonalLoop=1;jettySize=auto;html=1;exitX=0.5;exitY=1;exitDx=0;exitDy=0;" edge="1" parent="WIyWlLk6GJQsqaUBKTNV-1" source="aUSHLzcYX4MqDzXcXwPa-9" target="aUSHLzcYX4MqDzXcXwPa-54">
          <mxGeometry relative="1" as="geometry" />
        </mxCell>
        <mxCell id="aUSHLzcYX4MqDzXcXwPa-9" value="READY MODE" style="rounded=1;whiteSpace=wrap;html=1;fontSize=12;glass=0;strokeWidth=1;shadow=0;" vertex="1" parent="WIyWlLk6GJQsqaUBKTNV-1">
          <mxGeometry x="469" y="709.86" width="120" height="50" as="geometry" />
        </mxCell>
        <mxCell id="aUSHLzcYX4MqDzXcXwPa-31" value="KL30 ON" style="edgeStyle=orthogonalEdgeStyle;rounded=0;orthogonalLoop=1;jettySize=auto;html=1;exitX=1;exitY=0.75;exitDx=0;exitDy=0;entryX=0;entryY=0.75;entryDx=0;entryDy=0;" edge="1" parent="WIyWlLk6GJQsqaUBKTNV-1" source="aUSHLzcYX4MqDzXcXwPa-32" target="aUSHLzcYX4MqDzXcXwPa-41">
          <mxGeometry relative="1" as="geometry">
            <Array as="points">
              <mxPoint x="1070" y="90" />
              <mxPoint x="1070" y="90" />
            </Array>
          </mxGeometry>
        </mxCell>
        <mxCell id="aUSHLzcYX4MqDzXcXwPa-32" value="POWER OFF" style="rounded=1;whiteSpace=wrap;html=1;fontSize=12;glass=0;strokeWidth=1;shadow=0;" vertex="1" parent="WIyWlLk6GJQsqaUBKTNV-1">
          <mxGeometry x="870" y="60" width="120" height="40" as="geometry" />
        </mxCell>
        <mxCell id="aUSHLzcYX4MqDzXcXwPa-33" value="" style="rounded=0;html=1;jettySize=auto;orthogonalLoop=1;fontSize=11;endArrow=block;endFill=0;endSize=8;strokeWidth=1;shadow=0;labelBackgroundColor=none;edgeStyle=orthogonalEdgeStyle;exitX=0.5;exitY=1;exitDx=0;exitDy=0;entryX=0.5;entryY=0;entryDx=0;entryDy=0;" edge="1" parent="WIyWlLk6GJQsqaUBKTNV-1" source="aUSHLzcYX4MqDzXcXwPa-43" target="aUSHLzcYX4MqDzXcXwPa-37">
          <mxGeometry x="0.3333" y="20" relative="1" as="geometry">
            <mxPoint as="offset" />
          </mxGeometry>
        </mxCell>
        <mxCell id="aUSHLzcYX4MqDzXcXwPa-34" style="edgeStyle=orthogonalEdgeStyle;rounded=0;orthogonalLoop=1;jettySize=auto;html=1;exitX=1;exitY=0.5;exitDx=0;exitDy=0;entryX=0.5;entryY=1;entryDx=0;entryDy=0;" edge="1" parent="WIyWlLk6GJQsqaUBKTNV-1" source="aUSHLzcYX4MqDzXcXwPa-37" target="aUSHLzcYX4MqDzXcXwPa-44">
          <mxGeometry relative="1" as="geometry" />
        </mxCell>
        <mxCell id="aUSHLzcYX4MqDzXcXwPa-35" value="FALSE" style="edgeLabel;html=1;align=center;verticalAlign=middle;resizable=0;points=[];" vertex="1" connectable="0" parent="aUSHLzcYX4MqDzXcXwPa-34">
          <mxGeometry x="-0.5619" y="2" relative="1" as="geometry">
            <mxPoint as="offset" />
          </mxGeometry>
        </mxCell>
        <mxCell id="aUSHLzcYX4MqDzXcXwPa-36" style="edgeStyle=orthogonalEdgeStyle;rounded=0;orthogonalLoop=1;jettySize=auto;html=1;exitX=0.5;exitY=1;exitDx=0;exitDy=0;" edge="1" parent="WIyWlLk6GJQsqaUBKTNV-1" source="aUSHLzcYX4MqDzXcXwPa-37" target="aUSHLzcYX4MqDzXcXwPa-45">
          <mxGeometry relative="1" as="geometry" />
        </mxCell>
        <mxCell id="aUSHLzcYX4MqDzXcXwPa-57" style="edgeStyle=orthogonalEdgeStyle;rounded=0;orthogonalLoop=1;jettySize=auto;html=1;exitX=0.5;exitY=1;exitDx=0;exitDy=0;entryX=0.5;entryY=0;entryDx=0;entryDy=0;" edge="1" parent="WIyWlLk6GJQsqaUBKTNV-1" source="aUSHLzcYX4MqDzXcXwPa-37" target="WIyWlLk6GJQsqaUBKTNV-10">
          <mxGeometry relative="1" as="geometry">
            <Array as="points">
              <mxPoint x="1190" y="460" />
              <mxPoint x="529" y="460" />
            </Array>
          </mxGeometry>
        </mxCell>
        <mxCell id="aUSHLzcYX4MqDzXcXwPa-37" value="BCU_Init_Check" style="rhombus;whiteSpace=wrap;html=1;shadow=0;fontFamily=Helvetica;fontSize=12;align=center;strokeWidth=1;spacing=6;spacingTop=-4;" vertex="1" parent="WIyWlLk6GJQsqaUBKTNV-1">
          <mxGeometry x="1140" y="360" width="100" height="80" as="geometry" />
        </mxCell>
        <mxCell id="aUSHLzcYX4MqDzXcXwPa-38" style="edgeStyle=orthogonalEdgeStyle;rounded=0;orthogonalLoop=1;jettySize=auto;html=1;exitX=0;exitY=0.25;exitDx=0;exitDy=0;entryX=1;entryY=0.25;entryDx=0;entryDy=0;" edge="1" parent="WIyWlLk6GJQsqaUBKTNV-1" source="aUSHLzcYX4MqDzXcXwPa-41" target="aUSHLzcYX4MqDzXcXwPa-32">
          <mxGeometry relative="1" as="geometry" />
        </mxCell>
        <mxCell id="aUSHLzcYX4MqDzXcXwPa-39" value="KL30 OFF" style="edgeLabel;html=1;align=center;verticalAlign=middle;resizable=0;points=[];" vertex="1" connectable="0" parent="aUSHLzcYX4MqDzXcXwPa-38">
          <mxGeometry x="0.2429" y="-2" relative="1" as="geometry">
            <mxPoint x="17" as="offset" />
          </mxGeometry>
        </mxCell>
        <mxCell id="aUSHLzcYX4MqDzXcXwPa-40" value="KL 15" style="edgeStyle=orthogonalEdgeStyle;rounded=0;orthogonalLoop=1;jettySize=auto;html=1;exitX=0.5;exitY=1;exitDx=0;exitDy=0;entryX=0.5;entryY=0;entryDx=0;entryDy=0;" edge="1" parent="WIyWlLk6GJQsqaUBKTNV-1" source="aUSHLzcYX4MqDzXcXwPa-41" target="aUSHLzcYX4MqDzXcXwPa-43">
          <mxGeometry relative="1" as="geometry">
            <mxPoint x="1190" y="200" as="targetPoint" />
          </mxGeometry>
        </mxCell>
        <mxCell id="aUSHLzcYX4MqDzXcXwPa-41" value="SLEEP" style="rounded=1;whiteSpace=wrap;html=1;fontSize=12;glass=0;strokeWidth=1;shadow=0;" vertex="1" parent="WIyWlLk6GJQsqaUBKTNV-1">
          <mxGeometry x="1130" y="60" width="120" height="40" as="geometry" />
        </mxCell>
        <mxCell id="aUSHLzcYX4MqDzXcXwPa-42" value="KL30 : 12V&lt;br&gt;KL15 : Battery Wake Up" style="rounded=1;whiteSpace=wrap;html=1;fontSize=12;glass=0;strokeWidth=1;shadow=0;align=left;" vertex="1" parent="WIyWlLk6GJQsqaUBKTNV-1">
          <mxGeometry x="1690" y="1105" width="210" height="30" as="geometry" />
        </mxCell>
        <mxCell id="aUSHLzcYX4MqDzXcXwPa-43" value="BCU_INIT" style="rounded=1;whiteSpace=wrap;html=1;fontSize=12;glass=0;strokeWidth=1;shadow=0;" vertex="1" parent="WIyWlLk6GJQsqaUBKTNV-1">
          <mxGeometry x="1130" y="230" width="120" height="50" as="geometry" />
        </mxCell>
        <mxCell id="aUSHLzcYX4MqDzXcXwPa-85" style="edgeStyle=orthogonalEdgeStyle;rounded=0;orthogonalLoop=1;jettySize=auto;html=1;exitX=0;exitY=0.5;exitDx=0;exitDy=0;entryX=0.5;entryY=0;entryDx=0;entryDy=0;" edge="1" parent="WIyWlLk6GJQsqaUBKTNV-1" source="aUSHLzcYX4MqDzXcXwPa-44" target="aUSHLzcYX4MqDzXcXwPa-37">
          <mxGeometry relative="1" as="geometry">
            <Array as="points">
              <mxPoint x="1320" y="235" />
              <mxPoint x="1320" y="300" />
              <mxPoint x="1190" y="300" />
            </Array>
          </mxGeometry>
        </mxCell>
        <mxCell id="aUSHLzcYX4MqDzXcXwPa-97" style="edgeStyle=orthogonalEdgeStyle;rounded=0;orthogonalLoop=1;jettySize=auto;html=1;exitX=1;exitY=0.5;exitDx=0;exitDy=0;entryX=0;entryY=0.5;entryDx=0;entryDy=0;" edge="1" parent="WIyWlLk6GJQsqaUBKTNV-1" source="aUSHLzcYX4MqDzXcXwPa-44" target="aUSHLzcYX4MqDzXcXwPa-81">
          <mxGeometry relative="1" as="geometry">
            <Array as="points">
              <mxPoint x="1580" y="235" />
              <mxPoint x="1580" y="400" />
            </Array>
          </mxGeometry>
        </mxCell>
        <mxCell id="aUSHLzcYX4MqDzXcXwPa-44" value="ERROR MODE" style="rounded=1;whiteSpace=wrap;html=1;fontSize=12;glass=0;strokeWidth=1;shadow=0;" vertex="1" parent="WIyWlLk6GJQsqaUBKTNV-1">
          <mxGeometry x="1450" y="210" width="120" height="50" as="geometry" />
        </mxCell>
        <mxCell id="aUSHLzcYX4MqDzXcXwPa-50" style="edgeStyle=orthogonalEdgeStyle;rounded=0;orthogonalLoop=1;jettySize=auto;html=1;exitX=1;exitY=0.5;exitDx=0;exitDy=0;entryX=0.5;entryY=1;entryDx=0;entryDy=0;" edge="1" parent="WIyWlLk6GJQsqaUBKTNV-1" source="aUSHLzcYX4MqDzXcXwPa-45" target="aUSHLzcYX4MqDzXcXwPa-44">
          <mxGeometry relative="1" as="geometry" />
        </mxCell>
        <mxCell id="aUSHLzcYX4MqDzXcXwPa-51" value="FALSE" style="edgeLabel;html=1;align=center;verticalAlign=middle;resizable=0;points=[];" vertex="1" connectable="0" parent="aUSHLzcYX4MqDzXcXwPa-50">
          <mxGeometry x="-0.7296" y="1" relative="1" as="geometry">
            <mxPoint as="offset" />
          </mxGeometry>
        </mxCell>
        <mxCell id="aUSHLzcYX4MqDzXcXwPa-75" style="edgeStyle=orthogonalEdgeStyle;rounded=0;orthogonalLoop=1;jettySize=auto;html=1;exitX=0.5;exitY=1;exitDx=0;exitDy=0;entryX=0.5;entryY=0;entryDx=0;entryDy=0;" edge="1" parent="WIyWlLk6GJQsqaUBKTNV-1" source="aUSHLzcYX4MqDzXcXwPa-45" target="aUSHLzcYX4MqDzXcXwPa-74">
          <mxGeometry relative="1" as="geometry" />
        </mxCell>
        <mxCell id="aUSHLzcYX4MqDzXcXwPa-45" value="READY MODE" style="rounded=1;whiteSpace=wrap;html=1;fontSize=12;glass=0;strokeWidth=1;shadow=0;" vertex="1" parent="WIyWlLk6GJQsqaUBKTNV-1">
          <mxGeometry x="1130" y="504.86" width="120" height="50" as="geometry" />
        </mxCell>
        <mxCell id="aUSHLzcYX4MqDzXcXwPa-48" value="BCU Init Check&lt;br&gt;&lt;br&gt;1. Heartbeat check&lt;br&gt;2. V/T limit Check&lt;br&gt;3. ISO Check (with communciting )&lt;br&gt;4. Contactor Check(ON_OFF_Feedack)&lt;br&gt;" style="rounded=1;whiteSpace=wrap;html=1;fontSize=12;glass=0;strokeWidth=1;shadow=0;" vertex="1" parent="WIyWlLk6GJQsqaUBKTNV-1">
          <mxGeometry x="1760" y="120" width="320" height="170" as="geometry" />
        </mxCell>
        <mxCell id="aUSHLzcYX4MqDzXcXwPa-49" value="READY_MODE&lt;br&gt;&lt;br&gt;Read SOC, Caculate&lt;br&gt;Read SOH,&lt;br&gt;Calculate SOP,&lt;br&gt;V/T monitor" style="rounded=1;whiteSpace=wrap;html=1;fontSize=12;glass=0;strokeWidth=1;shadow=0;" vertex="1" parent="WIyWlLk6GJQsqaUBKTNV-1">
          <mxGeometry x="1760" y="350" width="320" height="170" as="geometry" />
        </mxCell>
        <mxCell id="aUSHLzcYX4MqDzXcXwPa-64" style="edgeStyle=orthogonalEdgeStyle;rounded=0;orthogonalLoop=1;jettySize=auto;html=1;exitX=0.5;exitY=1;exitDx=0;exitDy=0;entryX=0.5;entryY=0;entryDx=0;entryDy=0;" edge="1" parent="WIyWlLk6GJQsqaUBKTNV-1" source="aUSHLzcYX4MqDzXcXwPa-52" target="aUSHLzcYX4MqDzXcXwPa-62">
          <mxGeometry relative="1" as="geometry" />
        </mxCell>
        <mxCell id="aUSHLzcYX4MqDzXcXwPa-52" value="Pre_Charge" style="rounded=1;whiteSpace=wrap;html=1;fontSize=12;glass=0;strokeWidth=1;shadow=0;" vertex="1" parent="WIyWlLk6GJQsqaUBKTNV-1">
          <mxGeometry x="1130" y="709.86" width="120" height="50" as="geometry" />
        </mxCell>
        <mxCell id="aUSHLzcYX4MqDzXcXwPa-73" style="edgeStyle=orthogonalEdgeStyle;rounded=0;orthogonalLoop=1;jettySize=auto;html=1;exitX=1;exitY=0.5;exitDx=0;exitDy=0;entryX=0;entryY=0.5;entryDx=0;entryDy=0;" edge="1" parent="WIyWlLk6GJQsqaUBKTNV-1" source="aUSHLzcYX4MqDzXcXwPa-54" target="aUSHLzcYX4MqDzXcXwPa-45">
          <mxGeometry relative="1" as="geometry" />
        </mxCell>
        <mxCell id="aUSHLzcYX4MqDzXcXwPa-78" value="BCU_PRECHARGE=1" style="edgeLabel;html=1;align=center;verticalAlign=middle;resizable=0;points=[];" vertex="1" connectable="0" parent="aUSHLzcYX4MqDzXcXwPa-73">
          <mxGeometry x="0.7926" y="-8" relative="1" as="geometry">
            <mxPoint x="1" as="offset" />
          </mxGeometry>
        </mxCell>
        <mxCell id="aUSHLzcYX4MqDzXcXwPa-91" style="edgeStyle=orthogonalEdgeStyle;rounded=0;orthogonalLoop=1;jettySize=auto;html=1;exitX=1;exitY=0.5;exitDx=0;exitDy=0;entryX=0.5;entryY=0;entryDx=0;entryDy=0;" edge="1" parent="WIyWlLk6GJQsqaUBKTNV-1" source="aUSHLzcYX4MqDzXcXwPa-54" target="aUSHLzcYX4MqDzXcXwPa-89">
          <mxGeometry relative="1" as="geometry">
            <Array as="points">
              <mxPoint x="860" y="875" />
              <mxPoint x="860" y="1000" />
              <mxPoint x="1191" y="1000" />
            </Array>
          </mxGeometry>
        </mxCell>
        <mxCell id="aUSHLzcYX4MqDzXcXwPa-92" value="BCU_OP" style="edgeLabel;html=1;align=center;verticalAlign=middle;resizable=0;points=[];" vertex="1" connectable="0" parent="aUSHLzcYX4MqDzXcXwPa-91">
          <mxGeometry x="0.5204" y="-3" relative="1" as="geometry">
            <mxPoint x="1" as="offset" />
          </mxGeometry>
        </mxCell>
        <mxCell id="aUSHLzcYX4MqDzXcXwPa-101" style="edgeStyle=orthogonalEdgeStyle;rounded=0;orthogonalLoop=1;jettySize=auto;html=1;exitX=0.5;exitY=1;exitDx=0;exitDy=0;entryX=0.5;entryY=0;entryDx=0;entryDy=0;" edge="1" parent="WIyWlLk6GJQsqaUBKTNV-1" source="aUSHLzcYX4MqDzXcXwPa-54" target="aUSHLzcYX4MqDzXcXwPa-100">
          <mxGeometry relative="1" as="geometry" />
        </mxCell>
        <mxCell id="ViRjyvhKcLmsxNrdw0dP-0" value="ESU_OPERATE=0" style="edgeStyle=orthogonalEdgeStyle;rounded=0;orthogonalLoop=1;jettySize=auto;html=1;exitX=0.75;exitY=1;exitDx=0;exitDy=0;entryX=1;entryY=0.5;entryDx=0;entryDy=0;" edge="1" parent="WIyWlLk6GJQsqaUBKTNV-1" source="aUSHLzcYX4MqDzXcXwPa-54" target="aUSHLzcYX4MqDzXcXwPa-9">
          <mxGeometry x="0.1957" relative="1" as="geometry">
            <mxPoint x="710" y="890" as="targetPoint" />
            <Array as="points">
              <mxPoint x="559" y="920" />
              <mxPoint x="740" y="920" />
              <mxPoint x="740" y="735" />
            </Array>
            <mxPoint y="-1" as="offset" />
          </mxGeometry>
        </mxCell>
        <mxCell id="aUSHLzcYX4MqDzXcXwPa-54" value="OPERATIONAL MODE" style="rounded=1;whiteSpace=wrap;html=1;fontSize=12;glass=0;strokeWidth=1;shadow=0;" vertex="1" parent="WIyWlLk6GJQsqaUBKTNV-1">
          <mxGeometry x="469" y="849.86" width="120" height="50" as="geometry" />
        </mxCell>
        <mxCell id="aUSHLzcYX4MqDzXcXwPa-66" value="NO" style="edgeStyle=orthogonalEdgeStyle;rounded=0;orthogonalLoop=1;jettySize=auto;html=1;exitX=1;exitY=0.5;exitDx=0;exitDy=0;entryX=0;entryY=0.5;entryDx=0;entryDy=0;" edge="1" parent="WIyWlLk6GJQsqaUBKTNV-1" source="aUSHLzcYX4MqDzXcXwPa-62" target="aUSHLzcYX4MqDzXcXwPa-67">
          <mxGeometry relative="1" as="geometry">
            <mxPoint x="1340" y="1120.3333333333335" as="targetPoint" />
          </mxGeometry>
        </mxCell>
        <mxCell id="aUSHLzcYX4MqDzXcXwPa-88" value="YES" style="edgeStyle=orthogonalEdgeStyle;rounded=0;orthogonalLoop=1;jettySize=auto;html=1;exitX=0.5;exitY=1;exitDx=0;exitDy=0;entryX=0.5;entryY=0;entryDx=0;entryDy=0;" edge="1" parent="WIyWlLk6GJQsqaUBKTNV-1" source="aUSHLzcYX4MqDzXcXwPa-62" target="aUSHLzcYX4MqDzXcXwPa-89">
          <mxGeometry relative="1" as="geometry">
            <mxPoint x="1191" y="919.9999999999998" as="targetPoint" />
          </mxGeometry>
        </mxCell>
        <mxCell id="aUSHLzcYX4MqDzXcXwPa-62" value="PRE_CHARGE&lt;br&gt;COMPLETE" style="rhombus;whiteSpace=wrap;html=1;shadow=0;fontFamily=Helvetica;fontSize=12;align=center;strokeWidth=1;spacing=6;spacingTop=-4;" vertex="1" parent="WIyWlLk6GJQsqaUBKTNV-1">
          <mxGeometry x="1141" y="800" width="100" height="80" as="geometry" />
        </mxCell>
        <mxCell id="aUSHLzcYX4MqDzXcXwPa-82" style="edgeStyle=orthogonalEdgeStyle;rounded=0;orthogonalLoop=1;jettySize=auto;html=1;exitX=1;exitY=0.5;exitDx=0;exitDy=0;entryX=0.5;entryY=1;entryDx=0;entryDy=0;" edge="1" parent="WIyWlLk6GJQsqaUBKTNV-1" source="aUSHLzcYX4MqDzXcXwPa-67" target="aUSHLzcYX4MqDzXcXwPa-81">
          <mxGeometry relative="1" as="geometry" />
        </mxCell>
        <mxCell id="aUSHLzcYX4MqDzXcXwPa-67" value="&amp;gt;PRE_CHARGE_TRY_LIMIT" style="rhombus;whiteSpace=wrap;html=1;shadow=0;fontFamily=Helvetica;fontSize=12;align=center;strokeWidth=1;spacing=6;spacingTop=-4;" vertex="1" parent="WIyWlLk6GJQsqaUBKTNV-1">
          <mxGeometry x="1350" y="800" width="100" height="80" as="geometry" />
        </mxCell>
        <mxCell id="aUSHLzcYX4MqDzXcXwPa-77" value="NO" style="edgeStyle=orthogonalEdgeStyle;rounded=0;orthogonalLoop=1;jettySize=auto;html=1;exitX=0.5;exitY=1;exitDx=0;exitDy=0;entryX=0.5;entryY=0;entryDx=0;entryDy=0;" edge="1" parent="WIyWlLk6GJQsqaUBKTNV-1" source="aUSHLzcYX4MqDzXcXwPa-74" target="aUSHLzcYX4MqDzXcXwPa-52">
          <mxGeometry relative="1" as="geometry" />
        </mxCell>
        <mxCell id="aUSHLzcYX4MqDzXcXwPa-79" style="edgeStyle=orthogonalEdgeStyle;rounded=0;orthogonalLoop=1;jettySize=auto;html=1;exitX=1;exitY=0.5;exitDx=0;exitDy=0;entryX=0.5;entryY=1;entryDx=0;entryDy=0;" edge="1" parent="WIyWlLk6GJQsqaUBKTNV-1" source="aUSHLzcYX4MqDzXcXwPa-74" target="aUSHLzcYX4MqDzXcXwPa-44">
          <mxGeometry relative="1" as="geometry" />
        </mxCell>
        <mxCell id="aUSHLzcYX4MqDzXcXwPa-80" value="YES" style="edgeLabel;html=1;align=center;verticalAlign=middle;resizable=0;points=[];" vertex="1" connectable="0" parent="aUSHLzcYX4MqDzXcXwPa-79">
          <mxGeometry x="-0.7907" y="1" relative="1" as="geometry">
            <mxPoint as="offset" />
          </mxGeometry>
        </mxCell>
        <mxCell id="aUSHLzcYX4MqDzXcXwPa-74" value="ERROR" style="rhombus;whiteSpace=wrap;html=1;shadow=0;fontFamily=Helvetica;fontSize=12;align=center;strokeWidth=1;spacing=6;spacingTop=-4;" vertex="1" parent="WIyWlLk6GJQsqaUBKTNV-1">
          <mxGeometry x="1140" y="585" width="100" height="80" as="geometry" />
        </mxCell>
        <mxCell id="aUSHLzcYX4MqDzXcXwPa-83" style="edgeStyle=orthogonalEdgeStyle;rounded=0;orthogonalLoop=1;jettySize=auto;html=1;exitX=0.5;exitY=0;exitDx=0;exitDy=0;entryX=1;entryY=0.5;entryDx=0;entryDy=0;" edge="1" parent="WIyWlLk6GJQsqaUBKTNV-1" source="aUSHLzcYX4MqDzXcXwPa-81" target="aUSHLzcYX4MqDzXcXwPa-41">
          <mxGeometry relative="1" as="geometry" />
        </mxCell>
        <mxCell id="aUSHLzcYX4MqDzXcXwPa-84" value="KL_15 OFF" style="edgeLabel;html=1;align=center;verticalAlign=middle;resizable=0;points=[];" vertex="1" connectable="0" parent="aUSHLzcYX4MqDzXcXwPa-83">
          <mxGeometry x="-0.6665" y="-1" relative="1" as="geometry">
            <mxPoint y="1" as="offset" />
          </mxGeometry>
        </mxCell>
        <mxCell id="aUSHLzcYX4MqDzXcXwPa-81" value="PERMANENT_ERROR" style="rounded=1;whiteSpace=wrap;html=1;fontSize=12;glass=0;strokeWidth=1;shadow=0;" vertex="1" parent="WIyWlLk6GJQsqaUBKTNV-1">
          <mxGeometry x="1590" y="375" width="120" height="50" as="geometry" />
        </mxCell>
        <mxCell id="aUSHLzcYX4MqDzXcXwPa-95" style="edgeStyle=orthogonalEdgeStyle;rounded=0;orthogonalLoop=1;jettySize=auto;html=1;exitX=0.5;exitY=1;exitDx=0;exitDy=0;entryX=0.5;entryY=0;entryDx=0;entryDy=0;" edge="1" parent="WIyWlLk6GJQsqaUBKTNV-1" source="aUSHLzcYX4MqDzXcXwPa-89" target="aUSHLzcYX4MqDzXcXwPa-94">
          <mxGeometry relative="1" as="geometry" />
        </mxCell>
        <mxCell id="ViRjyvhKcLmsxNrdw0dP-1" style="edgeStyle=orthogonalEdgeStyle;rounded=0;orthogonalLoop=1;jettySize=auto;html=1;exitX=0;exitY=0.5;exitDx=0;exitDy=0;entryX=0;entryY=0.75;entryDx=0;entryDy=0;" edge="1" parent="WIyWlLk6GJQsqaUBKTNV-1" source="aUSHLzcYX4MqDzXcXwPa-89" target="aUSHLzcYX4MqDzXcXwPa-45">
          <mxGeometry relative="1" as="geometry">
            <Array as="points">
              <mxPoint x="910" y="1075" />
              <mxPoint x="910" y="543" />
            </Array>
          </mxGeometry>
        </mxCell>
        <mxCell id="ViRjyvhKcLmsxNrdw0dP-2" value="BCU_OP=0" style="edgeLabel;html=1;align=center;verticalAlign=middle;resizable=0;points=[];" vertex="1" connectable="0" parent="ViRjyvhKcLmsxNrdw0dP-1">
          <mxGeometry x="0.1525" y="6" relative="1" as="geometry">
            <mxPoint y="-1" as="offset" />
          </mxGeometry>
        </mxCell>
        <mxCell id="aUSHLzcYX4MqDzXcXwPa-89" value="OP_MODE" style="rounded=1;whiteSpace=wrap;html=1;fontSize=12;glass=0;strokeWidth=1;shadow=0;" vertex="1" parent="WIyWlLk6GJQsqaUBKTNV-1">
          <mxGeometry x="1131" y="1050" width="120" height="50" as="geometry" />
        </mxCell>
        <mxCell id="aUSHLzcYX4MqDzXcXwPa-96" style="edgeStyle=orthogonalEdgeStyle;rounded=0;orthogonalLoop=1;jettySize=auto;html=1;exitX=0.5;exitY=1;exitDx=0;exitDy=0;entryX=0.5;entryY=1;entryDx=0;entryDy=0;" edge="1" parent="WIyWlLk6GJQsqaUBKTNV-1" source="aUSHLzcYX4MqDzXcXwPa-94" target="aUSHLzcYX4MqDzXcXwPa-44">
          <mxGeometry relative="1" as="geometry">
            <mxPoint x="1610" y="840" as="targetPoint" />
          </mxGeometry>
        </mxCell>
        <mxCell id="aUSHLzcYX4MqDzXcXwPa-98" value="YES" style="edgeLabel;html=1;align=center;verticalAlign=middle;resizable=0;points=[];" vertex="1" connectable="0" parent="aUSHLzcYX4MqDzXcXwPa-96">
          <mxGeometry x="-0.8878" y="-2" relative="1" as="geometry">
            <mxPoint x="-1" as="offset" />
          </mxGeometry>
        </mxCell>
        <mxCell id="aUSHLzcYX4MqDzXcXwPa-99" style="edgeStyle=orthogonalEdgeStyle;rounded=0;orthogonalLoop=1;jettySize=auto;html=1;exitX=1;exitY=0.5;exitDx=0;exitDy=0;entryX=1;entryY=0.5;entryDx=0;entryDy=0;" edge="1" parent="WIyWlLk6GJQsqaUBKTNV-1" source="aUSHLzcYX4MqDzXcXwPa-94" target="aUSHLzcYX4MqDzXcXwPa-89">
          <mxGeometry relative="1" as="geometry">
            <Array as="points">
              <mxPoint x="1340" y="1190" />
              <mxPoint x="1340" y="1075" />
            </Array>
          </mxGeometry>
        </mxCell>
        <mxCell id="aUSHLzcYX4MqDzXcXwPa-94" value="ERROR" style="rhombus;whiteSpace=wrap;html=1;shadow=0;fontFamily=Helvetica;fontSize=12;align=center;strokeWidth=1;spacing=6;spacingTop=-4;" vertex="1" parent="WIyWlLk6GJQsqaUBKTNV-1">
          <mxGeometry x="1140" y="1150" width="100" height="80" as="geometry" />
        </mxCell>
        <mxCell id="aUSHLzcYX4MqDzXcXwPa-102" value="NO" style="edgeStyle=orthogonalEdgeStyle;rounded=0;orthogonalLoop=1;jettySize=auto;html=1;exitX=0;exitY=0.5;exitDx=0;exitDy=0;entryX=0;entryY=0.5;entryDx=0;entryDy=0;" edge="1" parent="WIyWlLk6GJQsqaUBKTNV-1" source="aUSHLzcYX4MqDzXcXwPa-100" target="aUSHLzcYX4MqDzXcXwPa-54">
          <mxGeometry relative="1" as="geometry" />
        </mxCell>
        <mxCell id="aUSHLzcYX4MqDzXcXwPa-103" style="edgeStyle=orthogonalEdgeStyle;rounded=0;orthogonalLoop=1;jettySize=auto;html=1;exitX=0.5;exitY=1;exitDx=0;exitDy=0;entryX=0.5;entryY=0;entryDx=0;entryDy=0;" edge="1" parent="WIyWlLk6GJQsqaUBKTNV-1" source="aUSHLzcYX4MqDzXcXwPa-100" target="aUSHLzcYX4MqDzXcXwPa-3">
          <mxGeometry relative="1" as="geometry" />
        </mxCell>
        <mxCell id="aUSHLzcYX4MqDzXcXwPa-104" value="YES" style="edgeLabel;html=1;align=center;verticalAlign=middle;resizable=0;points=[];" vertex="1" connectable="0" parent="aUSHLzcYX4MqDzXcXwPa-103">
          <mxGeometry x="-0.7665" y="5" relative="1" as="geometry">
            <mxPoint as="offset" />
          </mxGeometry>
        </mxCell>
        <mxCell id="aUSHLzcYX4MqDzXcXwPa-100" value="ERROR" style="rhombus;whiteSpace=wrap;html=1;shadow=0;fontFamily=Helvetica;fontSize=12;align=center;strokeWidth=1;spacing=6;spacingTop=-4;" vertex="1" parent="WIyWlLk6GJQsqaUBKTNV-1">
          <mxGeometry x="479" y="950" width="100" height="80" as="geometry" />
        </mxCell>
      </root>
    </mxGraphModel>
  </diagram>
  <diagram id="DCwiPxC6cdrz_IFDqO3Z" name="Page-2">
    <mxGraphModel dx="3135" dy="2160" grid="1" gridSize="10" guides="1" tooltips="1" connect="1" arrows="1" fold="1" page="1" pageScale="1" pageWidth="850" pageHeight="1100" math="0" shadow="0">
      <root>
        <mxCell id="tb_iwrgmpNeFT452qtZq-0" />
        <mxCell id="tb_iwrgmpNeFT452qtZq-1" parent="tb_iwrgmpNeFT452qtZq-0" />
        <mxCell id="tb_iwrgmpNeFT452qtZq-326" value="&lt;font style=&quot;font-size: 36px&quot;&gt;POWER DIST BOX&lt;/font&gt;" style="rounded=1;whiteSpace=wrap;html=1;fillColor=#e1d5e7;strokeColor=#9673a6;" vertex="1" parent="tb_iwrgmpNeFT452qtZq-1">
          <mxGeometry x="1910" y="600" width="300" height="360" as="geometry" />
        </mxCell>
        <mxCell id="tb_iwrgmpNeFT452qtZq-333" style="edgeStyle=orthogonalEdgeStyle;rounded=0;orthogonalLoop=1;jettySize=auto;html=1;exitX=0;exitY=0.75;exitDx=0;exitDy=0;endArrow=none;endFill=0;strokeColor=#FF9933;strokeWidth=19;entryX=0.25;entryY=1;entryDx=0;entryDy=0;" edge="1" parent="tb_iwrgmpNeFT452qtZq-1" target="tb_iwrgmpNeFT452qtZq-326">
          <mxGeometry relative="1" as="geometry">
            <mxPoint x="1754.8000000000002" y="1309" as="sourcePoint" />
            <mxPoint x="2040" y="960" as="targetPoint" />
            <Array as="points">
              <mxPoint x="1985" y="1309" />
            </Array>
          </mxGeometry>
        </mxCell>
        <mxCell id="tb_iwrgmpNeFT452qtZq-319" value="&lt;font style=&quot;font-size: 48px&quot;&gt;ESCU&lt;/font&gt;" style="rounded=1;whiteSpace=wrap;html=1;fillColor=#f8cecc;strokeColor=#b85450;" vertex="1" parent="tb_iwrgmpNeFT452qtZq-1">
          <mxGeometry x="1910" y="90" width="310" height="210" as="geometry" />
        </mxCell>
        <mxCell id="tb_iwrgmpNeFT452qtZq-324" style="edgeStyle=orthogonalEdgeStyle;rounded=1;orthogonalLoop=1;jettySize=auto;html=1;exitX=0;exitY=0.5;exitDx=0;exitDy=0;entryX=1;entryY=0.5;entryDx=0;entryDy=0;endArrow=none;endFill=0;strokeWidth=3;strokeColor=#FFFF66;" edge="1" parent="tb_iwrgmpNeFT452qtZq-1">
          <mxGeometry relative="1" as="geometry">
            <mxPoint x="1754.8000000000002" y="151" as="sourcePoint" />
            <mxPoint x="1910" y="151" as="targetPoint" />
            <Array as="points">
              <mxPoint x="1777" y="151" />
              <mxPoint x="1777" y="151" />
            </Array>
          </mxGeometry>
        </mxCell>
        <mxCell id="tb_iwrgmpNeFT452qtZq-325" style="edgeStyle=orthogonalEdgeStyle;rounded=1;orthogonalLoop=1;jettySize=auto;html=1;endArrow=none;endFill=0;strokeWidth=3;strokeColor=#FFFF66;exitX=0;exitY=0.5;exitDx=0;exitDy=0;" edge="1" parent="tb_iwrgmpNeFT452qtZq-1" source="m39vFG9uocM71Nc5CBtc-158">
          <mxGeometry relative="1" as="geometry">
            <mxPoint x="1750" y="950" as="sourcePoint" />
            <mxPoint x="1910" y="150" as="targetPoint" />
            <Array as="points">
              <mxPoint x="1755" y="955" />
              <mxPoint x="1810" y="955" />
              <mxPoint x="1810" y="150" />
            </Array>
          </mxGeometry>
        </mxCell>
        <mxCell id="tb_iwrgmpNeFT452qtZq-329" style="edgeStyle=orthogonalEdgeStyle;rounded=0;orthogonalLoop=1;jettySize=auto;html=1;exitX=0;exitY=0.5;exitDx=0;exitDy=0;entryX=0.5;entryY=0;entryDx=0;entryDy=0;endArrow=none;endFill=0;strokeColor=#FF9933;strokeWidth=19;" edge="1" parent="tb_iwrgmpNeFT452qtZq-1" target="tb_iwrgmpNeFT452qtZq-326">
          <mxGeometry relative="1" as="geometry">
            <mxPoint x="1754.8000000000002" y="510" as="sourcePoint" />
            <mxPoint x="1940" y="510" as="targetPoint" />
          </mxGeometry>
        </mxCell>
        <mxCell id="tb_iwrgmpNeFT452qtZq-331" style="edgeStyle=orthogonalEdgeStyle;rounded=0;orthogonalLoop=1;jettySize=auto;html=1;exitX=0;exitY=0.5;exitDx=0;exitDy=0;entryX=0.25;entryY=0;entryDx=0;entryDy=0;endArrow=none;endFill=0;strokeColor=#FF9933;strokeWidth=19;" edge="1" parent="tb_iwrgmpNeFT452qtZq-1" target="tb_iwrgmpNeFT452qtZq-326">
          <mxGeometry relative="1" as="geometry">
            <mxPoint x="1754.8000000000002" y="577.5" as="sourcePoint" />
            <mxPoint x="1930" y="734" as="targetPoint" />
          </mxGeometry>
        </mxCell>
        <mxCell id="tb_iwrgmpNeFT452qtZq-332" style="edgeStyle=orthogonalEdgeStyle;rounded=0;orthogonalLoop=1;jettySize=auto;html=1;exitX=0;exitY=0.5;exitDx=0;exitDy=0;entryX=0.5;entryY=1;entryDx=0;entryDy=0;endArrow=none;endFill=0;strokeColor=#FF9933;strokeWidth=19;" edge="1" parent="tb_iwrgmpNeFT452qtZq-1" target="tb_iwrgmpNeFT452qtZq-326">
          <mxGeometry relative="1" as="geometry">
            <mxPoint x="1754.8000000000002" y="1381.5" as="sourcePoint" />
            <mxPoint x="1960" y="764" as="targetPoint" />
          </mxGeometry>
        </mxCell>
        <mxCell id="tb_iwrgmpNeFT452qtZq-342" value="LOAD" style="rounded=1;whiteSpace=wrap;html=1;direction=south;" vertex="1" parent="tb_iwrgmpNeFT452qtZq-1">
          <mxGeometry x="2620" y="415" width="630" height="320" as="geometry" />
        </mxCell>
        <mxCell id="tb_iwrgmpNeFT452qtZq-348" style="edgeStyle=orthogonalEdgeStyle;rounded=0;orthogonalLoop=1;jettySize=auto;html=1;entryX=1;entryY=0.5;entryDx=0;entryDy=0;endArrow=none;endFill=0;strokeWidth=3;strokeColor=#00CC00;exitX=0;exitY=0.5;exitDx=0;exitDy=0;" edge="1" parent="tb_iwrgmpNeFT452qtZq-1" source="tb_iwrgmpNeFT452qtZq-343" target="tb_iwrgmpNeFT452qtZq-345">
          <mxGeometry relative="1" as="geometry">
            <mxPoint x="2260" y="170" as="sourcePoint" />
            <Array as="points">
              <mxPoint x="2420" y="151" />
              <mxPoint x="2420" y="505" />
            </Array>
          </mxGeometry>
        </mxCell>
        <mxCell id="tb_iwrgmpNeFT452qtZq-343" value="CAN" style="rounded=1;whiteSpace=wrap;html=1;direction=west;fillColor=#00CC00;" vertex="1" parent="tb_iwrgmpNeFT452qtZq-1">
          <mxGeometry x="2170" y="141" width="50" height="20" as="geometry" />
        </mxCell>
        <mxCell id="tb_iwrgmpNeFT452qtZq-345" value="CAN" style="rounded=1;whiteSpace=wrap;html=1;direction=west;" vertex="1" parent="tb_iwrgmpNeFT452qtZq-1">
          <mxGeometry x="2620" y="495" width="50" height="20" as="geometry" />
        </mxCell>
        <mxCell id="tb_iwrgmpNeFT452qtZq-346" value="M" style="verticalLabelPosition=middle;shadow=0;dashed=0;align=center;html=1;verticalAlign=middle;strokeWidth=1;shape=ellipse;aspect=fixed;fontSize=35;fillColor=none;" vertex="1" parent="tb_iwrgmpNeFT452qtZq-1">
          <mxGeometry x="3150" y="533" width="60" height="60" as="geometry" />
        </mxCell>
        <mxCell id="tb_iwrgmpNeFT452qtZq-347" value="AC CHARGER" style="rounded=1;whiteSpace=wrap;html=1;direction=south;" vertex="1" parent="tb_iwrgmpNeFT452qtZq-1">
          <mxGeometry x="2620" y="834" width="630" height="320" as="geometry" />
        </mxCell>
        <mxCell id="tb_iwrgmpNeFT452qtZq-357" style="edgeStyle=orthogonalEdgeStyle;rounded=0;orthogonalLoop=1;jettySize=auto;html=1;exitX=1;exitY=0.5;exitDx=0;exitDy=0;entryX=0;entryY=0.5;entryDx=0;entryDy=0;endArrow=none;endFill=0;strokeColor=#00CC00;strokeWidth=3;" edge="1" parent="tb_iwrgmpNeFT452qtZq-1" source="tb_iwrgmpNeFT452qtZq-349" target="tb_iwrgmpNeFT452qtZq-343">
          <mxGeometry relative="1" as="geometry" />
        </mxCell>
        <mxCell id="tb_iwrgmpNeFT452qtZq-349" value="CAN" style="rounded=1;whiteSpace=wrap;html=1;direction=west;" vertex="1" parent="tb_iwrgmpNeFT452qtZq-1">
          <mxGeometry x="2620" y="904" width="50" height="20" as="geometry" />
        </mxCell>
        <mxCell id="tb_iwrgmpNeFT452qtZq-350" value="DC CHARGER" style="rounded=1;whiteSpace=wrap;html=1;direction=south;" vertex="1" parent="tb_iwrgmpNeFT452qtZq-1">
          <mxGeometry x="2620" y="1264" width="630" height="320" as="geometry" />
        </mxCell>
        <mxCell id="tb_iwrgmpNeFT452qtZq-358" style="edgeStyle=orthogonalEdgeStyle;rounded=0;orthogonalLoop=1;jettySize=auto;html=1;exitX=1;exitY=0.5;exitDx=0;exitDy=0;endArrow=none;endFill=0;strokeColor=#00CC00;strokeWidth=3;entryX=0;entryY=0.5;entryDx=0;entryDy=0;" edge="1" parent="tb_iwrgmpNeFT452qtZq-1" source="tb_iwrgmpNeFT452qtZq-351" target="tb_iwrgmpNeFT452qtZq-343">
          <mxGeometry relative="1" as="geometry">
            <mxPoint x="2290" y="182.3809814453125" as="targetPoint" />
          </mxGeometry>
        </mxCell>
        <mxCell id="tb_iwrgmpNeFT452qtZq-351" value="CAN" style="rounded=1;whiteSpace=wrap;html=1;direction=west;" vertex="1" parent="tb_iwrgmpNeFT452qtZq-1">
          <mxGeometry x="2620" y="1334" width="50" height="20" as="geometry" />
        </mxCell>
        <mxCell id="tb_iwrgmpNeFT452qtZq-352" value="VEHICLE CONTROL UNIT" style="rounded=1;whiteSpace=wrap;html=1;direction=south;" vertex="1" parent="tb_iwrgmpNeFT452qtZq-1">
          <mxGeometry x="2610" width="630" height="320" as="geometry" />
        </mxCell>
        <mxCell id="tb_iwrgmpNeFT452qtZq-356" style="edgeStyle=orthogonalEdgeStyle;rounded=0;orthogonalLoop=1;jettySize=auto;html=1;exitX=1;exitY=0.5;exitDx=0;exitDy=0;endArrow=none;endFill=0;strokeWidth=3;strokeColor=#00CC00;" edge="1" parent="tb_iwrgmpNeFT452qtZq-1" source="tb_iwrgmpNeFT452qtZq-355">
          <mxGeometry relative="1" as="geometry">
            <mxPoint x="2220" y="151" as="targetPoint" />
            <Array as="points">
              <mxPoint x="2420" y="60" />
              <mxPoint x="2420" y="151" />
            </Array>
          </mxGeometry>
        </mxCell>
        <mxCell id="tb_iwrgmpNeFT452qtZq-355" value="CAN" style="rounded=1;whiteSpace=wrap;html=1;direction=west;" vertex="1" parent="tb_iwrgmpNeFT452qtZq-1">
          <mxGeometry x="2610" y="50" width="50" height="20" as="geometry" />
        </mxCell>
        <mxCell id="m39vFG9uocM71Nc5CBtc-0" value="" style="rounded=0;whiteSpace=wrap;html=1;fillColor=#f5f5f5;strokeColor=#666666;fontColor=#333333;" vertex="1" parent="tb_iwrgmpNeFT452qtZq-1">
          <mxGeometry x="60" y="80" width="1710" height="580" as="geometry" />
        </mxCell>
        <mxCell id="m39vFG9uocM71Nc5CBtc-1" value="" style="rounded=1;whiteSpace=wrap;html=1;fillColor=none;" vertex="1" parent="tb_iwrgmpNeFT452qtZq-1">
          <mxGeometry x="1690" y="91" width="80" height="149" as="geometry" />
        </mxCell>
        <mxCell id="m39vFG9uocM71Nc5CBtc-2" value="&lt;b&gt;&lt;font style=&quot;font-size: 24px&quot;&gt;BCU&lt;/font&gt;&lt;/b&gt;" style="rounded=1;whiteSpace=wrap;html=1;fillColor=#fff2cc;strokeColor=#d6b656;" vertex="1" parent="tb_iwrgmpNeFT452qtZq-1">
          <mxGeometry x="1164.8" y="161" width="435.2" height="209" as="geometry" />
        </mxCell>
        <mxCell id="m39vFG9uocM71Nc5CBtc-3" value="" style="group;fillColor=#f5f5f5;strokeColor=#666666;fontColor=#333333;" vertex="1" connectable="0" parent="tb_iwrgmpNeFT452qtZq-1">
          <mxGeometry x="109.8" y="160" width="250" height="440" as="geometry" />
        </mxCell>
        <mxCell id="m39vFG9uocM71Nc5CBtc-4" value="" style="group" vertex="1" connectable="0" parent="m39vFG9uocM71Nc5CBtc-3">
          <mxGeometry x="30" y="10" width="220" height="410" as="geometry" />
        </mxCell>
        <mxCell id="m39vFG9uocM71Nc5CBtc-5" value="&lt;font style=&quot;font-size: 24px&quot;&gt;&lt;b&gt;MCU&lt;/b&gt;&lt;/font&gt;" style="rounded=1;whiteSpace=wrap;html=1;fillColor=#e1d5e7;strokeColor=#9673a6;" vertex="1" parent="m39vFG9uocM71Nc5CBtc-4">
          <mxGeometry width="200" height="100" as="geometry" />
        </mxCell>
        <mxCell id="m39vFG9uocM71Nc5CBtc-6" value="V" style="edgeStyle=orthogonalEdgeStyle;rounded=0;orthogonalLoop=1;jettySize=auto;html=1;exitX=0.25;exitY=0;exitDx=0;exitDy=0;entryX=0.25;entryY=1;entryDx=0;entryDy=0;" edge="1" parent="m39vFG9uocM71Nc5CBtc-4" source="m39vFG9uocM71Nc5CBtc-8" target="m39vFG9uocM71Nc5CBtc-5">
          <mxGeometry relative="1" as="geometry" />
        </mxCell>
        <mxCell id="m39vFG9uocM71Nc5CBtc-7" value="T" style="edgeStyle=orthogonalEdgeStyle;rounded=0;orthogonalLoop=1;jettySize=auto;html=1;exitX=0.5;exitY=0;exitDx=0;exitDy=0;" edge="1" parent="m39vFG9uocM71Nc5CBtc-4" source="m39vFG9uocM71Nc5CBtc-8" target="m39vFG9uocM71Nc5CBtc-5">
          <mxGeometry relative="1" as="geometry" />
        </mxCell>
        <mxCell id="m39vFG9uocM71Nc5CBtc-8" value="" style="rounded=1;whiteSpace=wrap;html=1;fillColor=#dae8fc;strokeColor=#6c8ebf;" vertex="1" parent="m39vFG9uocM71Nc5CBtc-4">
          <mxGeometry y="170" width="200" height="240" as="geometry" />
        </mxCell>
        <mxCell id="m39vFG9uocM71Nc5CBtc-9" value="SPI" style="rounded=1;whiteSpace=wrap;html=1;direction=south;fillColor=#0050ef;strokeColor=#001DBC;fontColor=#ffffff;" vertex="1" parent="m39vFG9uocM71Nc5CBtc-4">
          <mxGeometry x="155" y="-10" width="20" height="50" as="geometry" />
        </mxCell>
        <mxCell id="m39vFG9uocM71Nc5CBtc-10" value="" style="pointerEvents=1;verticalLabelPosition=bottom;shadow=0;dashed=0;align=center;html=1;verticalAlign=top;shape=mxgraph.electrical.miscellaneous.batteryStack;direction=north;" vertex="1" parent="m39vFG9uocM71Nc5CBtc-4">
          <mxGeometry x="82.5" y="220" width="35" height="165" as="geometry" />
        </mxCell>
        <mxCell id="m39vFG9uocM71Nc5CBtc-11" value="-" style="rounded=1;whiteSpace=wrap;html=1;strokeColor=#666666;fontColor=#333333;fillColor=#f5f5f5;" vertex="1" parent="m39vFG9uocM71Nc5CBtc-3">
          <mxGeometry y="370" width="50" height="20" as="geometry" />
        </mxCell>
        <mxCell id="m39vFG9uocM71Nc5CBtc-12" value="+" style="rounded=1;whiteSpace=wrap;html=1;fillColor=#f5f5f5;strokeColor=#666666;fontColor=#333333;" vertex="1" parent="m39vFG9uocM71Nc5CBtc-3">
          <mxGeometry x="200" y="370" width="50" height="20" as="geometry" />
        </mxCell>
        <mxCell id="m39vFG9uocM71Nc5CBtc-13" value="" style="group;fillColor=#fff2cc;strokeColor=#d6b656;" vertex="1" connectable="0" parent="tb_iwrgmpNeFT452qtZq-1">
          <mxGeometry x="374.8" y="160" width="250" height="440" as="geometry" />
        </mxCell>
        <mxCell id="m39vFG9uocM71Nc5CBtc-14" value="" style="group" vertex="1" connectable="0" parent="m39vFG9uocM71Nc5CBtc-13">
          <mxGeometry x="30" y="10" width="220" height="410" as="geometry" />
        </mxCell>
        <mxCell id="m39vFG9uocM71Nc5CBtc-15" value="&lt;font style=&quot;font-size: 24px&quot;&gt;&lt;b&gt;MCU&lt;/b&gt;&lt;/font&gt;" style="rounded=1;whiteSpace=wrap;html=1;fillColor=#e1d5e7;strokeColor=#9673a6;" vertex="1" parent="m39vFG9uocM71Nc5CBtc-14">
          <mxGeometry width="200" height="100" as="geometry" />
        </mxCell>
        <mxCell id="m39vFG9uocM71Nc5CBtc-16" value="V" style="edgeStyle=orthogonalEdgeStyle;rounded=0;orthogonalLoop=1;jettySize=auto;html=1;exitX=0.25;exitY=0;exitDx=0;exitDy=0;entryX=0.25;entryY=1;entryDx=0;entryDy=0;" edge="1" parent="m39vFG9uocM71Nc5CBtc-14" source="m39vFG9uocM71Nc5CBtc-18" target="m39vFG9uocM71Nc5CBtc-15">
          <mxGeometry relative="1" as="geometry" />
        </mxCell>
        <mxCell id="m39vFG9uocM71Nc5CBtc-17" value="T" style="edgeStyle=orthogonalEdgeStyle;rounded=0;orthogonalLoop=1;jettySize=auto;html=1;exitX=0.5;exitY=0;exitDx=0;exitDy=0;" edge="1" parent="m39vFG9uocM71Nc5CBtc-14" source="m39vFG9uocM71Nc5CBtc-18" target="m39vFG9uocM71Nc5CBtc-15">
          <mxGeometry relative="1" as="geometry" />
        </mxCell>
        <mxCell id="m39vFG9uocM71Nc5CBtc-18" value="" style="rounded=1;whiteSpace=wrap;html=1;fillColor=#dae8fc;strokeColor=#6c8ebf;" vertex="1" parent="m39vFG9uocM71Nc5CBtc-14">
          <mxGeometry y="170" width="200" height="240" as="geometry" />
        </mxCell>
        <mxCell id="m39vFG9uocM71Nc5CBtc-19" value="SPI" style="rounded=1;whiteSpace=wrap;html=1;direction=south;fillColor=#0050ef;strokeColor=#001DBC;fontColor=#ffffff;" vertex="1" parent="m39vFG9uocM71Nc5CBtc-14">
          <mxGeometry x="155" y="-10" width="20" height="50" as="geometry" />
        </mxCell>
        <mxCell id="m39vFG9uocM71Nc5CBtc-20" value="" style="pointerEvents=1;verticalLabelPosition=bottom;shadow=0;dashed=0;align=center;html=1;verticalAlign=top;shape=mxgraph.electrical.miscellaneous.batteryStack;direction=north;" vertex="1" parent="m39vFG9uocM71Nc5CBtc-14">
          <mxGeometry x="82.5" y="220" width="35" height="165" as="geometry" />
        </mxCell>
        <mxCell id="m39vFG9uocM71Nc5CBtc-21" value="-" style="rounded=1;whiteSpace=wrap;html=1;strokeColor=#666666;fontColor=#333333;fillColor=#f5f5f5;" vertex="1" parent="m39vFG9uocM71Nc5CBtc-13">
          <mxGeometry y="370" width="50" height="20" as="geometry" />
        </mxCell>
        <mxCell id="m39vFG9uocM71Nc5CBtc-22" value="+" style="rounded=1;whiteSpace=wrap;html=1;fillColor=#f5f5f5;strokeColor=#666666;fontColor=#333333;" vertex="1" parent="m39vFG9uocM71Nc5CBtc-13">
          <mxGeometry x="200" y="370" width="50" height="20" as="geometry" />
        </mxCell>
        <mxCell id="m39vFG9uocM71Nc5CBtc-23" value="&lt;font style=&quot;font-size: 48px&quot;&gt;............&lt;/font&gt;" style="text;html=1;strokeColor=none;fillColor=none;align=center;verticalAlign=middle;whiteSpace=wrap;rounded=0;" vertex="1" parent="tb_iwrgmpNeFT452qtZq-1">
          <mxGeometry x="584.8" y="350" width="290" height="20" as="geometry" />
        </mxCell>
        <mxCell id="m39vFG9uocM71Nc5CBtc-24" value="" style="group;fillColor=#fff2cc;strokeColor=#d6b656;" vertex="1" connectable="0" parent="tb_iwrgmpNeFT452qtZq-1">
          <mxGeometry x="834.8" y="161" width="250" height="440" as="geometry" />
        </mxCell>
        <mxCell id="m39vFG9uocM71Nc5CBtc-25" value="" style="rounded=0;whiteSpace=wrap;html=1;fillColor=#f5f5f5;strokeColor=#666666;fontColor=#333333;" vertex="1" parent="m39vFG9uocM71Nc5CBtc-24">
          <mxGeometry width="250" height="440" as="geometry" />
        </mxCell>
        <mxCell id="m39vFG9uocM71Nc5CBtc-26" value="" style="group" vertex="1" connectable="0" parent="m39vFG9uocM71Nc5CBtc-24">
          <mxGeometry x="30" y="10" width="220" height="410" as="geometry" />
        </mxCell>
        <mxCell id="m39vFG9uocM71Nc5CBtc-27" value="&lt;b&gt;&lt;font style=&quot;font-size: 24px&quot;&gt;MCU&lt;/font&gt;&lt;/b&gt;" style="rounded=1;whiteSpace=wrap;html=1;fillColor=#e1d5e7;strokeColor=#9673a6;" vertex="1" parent="m39vFG9uocM71Nc5CBtc-26">
          <mxGeometry width="200" height="100" as="geometry" />
        </mxCell>
        <mxCell id="m39vFG9uocM71Nc5CBtc-28" value="V" style="edgeStyle=orthogonalEdgeStyle;rounded=0;orthogonalLoop=1;jettySize=auto;html=1;exitX=0.25;exitY=0;exitDx=0;exitDy=0;entryX=0.25;entryY=1;entryDx=0;entryDy=0;" edge="1" parent="m39vFG9uocM71Nc5CBtc-26" source="m39vFG9uocM71Nc5CBtc-30" target="m39vFG9uocM71Nc5CBtc-27">
          <mxGeometry relative="1" as="geometry" />
        </mxCell>
        <mxCell id="m39vFG9uocM71Nc5CBtc-29" value="T" style="edgeStyle=orthogonalEdgeStyle;rounded=0;orthogonalLoop=1;jettySize=auto;html=1;exitX=0.5;exitY=0;exitDx=0;exitDy=0;" edge="1" parent="m39vFG9uocM71Nc5CBtc-26" source="m39vFG9uocM71Nc5CBtc-30" target="m39vFG9uocM71Nc5CBtc-27">
          <mxGeometry relative="1" as="geometry" />
        </mxCell>
        <mxCell id="m39vFG9uocM71Nc5CBtc-30" value="" style="rounded=1;whiteSpace=wrap;html=1;fillColor=#dae8fc;strokeColor=#6c8ebf;" vertex="1" parent="m39vFG9uocM71Nc5CBtc-26">
          <mxGeometry y="170" width="200" height="240" as="geometry" />
        </mxCell>
        <mxCell id="m39vFG9uocM71Nc5CBtc-31" value="SPI" style="rounded=1;whiteSpace=wrap;html=1;direction=south;fillColor=#0050ef;strokeColor=#001DBC;fontColor=#ffffff;" vertex="1" parent="m39vFG9uocM71Nc5CBtc-26">
          <mxGeometry x="155" y="-10" width="20" height="50" as="geometry" />
        </mxCell>
        <mxCell id="m39vFG9uocM71Nc5CBtc-32" value="" style="pointerEvents=1;verticalLabelPosition=bottom;shadow=0;dashed=0;align=center;html=1;verticalAlign=top;shape=mxgraph.electrical.miscellaneous.batteryStack;direction=north;" vertex="1" parent="m39vFG9uocM71Nc5CBtc-26">
          <mxGeometry x="82.5" y="220" width="35" height="165" as="geometry" />
        </mxCell>
        <mxCell id="m39vFG9uocM71Nc5CBtc-33" value="-" style="rounded=1;whiteSpace=wrap;html=1;fillColor=#f5f5f5;strokeColor=#666666;fontColor=#333333;" vertex="1" parent="m39vFG9uocM71Nc5CBtc-24">
          <mxGeometry y="370" width="50" height="20" as="geometry" />
        </mxCell>
        <mxCell id="m39vFG9uocM71Nc5CBtc-34" value="+" style="rounded=1;whiteSpace=wrap;html=1;fillColor=#f5f5f5;strokeColor=#666666;fontColor=#333333;" vertex="1" parent="m39vFG9uocM71Nc5CBtc-24">
          <mxGeometry x="200" y="370" width="50" height="20" as="geometry" />
        </mxCell>
        <mxCell id="m39vFG9uocM71Nc5CBtc-35" style="edgeStyle=orthogonalEdgeStyle;rounded=0;orthogonalLoop=1;jettySize=auto;html=1;exitX=1;exitY=0.5;exitDx=0;exitDy=0;entryX=0;entryY=0.5;entryDx=0;entryDy=0;endArrow=none;endFill=0;strokeWidth=19;strokeColor=#FF9933;" edge="1" parent="tb_iwrgmpNeFT452qtZq-1" source="m39vFG9uocM71Nc5CBtc-12" target="m39vFG9uocM71Nc5CBtc-21">
          <mxGeometry relative="1" as="geometry">
            <Array as="points">
              <mxPoint x="364.8" y="540" />
              <mxPoint x="364.8" y="540" />
            </Array>
          </mxGeometry>
        </mxCell>
        <mxCell id="m39vFG9uocM71Nc5CBtc-36" style="edgeStyle=orthogonalEdgeStyle;rounded=0;orthogonalLoop=1;jettySize=auto;html=1;exitX=1;exitY=0.5;exitDx=0;exitDy=0;entryX=0;entryY=0.5;entryDx=0;entryDy=0;endArrow=none;endFill=0;strokeWidth=19;strokeColor=#FF9933;" edge="1" parent="tb_iwrgmpNeFT452qtZq-1" source="m39vFG9uocM71Nc5CBtc-22" target="m39vFG9uocM71Nc5CBtc-33">
          <mxGeometry relative="1" as="geometry" />
        </mxCell>
        <mxCell id="m39vFG9uocM71Nc5CBtc-37" style="edgeStyle=orthogonalEdgeStyle;rounded=0;orthogonalLoop=1;jettySize=auto;html=1;exitX=0;exitY=0.5;exitDx=0;exitDy=0;endArrow=none;endFill=0;strokeWidth=19;strokeColor=#FF9933;" edge="1" parent="tb_iwrgmpNeFT452qtZq-1" target="m39vFG9uocM71Nc5CBtc-40">
          <mxGeometry relative="1" as="geometry">
            <mxPoint x="1380.7999999999997" y="621.5" as="sourcePoint" />
          </mxGeometry>
        </mxCell>
        <mxCell id="m39vFG9uocM71Nc5CBtc-38" value="" style="pointerEvents=1;verticalLabelPosition=bottom;shadow=0;dashed=0;align=center;html=1;verticalAlign=top;shape=mxgraph.electrical.electro-mechanical.isolator;fillColor=none;" vertex="1" parent="tb_iwrgmpNeFT452qtZq-1">
          <mxGeometry x="1450" y="606" width="55" height="20" as="geometry" />
        </mxCell>
        <mxCell id="m39vFG9uocM71Nc5CBtc-39" style="edgeStyle=orthogonalEdgeStyle;rounded=0;orthogonalLoop=1;jettySize=auto;html=1;exitX=0.5;exitY=0;exitDx=0;exitDy=0;entryX=0.5;entryY=1;entryDx=0;entryDy=0;endArrow=none;endFill=0;strokeColor=#56517e;strokeWidth=2;fillColor=#d0cee2;jumpStyle=gap;jumpSize=35;" edge="1" parent="tb_iwrgmpNeFT452qtZq-1" source="m39vFG9uocM71Nc5CBtc-40" target="m39vFG9uocM71Nc5CBtc-63">
          <mxGeometry relative="1" as="geometry">
            <Array as="points">
              <mxPoint x="1325" y="570" />
              <mxPoint x="1265" y="570" />
            </Array>
          </mxGeometry>
        </mxCell>
        <mxCell id="m39vFG9uocM71Nc5CBtc-40" value="" style="ellipse;whiteSpace=wrap;html=1;fillColor=#d0cee2;strokeColor=#56517e;" vertex="1" parent="tb_iwrgmpNeFT452qtZq-1">
          <mxGeometry x="1314.8" y="586" width="20" height="69" as="geometry" />
        </mxCell>
        <mxCell id="m39vFG9uocM71Nc5CBtc-41" style="edgeStyle=orthogonalEdgeStyle;rounded=0;orthogonalLoop=1;jettySize=auto;html=1;exitX=0;exitY=0.5;exitDx=0;exitDy=0;endArrow=none;endFill=0;strokeWidth=19;entryX=0;entryY=0.5;entryDx=0;entryDy=0;strokeColor=#FF9933;" edge="1" parent="tb_iwrgmpNeFT452qtZq-1" target="m39vFG9uocM71Nc5CBtc-40">
          <mxGeometry relative="1" as="geometry">
            <mxPoint x="1204.8000000000002" y="618.5" as="targetPoint" />
            <Array as="points">
              <mxPoint x="90" y="540" />
              <mxPoint x="90" y="620" />
              <mxPoint x="1160" y="620" />
            </Array>
            <mxPoint x="1217.3000000000002" y="620.5" as="sourcePoint" />
          </mxGeometry>
        </mxCell>
        <mxCell id="m39vFG9uocM71Nc5CBtc-42" style="edgeStyle=orthogonalEdgeStyle;rounded=0;orthogonalLoop=1;jettySize=auto;html=1;exitX=1;exitY=0.8;exitDx=0;exitDy=0;exitPerimeter=0;entryX=1;entryY=0.5;entryDx=0;entryDy=0;endArrow=none;endFill=0;strokeColor=#FF9933;strokeWidth=19;" edge="1" parent="tb_iwrgmpNeFT452qtZq-1" source="m39vFG9uocM71Nc5CBtc-44" target="m39vFG9uocM71Nc5CBtc-61">
          <mxGeometry relative="1" as="geometry" />
        </mxCell>
        <mxCell id="m39vFG9uocM71Nc5CBtc-43" style="edgeStyle=orthogonalEdgeStyle;rounded=0;orthogonalLoop=1;jettySize=auto;html=1;exitX=0;exitY=0.8;exitDx=0;exitDy=0;exitPerimeter=0;entryX=1;entryY=0.5;entryDx=0;entryDy=0;entryPerimeter=0;endArrow=none;endFill=0;strokeColor=#FF9933;strokeWidth=19;" edge="1" parent="tb_iwrgmpNeFT452qtZq-1" source="m39vFG9uocM71Nc5CBtc-44" target="m39vFG9uocM71Nc5CBtc-80">
          <mxGeometry relative="1" as="geometry">
            <Array as="points">
              <mxPoint x="1300" y="447" />
              <mxPoint x="1300" y="542" />
            </Array>
          </mxGeometry>
        </mxCell>
        <mxCell id="m39vFG9uocM71Nc5CBtc-44" value="" style="pointerEvents=1;verticalLabelPosition=bottom;shadow=0;dashed=0;align=center;html=1;verticalAlign=top;shape=mxgraph.electrical.electro-mechanical.isolator;fillColor=none;" vertex="1" parent="tb_iwrgmpNeFT452qtZq-1">
          <mxGeometry x="1512" y="431" width="55" height="20" as="geometry" />
        </mxCell>
        <mxCell id="m39vFG9uocM71Nc5CBtc-45" style="edgeStyle=orthogonalEdgeStyle;rounded=0;orthogonalLoop=1;jettySize=auto;html=1;exitX=0;exitY=0.8;exitDx=0;exitDy=0;exitPerimeter=0;entryX=1;entryY=0.5;entryDx=0;entryDy=0;entryPerimeter=0;endArrow=none;endFill=0;strokeWidth=19;strokeColor=#FF9933;" edge="1" parent="tb_iwrgmpNeFT452qtZq-1" source="m39vFG9uocM71Nc5CBtc-47" target="m39vFG9uocM71Nc5CBtc-48">
          <mxGeometry relative="1" as="geometry" />
        </mxCell>
        <mxCell id="m39vFG9uocM71Nc5CBtc-46" style="edgeStyle=orthogonalEdgeStyle;rounded=0;orthogonalLoop=1;jettySize=auto;html=1;exitX=1;exitY=0.8;exitDx=0;exitDy=0;exitPerimeter=0;entryX=1;entryY=0.5;entryDx=0;entryDy=0;endArrow=none;endFill=0;strokeColor=#FF9933;strokeWidth=19;" edge="1" parent="tb_iwrgmpNeFT452qtZq-1" source="m39vFG9uocM71Nc5CBtc-47" target="m39vFG9uocM71Nc5CBtc-61">
          <mxGeometry relative="1" as="geometry">
            <Array as="points">
              <mxPoint x="1640" y="499" />
              <mxPoint x="1640" y="510" />
            </Array>
          </mxGeometry>
        </mxCell>
        <mxCell id="m39vFG9uocM71Nc5CBtc-47" value="" style="pointerEvents=1;verticalLabelPosition=bottom;shadow=0;dashed=0;align=center;html=1;verticalAlign=top;shape=mxgraph.electrical.electro-mechanical.isolator;fillColor=none;" vertex="1" parent="tb_iwrgmpNeFT452qtZq-1">
          <mxGeometry x="1474.8" y="483" width="55" height="20" as="geometry" />
        </mxCell>
        <mxCell id="m39vFG9uocM71Nc5CBtc-48" value="" style="pointerEvents=1;verticalLabelPosition=bottom;shadow=0;dashed=0;align=center;html=1;verticalAlign=top;shape=mxgraph.electrical.resistors.resistor_2;fillColor=none;" vertex="1" parent="tb_iwrgmpNeFT452qtZq-1">
          <mxGeometry x="1370.8" y="488" width="50" height="20" as="geometry" />
        </mxCell>
        <mxCell id="m39vFG9uocM71Nc5CBtc-49" style="edgeStyle=orthogonalEdgeStyle;rounded=0;orthogonalLoop=1;jettySize=auto;html=1;exitX=0;exitY=0.75;exitDx=0;exitDy=0;entryX=0;entryY=0.25;entryDx=0;entryDy=0;endArrow=none;endFill=0;strokeWidth=3;strokeColor=#3333FF;" edge="1" parent="tb_iwrgmpNeFT452qtZq-1" source="m39vFG9uocM71Nc5CBtc-50" target="m39vFG9uocM71Nc5CBtc-31">
          <mxGeometry relative="1" as="geometry" />
        </mxCell>
        <mxCell id="m39vFG9uocM71Nc5CBtc-50" value="SPI" style="rounded=1;whiteSpace=wrap;html=1;direction=south;fillColor=#0050ef;strokeColor=#001DBC;fontColor=#ffffff;" vertex="1" parent="tb_iwrgmpNeFT452qtZq-1">
          <mxGeometry x="1264.8" y="160" width="20" height="50" as="geometry" />
        </mxCell>
        <mxCell id="m39vFG9uocM71Nc5CBtc-51" value="" style="rounded=1;whiteSpace=wrap;html=1;direction=south;fillColor=#000000;" vertex="1" parent="tb_iwrgmpNeFT452qtZq-1">
          <mxGeometry x="1217.3" y="160" width="20" height="50" as="geometry" />
        </mxCell>
        <mxCell id="m39vFG9uocM71Nc5CBtc-52" style="edgeStyle=orthogonalEdgeStyle;rounded=0;orthogonalLoop=1;jettySize=auto;html=1;exitX=0;exitY=0.75;exitDx=0;exitDy=0;entryX=0;entryY=0.25;entryDx=0;entryDy=0;endArrow=none;endFill=0;strokeColor=#3333FF;strokeWidth=3;" edge="1" parent="tb_iwrgmpNeFT452qtZq-1" source="m39vFG9uocM71Nc5CBtc-31" target="m39vFG9uocM71Nc5CBtc-19">
          <mxGeometry relative="1" as="geometry" />
        </mxCell>
        <mxCell id="m39vFG9uocM71Nc5CBtc-53" style="edgeStyle=orthogonalEdgeStyle;rounded=0;orthogonalLoop=1;jettySize=auto;html=1;exitX=0;exitY=0.75;exitDx=0;exitDy=0;entryX=0;entryY=0.25;entryDx=0;entryDy=0;endArrow=none;endFill=0;strokeColor=#3333FF;strokeWidth=3;" edge="1" parent="tb_iwrgmpNeFT452qtZq-1" source="m39vFG9uocM71Nc5CBtc-19" target="m39vFG9uocM71Nc5CBtc-9">
          <mxGeometry relative="1" as="geometry" />
        </mxCell>
        <mxCell id="m39vFG9uocM71Nc5CBtc-54" style="edgeStyle=orthogonalEdgeStyle;rounded=0;orthogonalLoop=1;jettySize=auto;html=1;exitX=0;exitY=0.75;exitDx=0;exitDy=0;entryX=0;entryY=0.25;entryDx=0;entryDy=0;endArrow=none;endFill=0;strokeWidth=3;strokeColor=#3333FF;" edge="1" parent="tb_iwrgmpNeFT452qtZq-1" source="m39vFG9uocM71Nc5CBtc-9" target="m39vFG9uocM71Nc5CBtc-50">
          <mxGeometry relative="1" as="geometry">
            <Array as="points">
              <mxPoint x="299.8" y="130" />
              <mxPoint x="1279.8" y="130" />
            </Array>
          </mxGeometry>
        </mxCell>
        <mxCell id="m39vFG9uocM71Nc5CBtc-55" value="Power" style="rounded=1;whiteSpace=wrap;html=1;direction=west;strokeColor=#314354;fontColor=#ffffff;fillColor=#000000;" vertex="1" parent="tb_iwrgmpNeFT452qtZq-1">
          <mxGeometry x="1704.8" y="110" width="50" height="20" as="geometry" />
        </mxCell>
        <mxCell id="m39vFG9uocM71Nc5CBtc-56" value="CAN" style="rounded=1;whiteSpace=wrap;html=1;direction=west;fillColor=#ffff88;strokeColor=#36393d;" vertex="1" parent="tb_iwrgmpNeFT452qtZq-1">
          <mxGeometry x="1704.8" y="141" width="50" height="20" as="geometry" />
        </mxCell>
        <mxCell id="m39vFG9uocM71Nc5CBtc-57" style="edgeStyle=orthogonalEdgeStyle;rounded=1;orthogonalLoop=1;jettySize=auto;html=1;exitX=0;exitY=0.5;exitDx=0;exitDy=0;entryX=1;entryY=0.5;entryDx=0;entryDy=0;endArrow=none;endFill=0;strokeColor=#000000;strokeWidth=3;jumpStyle=arc;" edge="1" parent="tb_iwrgmpNeFT452qtZq-1" source="m39vFG9uocM71Nc5CBtc-51" target="m39vFG9uocM71Nc5CBtc-55">
          <mxGeometry relative="1" as="geometry" />
        </mxCell>
        <mxCell id="m39vFG9uocM71Nc5CBtc-58" style="edgeStyle=orthogonalEdgeStyle;rounded=1;orthogonalLoop=1;jettySize=auto;html=1;exitX=0;exitY=0.5;exitDx=0;exitDy=0;entryX=1;entryY=0.5;entryDx=0;entryDy=0;endArrow=none;endFill=0;strokeWidth=3;strokeColor=#FFFF66;" edge="1" parent="tb_iwrgmpNeFT452qtZq-1" source="m39vFG9uocM71Nc5CBtc-59" target="m39vFG9uocM71Nc5CBtc-56">
          <mxGeometry relative="1" as="geometry">
            <Array as="points">
              <mxPoint x="1522.8" y="150" />
              <mxPoint x="1618.8" y="150" />
            </Array>
          </mxGeometry>
        </mxCell>
        <mxCell id="m39vFG9uocM71Nc5CBtc-59" value="CAN" style="rounded=1;whiteSpace=wrap;html=1;direction=south;fillColor=#ffff88;strokeColor=#36393d;" vertex="1" parent="tb_iwrgmpNeFT452qtZq-1">
          <mxGeometry x="1405" y="160" width="20" height="50" as="geometry" />
        </mxCell>
        <mxCell id="m39vFG9uocM71Nc5CBtc-60" style="edgeStyle=orthogonalEdgeStyle;rounded=0;orthogonalLoop=1;jettySize=auto;html=1;exitX=1;exitY=0.5;exitDx=0;exitDy=0;entryX=1;entryY=0.5;entryDx=0;entryDy=0;endArrow=none;endFill=0;strokeColor=#FF9933;strokeWidth=19;" edge="1" parent="tb_iwrgmpNeFT452qtZq-1" source="m39vFG9uocM71Nc5CBtc-85" target="m39vFG9uocM71Nc5CBtc-62">
          <mxGeometry relative="1" as="geometry">
            <mxPoint x="1754.8" y="435" as="targetPoint" />
            <Array as="points">
              <mxPoint x="1660" y="623" />
              <mxPoint x="1660" y="578" />
            </Array>
            <mxPoint x="1640" y="628" as="sourcePoint" />
          </mxGeometry>
        </mxCell>
        <mxCell id="m39vFG9uocM71Nc5CBtc-61" value="&lt;font style=&quot;font-size: 24px&quot;&gt;+&lt;/font&gt;" style="rounded=1;whiteSpace=wrap;html=1;direction=west;" vertex="1" parent="tb_iwrgmpNeFT452qtZq-1">
          <mxGeometry x="1704.8" y="500" width="50" height="20" as="geometry" />
        </mxCell>
        <mxCell id="m39vFG9uocM71Nc5CBtc-62" value="&lt;font style=&quot;font-size: 24px&quot;&gt;-&lt;/font&gt;" style="rounded=1;whiteSpace=wrap;html=1;direction=west;" vertex="1" parent="tb_iwrgmpNeFT452qtZq-1">
          <mxGeometry x="1704.8" y="567.5" width="50" height="20" as="geometry" />
        </mxCell>
        <mxCell id="m39vFG9uocM71Nc5CBtc-63" value="CURRENT SENSOR" style="rounded=1;whiteSpace=wrap;html=1;fillColor=#d0cee2;strokeColor=#56517e;" vertex="1" parent="tb_iwrgmpNeFT452qtZq-1">
          <mxGeometry x="1204.8" y="329" width="120" height="41" as="geometry" />
        </mxCell>
        <mxCell id="m39vFG9uocM71Nc5CBtc-64" style="edgeStyle=orthogonalEdgeStyle;rounded=0;orthogonalLoop=1;jettySize=auto;html=1;exitX=0;exitY=0.8;exitDx=0;exitDy=0;exitPerimeter=0;endArrow=none;endFill=0;strokeWidth=19;strokeColor=#FF9933;entryX=1;entryY=0.5;entryDx=0;entryDy=0;" edge="1" parent="tb_iwrgmpNeFT452qtZq-1" source="m39vFG9uocM71Nc5CBtc-38">
          <mxGeometry relative="1" as="geometry">
            <mxPoint x="1494.8000000000002" y="619" as="sourcePoint" />
            <mxPoint x="1410.7999999999997" y="621.5" as="targetPoint" />
            <Array as="points" />
          </mxGeometry>
        </mxCell>
        <mxCell id="m39vFG9uocM71Nc5CBtc-65" style="edgeStyle=orthogonalEdgeStyle;rounded=0;orthogonalLoop=1;jettySize=auto;html=1;exitX=1;exitY=0.8;exitDx=0;exitDy=0;exitPerimeter=0;entryX=0;entryY=0.5;entryDx=0;entryDy=0;endArrow=none;endFill=0;strokeColor=#FF9933;strokeWidth=19;" edge="1" parent="tb_iwrgmpNeFT452qtZq-1" source="m39vFG9uocM71Nc5CBtc-38" target="m39vFG9uocM71Nc5CBtc-85">
          <mxGeometry relative="1" as="geometry">
            <mxPoint x="1549.8000000000002" y="578" as="sourcePoint" />
            <mxPoint x="1610" y="619" as="targetPoint" />
            <Array as="points" />
          </mxGeometry>
        </mxCell>
        <mxCell id="m39vFG9uocM71Nc5CBtc-66" style="edgeStyle=orthogonalEdgeStyle;rounded=0;orthogonalLoop=1;jettySize=auto;html=1;exitX=0.75;exitY=1;exitDx=0;exitDy=0;endArrow=none;endFill=0;strokeWidth=2;dashed=1;" edge="1" parent="tb_iwrgmpNeFT452qtZq-1" source="m39vFG9uocM71Nc5CBtc-69" target="m39vFG9uocM71Nc5CBtc-44">
          <mxGeometry relative="1" as="geometry" />
        </mxCell>
        <mxCell id="m39vFG9uocM71Nc5CBtc-67" style="edgeStyle=orthogonalEdgeStyle;rounded=0;orthogonalLoop=1;jettySize=auto;html=1;exitX=0.5;exitY=1;exitDx=0;exitDy=0;entryX=0.565;entryY=-0.083;entryDx=0;entryDy=0;entryPerimeter=0;dashed=1;endArrow=none;endFill=0;strokeColor=#000000;strokeWidth=2;" edge="1" parent="tb_iwrgmpNeFT452qtZq-1" source="m39vFG9uocM71Nc5CBtc-69" target="m39vFG9uocM71Nc5CBtc-47">
          <mxGeometry relative="1" as="geometry">
            <Array as="points">
              <mxPoint x="1510" y="440" />
            </Array>
          </mxGeometry>
        </mxCell>
        <mxCell id="m39vFG9uocM71Nc5CBtc-68" style="edgeStyle=orthogonalEdgeStyle;rounded=0;orthogonalLoop=1;jettySize=auto;html=1;exitX=0.25;exitY=1;exitDx=0;exitDy=0;entryX=0.64;entryY=0.4;entryDx=0;entryDy=0;entryPerimeter=0;dashed=1;endArrow=none;endFill=0;strokeColor=#000000;strokeWidth=2;jumpStyle=gap;" edge="1" parent="tb_iwrgmpNeFT452qtZq-1" source="m39vFG9uocM71Nc5CBtc-69" target="m39vFG9uocM71Nc5CBtc-38">
          <mxGeometry relative="1" as="geometry">
            <Array as="points">
              <mxPoint x="1480" y="571" />
            </Array>
          </mxGeometry>
        </mxCell>
        <mxCell id="m39vFG9uocM71Nc5CBtc-69" value="CONTACTOR&lt;br&gt;CONTROL" style="rounded=1;whiteSpace=wrap;html=1;fillColor=#d5e8d4;strokeColor=#82b366;" vertex="1" parent="tb_iwrgmpNeFT452qtZq-1">
          <mxGeometry x="1450" y="329" width="120" height="41" as="geometry" />
        </mxCell>
        <mxCell id="m39vFG9uocM71Nc5CBtc-70" style="edgeStyle=orthogonalEdgeStyle;rounded=0;orthogonalLoop=1;jettySize=auto;html=1;exitX=0;exitY=0.5;exitDx=0;exitDy=0;entryX=1;entryY=0.5;entryDx=0;entryDy=0;endArrow=none;endFill=0;strokeWidth=3;strokeColor=#67AB9F;" edge="1" parent="tb_iwrgmpNeFT452qtZq-1" source="m39vFG9uocM71Nc5CBtc-71">
          <mxGeometry relative="1" as="geometry">
            <mxPoint x="1704.8000000000002" y="185" as="targetPoint" />
          </mxGeometry>
        </mxCell>
        <mxCell id="m39vFG9uocM71Nc5CBtc-71" value="PWM" style="rounded=1;whiteSpace=wrap;html=1;direction=west;fillColor=#67AB9F;strokeColor=#67AB9F;" vertex="1" parent="tb_iwrgmpNeFT452qtZq-1">
          <mxGeometry x="1529.8" y="175" width="50" height="20" as="geometry" />
        </mxCell>
        <mxCell id="m39vFG9uocM71Nc5CBtc-72" value="A/D IO" style="rounded=1;whiteSpace=wrap;html=1;direction=west;fillColor=#7EA6E0;" vertex="1" parent="tb_iwrgmpNeFT452qtZq-1">
          <mxGeometry x="1529.8" y="210" width="50" height="20" as="geometry" />
        </mxCell>
        <mxCell id="m39vFG9uocM71Nc5CBtc-73" style="edgeStyle=orthogonalEdgeStyle;rounded=0;orthogonalLoop=1;jettySize=auto;html=1;exitX=1;exitY=0.5;exitDx=0;exitDy=0;entryX=0;entryY=0.5;entryDx=0;entryDy=0;endArrow=none;endFill=0;strokeWidth=3;strokeColor=#7EA6E0;" edge="1" parent="tb_iwrgmpNeFT452qtZq-1" target="m39vFG9uocM71Nc5CBtc-72">
          <mxGeometry relative="1" as="geometry">
            <mxPoint x="1704.8000000000002" y="220" as="sourcePoint" />
          </mxGeometry>
        </mxCell>
        <mxCell id="m39vFG9uocM71Nc5CBtc-74" value="HV CON" style="rounded=1;whiteSpace=wrap;html=1;fillColor=none;" vertex="1" parent="tb_iwrgmpNeFT452qtZq-1">
          <mxGeometry x="1690" y="467" width="80" height="149" as="geometry" />
        </mxCell>
        <mxCell id="m39vFG9uocM71Nc5CBtc-75" style="edgeStyle=orthogonalEdgeStyle;rounded=0;orthogonalLoop=1;jettySize=auto;html=1;exitX=1;exitY=0.5;exitDx=0;exitDy=0;entryX=0;entryY=0.5;entryDx=0;entryDy=0;endArrow=none;endFill=0;strokeWidth=3;strokeColor=#66B2FF;jumpStyle=arc;jumpSize=30;" edge="1" parent="tb_iwrgmpNeFT452qtZq-1" source="m39vFG9uocM71Nc5CBtc-76" target="m39vFG9uocM71Nc5CBtc-92">
          <mxGeometry relative="1" as="geometry">
            <Array as="points">
              <mxPoint x="1660" y="542" />
              <mxPoint x="1660" y="255" />
            </Array>
          </mxGeometry>
        </mxCell>
        <mxCell id="m39vFG9uocM71Nc5CBtc-76" value="&lt;font style=&quot;font-size: 18px&quot;&gt;HVIL&lt;/font&gt;" style="rounded=1;whiteSpace=wrap;html=1;direction=west;fillColor=#66B2FF;strokeColor=#66B2FF;" vertex="1" parent="tb_iwrgmpNeFT452qtZq-1">
          <mxGeometry x="1704.8" y="531.5" width="50" height="20" as="geometry" />
        </mxCell>
        <mxCell id="m39vFG9uocM71Nc5CBtc-77" value="HV VOLTAGE&lt;br&gt;SENSE" style="rounded=1;whiteSpace=wrap;html=1;fillColor=#cdeb8b;strokeColor=#36393d;" vertex="1" parent="tb_iwrgmpNeFT452qtZq-1">
          <mxGeometry x="1204.8" y="245" width="115.2" height="65" as="geometry" />
        </mxCell>
        <mxCell id="m39vFG9uocM71Nc5CBtc-78" style="edgeStyle=orthogonalEdgeStyle;rounded=0;orthogonalLoop=1;jettySize=auto;html=1;exitX=0;exitY=0.5;exitDx=0;exitDy=0;exitPerimeter=0;entryX=1;entryY=0.5;entryDx=0;entryDy=0;endArrow=none;endFill=0;strokeColor=#FF9933;strokeWidth=19;" edge="1" parent="tb_iwrgmpNeFT452qtZq-1" source="m39vFG9uocM71Nc5CBtc-80">
          <mxGeometry relative="1" as="geometry">
            <mxPoint x="1142" y="541.5" as="targetPoint" />
          </mxGeometry>
        </mxCell>
        <mxCell id="m39vFG9uocM71Nc5CBtc-79" style="edgeStyle=orthogonalEdgeStyle;rounded=0;orthogonalLoop=1;jettySize=auto;html=1;exitX=1;exitY=0.5;exitDx=0;exitDy=0;exitPerimeter=0;entryX=0;entryY=0.5;entryDx=0;entryDy=0;entryPerimeter=0;endArrow=none;endFill=0;strokeColor=#FF9933;strokeWidth=19;jumpStyle=arc;jumpSize=30;" edge="1" parent="tb_iwrgmpNeFT452qtZq-1" source="m39vFG9uocM71Nc5CBtc-80" target="m39vFG9uocM71Nc5CBtc-48">
          <mxGeometry relative="1" as="geometry">
            <Array as="points">
              <mxPoint x="1300" y="542" />
              <mxPoint x="1300" y="498" />
            </Array>
          </mxGeometry>
        </mxCell>
        <mxCell id="m39vFG9uocM71Nc5CBtc-80" value="" style="pointerEvents=1;verticalLabelPosition=bottom;shadow=0;dashed=0;align=center;html=1;verticalAlign=top;shape=mxgraph.electrical.miscellaneous.fuse_4;fillColor=none;" vertex="1" parent="tb_iwrgmpNeFT452qtZq-1">
          <mxGeometry x="1209.3" y="530.5" width="45" height="22" as="geometry" />
        </mxCell>
        <mxCell id="m39vFG9uocM71Nc5CBtc-81" value="&lt;font style=&quot;font-size: 9px&quot;&gt;HV_Sense&lt;br&gt;&lt;/font&gt;V1+" style="ellipse;whiteSpace=wrap;html=1;aspect=fixed;fillColor=#cdeb8b;strokeColor=#36393d;" vertex="1" parent="tb_iwrgmpNeFT452qtZq-1">
          <mxGeometry x="1155" y="517.5" width="50" height="50" as="geometry" />
        </mxCell>
        <mxCell id="m39vFG9uocM71Nc5CBtc-82" value="&lt;font color=&quot;#ffffff&quot;&gt;Power&lt;/font&gt;" style="text;html=1;strokeColor=none;fillColor=none;align=center;verticalAlign=middle;whiteSpace=wrap;rounded=0;direction=east;rotation=-90;" vertex="1" parent="tb_iwrgmpNeFT452qtZq-1">
          <mxGeometry x="1207.3" y="175" width="40" height="20" as="geometry" />
        </mxCell>
        <mxCell id="m39vFG9uocM71Nc5CBtc-83" value="&lt;font style=&quot;font-size: 9px&quot;&gt;HV_Sense&lt;br&gt;&lt;/font&gt;V2+" style="ellipse;whiteSpace=wrap;html=1;aspect=fixed;fillColor=#cdeb8b;strokeColor=#36393d;" vertex="1" parent="tb_iwrgmpNeFT452qtZq-1">
          <mxGeometry x="1275.8" y="511" width="50" height="50" as="geometry" />
        </mxCell>
        <mxCell id="m39vFG9uocM71Nc5CBtc-84" value="&lt;font style=&quot;font-size: 9px&quot;&gt;HV_Sense&lt;br&gt;&lt;/font&gt;V3+" style="ellipse;whiteSpace=wrap;html=1;aspect=fixed;fillColor=#cdeb8b;strokeColor=#36393d;" vertex="1" parent="tb_iwrgmpNeFT452qtZq-1">
          <mxGeometry x="1609" y="477.5" width="50" height="50" as="geometry" />
        </mxCell>
        <mxCell id="m39vFG9uocM71Nc5CBtc-85" value="&lt;font style=&quot;font-size: 9px&quot;&gt;HV_Sense&lt;br&gt;&lt;/font&gt;V2-" style="ellipse;whiteSpace=wrap;html=1;aspect=fixed;fillColor=#cdeb8b;strokeColor=#36393d;" vertex="1" parent="tb_iwrgmpNeFT452qtZq-1">
          <mxGeometry x="1590" y="597.5" width="50" height="50" as="geometry" />
        </mxCell>
        <mxCell id="m39vFG9uocM71Nc5CBtc-86" value="&lt;font style=&quot;font-size: 9px&quot;&gt;HV_Sense&lt;br&gt;&lt;/font&gt;V1-" style="ellipse;whiteSpace=wrap;html=1;aspect=fixed;fillColor=#cdeb8b;strokeColor=#36393d;" vertex="1" parent="tb_iwrgmpNeFT452qtZq-1">
          <mxGeometry x="1370.8" y="595.5" width="50" height="50" as="geometry" />
        </mxCell>
        <mxCell id="m39vFG9uocM71Nc5CBtc-87" style="edgeStyle=orthogonalEdgeStyle;rounded=0;orthogonalLoop=1;jettySize=auto;html=1;exitX=0.5;exitY=1;exitDx=0;exitDy=0;entryX=0.458;entryY=-0.067;entryDx=0;entryDy=0;entryPerimeter=0;endArrow=none;endFill=0;strokeWidth=2;fillColor=#f8cecc;strokeColor=#F19C99;jumpStyle=arc;jumpSize=24;" edge="1" parent="tb_iwrgmpNeFT452qtZq-1" source="m39vFG9uocM71Nc5CBtc-89" target="m39vFG9uocM71Nc5CBtc-48">
          <mxGeometry relative="1" as="geometry" />
        </mxCell>
        <mxCell id="m39vFG9uocM71Nc5CBtc-88" style="edgeStyle=orthogonalEdgeStyle;rounded=0;orthogonalLoop=1;jettySize=auto;html=1;exitX=0.75;exitY=1;exitDx=0;exitDy=0;entryX=0;entryY=0.8;entryDx=0;entryDy=0;entryPerimeter=0;endArrow=none;endFill=0;strokeColor=#F19C99;strokeWidth=2;fillColor=#f8cecc;jumpStyle=arc;" edge="1" parent="tb_iwrgmpNeFT452qtZq-1" source="m39vFG9uocM71Nc5CBtc-89" target="m39vFG9uocM71Nc5CBtc-44">
          <mxGeometry relative="1" as="geometry">
            <Array as="points">
              <mxPoint x="1409" y="410" />
              <mxPoint x="1520" y="410" />
              <mxPoint x="1520" y="447" />
            </Array>
          </mxGeometry>
        </mxCell>
        <mxCell id="m39vFG9uocM71Nc5CBtc-89" value="TEMPERATURE&lt;br&gt;SENSE" style="rounded=1;whiteSpace=wrap;html=1;fillColor=#f8cecc;strokeColor=#b85450;" vertex="1" parent="tb_iwrgmpNeFT452qtZq-1">
          <mxGeometry x="1337.8" y="329" width="95.2" height="40" as="geometry" />
        </mxCell>
        <mxCell id="m39vFG9uocM71Nc5CBtc-90" value="ISOLATION&lt;br&gt;MONITOR" style="rounded=1;whiteSpace=wrap;html=1;strokeColor=#10739e;fillColor=#B1DDF0;" vertex="1" parent="tb_iwrgmpNeFT452qtZq-1">
          <mxGeometry x="1451" y="279" width="115.2" height="45" as="geometry" />
        </mxCell>
        <mxCell id="m39vFG9uocM71Nc5CBtc-91" style="edgeStyle=orthogonalEdgeStyle;rounded=0;orthogonalLoop=1;jettySize=auto;html=1;exitX=0;exitY=0.5;exitDx=0;exitDy=0;endArrow=none;endFill=0;strokeWidth=19;entryX=0;entryY=0.5;entryDx=0;entryDy=0;strokeColor=#FF9933;" edge="1" parent="tb_iwrgmpNeFT452qtZq-1" source="m39vFG9uocM71Nc5CBtc-95">
          <mxGeometry relative="1" as="geometry">
            <mxPoint x="1217.3000000000002" y="620.5" as="targetPoint" />
            <Array as="points">
              <mxPoint x="970" y="621" />
              <mxPoint x="970" y="621" />
            </Array>
            <mxPoint x="109.79999999999995" y="540" as="sourcePoint" />
          </mxGeometry>
        </mxCell>
        <mxCell id="m39vFG9uocM71Nc5CBtc-92" value="HVIL" style="rounded=1;whiteSpace=wrap;html=1;direction=west;fillColor=#66B2FF;strokeColor=#66B2FF;" vertex="1" parent="tb_iwrgmpNeFT452qtZq-1">
          <mxGeometry x="1529.8" y="245" width="50" height="20" as="geometry" />
        </mxCell>
        <mxCell id="m39vFG9uocM71Nc5CBtc-93" style="edgeStyle=orthogonalEdgeStyle;rounded=0;orthogonalLoop=1;jettySize=auto;html=1;exitX=0;exitY=0.5;exitDx=0;exitDy=0;entryX=1;entryY=0.5;entryDx=0;entryDy=0;endArrow=none;endFill=0;strokeColor=#FF9933;strokeWidth=19;" edge="1" parent="tb_iwrgmpNeFT452qtZq-1" source="m39vFG9uocM71Nc5CBtc-94" target="m39vFG9uocM71Nc5CBtc-34">
          <mxGeometry relative="1" as="geometry" />
        </mxCell>
        <mxCell id="m39vFG9uocM71Nc5CBtc-94" value="&lt;font style=&quot;font-size: 9px&quot;&gt;&lt;b&gt;ISO_MON&lt;br&gt;HV+&lt;/b&gt;&lt;/font&gt;" style="ellipse;whiteSpace=wrap;html=1;aspect=fixed;strokeColor=#36393d;fillColor=#B1DDF0;" vertex="1" parent="tb_iwrgmpNeFT452qtZq-1">
          <mxGeometry x="1100" y="516.5" width="50" height="50" as="geometry" />
        </mxCell>
        <mxCell id="m39vFG9uocM71Nc5CBtc-95" value="&lt;font style=&quot;font-size: 9px&quot;&gt;&lt;b&gt;ISO_MON&lt;br&gt;HV-&lt;/b&gt;&lt;/font&gt;" style="ellipse;whiteSpace=wrap;html=1;aspect=fixed;strokeColor=#36393d;fillColor=#B1DDF0;" vertex="1" parent="tb_iwrgmpNeFT452qtZq-1">
          <mxGeometry x="1100" y="595.5" width="50" height="50" as="geometry" />
        </mxCell>
        <mxCell id="m39vFG9uocM71Nc5CBtc-96" style="edgeStyle=orthogonalEdgeStyle;rounded=0;orthogonalLoop=1;jettySize=auto;html=1;exitX=0;exitY=0.5;exitDx=0;exitDy=0;endArrow=none;endFill=0;strokeWidth=19;entryX=0;entryY=0.5;entryDx=0;entryDy=0;strokeColor=#FF9933;" edge="1" parent="tb_iwrgmpNeFT452qtZq-1" source="m39vFG9uocM71Nc5CBtc-11" target="m39vFG9uocM71Nc5CBtc-95">
          <mxGeometry relative="1" as="geometry">
            <mxPoint x="1217.3000000000002" y="620.5" as="targetPoint" />
            <Array as="points" />
            <mxPoint x="109.79999999999995" y="540" as="sourcePoint" />
          </mxGeometry>
        </mxCell>
        <mxCell id="m39vFG9uocM71Nc5CBtc-97" value="&lt;font style=&quot;font-size: 9px&quot;&gt;&lt;b&gt;ISO_MON&lt;br&gt;GND&lt;br&gt;&lt;/b&gt;&lt;/font&gt;" style="ellipse;whiteSpace=wrap;html=1;aspect=fixed;strokeColor=#36393d;fillColor=#B1DDF0;" vertex="1" parent="tb_iwrgmpNeFT452qtZq-1">
          <mxGeometry x="1167.3" y="635" width="50" height="50" as="geometry" />
        </mxCell>
        <mxCell id="m39vFG9uocM71Nc5CBtc-98" value="PWM" style="rounded=1;whiteSpace=wrap;html=1;direction=west;fillColor=#67AB9F;strokeColor=#67AB9F;" vertex="1" parent="tb_iwrgmpNeFT452qtZq-1">
          <mxGeometry x="1705" y="175" width="50" height="20" as="geometry" />
        </mxCell>
        <mxCell id="m39vFG9uocM71Nc5CBtc-99" value="A/D IO" style="rounded=1;whiteSpace=wrap;html=1;direction=west;fillColor=#7EA6E0;" vertex="1" parent="tb_iwrgmpNeFT452qtZq-1">
          <mxGeometry x="1705" y="210" width="50" height="20" as="geometry" />
        </mxCell>
        <mxCell id="m39vFG9uocM71Nc5CBtc-100" value="&lt;font style=&quot;font-size: 17px&quot; color=&quot;#ffffff&quot;&gt;&lt;b&gt;SPI Cables shall be twisted&lt;/b&gt;&lt;/font&gt;" style="shape=note;size=15;align=left;spacingLeft=10;html=1;whiteSpace=wrap;rounded=0;strokeColor=#000000;fillColor=#3333FF;" vertex="1" parent="tb_iwrgmpNeFT452qtZq-1">
          <mxGeometry x="80" y="91" width="190" height="50" as="geometry" />
        </mxCell>
        <mxCell id="m39vFG9uocM71Nc5CBtc-101" value="" style="endArrow=classic;html=1;strokeWidth=2;entryX=1;entryY=0.38;entryDx=0;entryDy=0;entryPerimeter=0;strokeColor=#3333FF;" edge="1" parent="tb_iwrgmpNeFT452qtZq-1" target="m39vFG9uocM71Nc5CBtc-100">
          <mxGeometry width="50" height="50" relative="1" as="geometry">
            <mxPoint x="580" y="130" as="sourcePoint" />
            <mxPoint x="610" y="190" as="targetPoint" />
          </mxGeometry>
        </mxCell>
        <mxCell id="m39vFG9uocM71Nc5CBtc-102" value="" style="rounded=0;whiteSpace=wrap;html=1;fillColor=#f5f5f5;strokeColor=#666666;fontColor=#333333;" vertex="1" parent="tb_iwrgmpNeFT452qtZq-1">
          <mxGeometry x="60" y="880" width="1710" height="580" as="geometry" />
        </mxCell>
        <mxCell id="m39vFG9uocM71Nc5CBtc-103" value="" style="rounded=1;whiteSpace=wrap;html=1;fillColor=none;" vertex="1" parent="tb_iwrgmpNeFT452qtZq-1">
          <mxGeometry x="1690" y="891" width="80" height="149" as="geometry" />
        </mxCell>
        <mxCell id="m39vFG9uocM71Nc5CBtc-104" value="&lt;b&gt;&lt;font style=&quot;font-size: 24px&quot;&gt;BCU&lt;/font&gt;&lt;/b&gt;" style="rounded=1;whiteSpace=wrap;html=1;fillColor=#fff2cc;strokeColor=#d6b656;" vertex="1" parent="tb_iwrgmpNeFT452qtZq-1">
          <mxGeometry x="1164.8" y="961" width="435.2" height="209" as="geometry" />
        </mxCell>
        <mxCell id="m39vFG9uocM71Nc5CBtc-105" value="" style="group;fillColor=#f5f5f5;strokeColor=#666666;fontColor=#333333;" vertex="1" connectable="0" parent="tb_iwrgmpNeFT452qtZq-1">
          <mxGeometry x="109.8" y="960" width="250" height="440" as="geometry" />
        </mxCell>
        <mxCell id="m39vFG9uocM71Nc5CBtc-106" value="" style="group" vertex="1" connectable="0" parent="m39vFG9uocM71Nc5CBtc-105">
          <mxGeometry x="30" y="10" width="220" height="410" as="geometry" />
        </mxCell>
        <mxCell id="m39vFG9uocM71Nc5CBtc-107" value="&lt;font style=&quot;font-size: 24px&quot;&gt;&lt;b&gt;MCU&lt;/b&gt;&lt;/font&gt;" style="rounded=1;whiteSpace=wrap;html=1;fillColor=#e1d5e7;strokeColor=#9673a6;" vertex="1" parent="m39vFG9uocM71Nc5CBtc-106">
          <mxGeometry width="200" height="100" as="geometry" />
        </mxCell>
        <mxCell id="m39vFG9uocM71Nc5CBtc-108" value="V" style="edgeStyle=orthogonalEdgeStyle;rounded=0;orthogonalLoop=1;jettySize=auto;html=1;exitX=0.25;exitY=0;exitDx=0;exitDy=0;entryX=0.25;entryY=1;entryDx=0;entryDy=0;" edge="1" parent="m39vFG9uocM71Nc5CBtc-106" source="m39vFG9uocM71Nc5CBtc-110" target="m39vFG9uocM71Nc5CBtc-107">
          <mxGeometry relative="1" as="geometry" />
        </mxCell>
        <mxCell id="m39vFG9uocM71Nc5CBtc-109" value="T" style="edgeStyle=orthogonalEdgeStyle;rounded=0;orthogonalLoop=1;jettySize=auto;html=1;exitX=0.5;exitY=0;exitDx=0;exitDy=0;" edge="1" parent="m39vFG9uocM71Nc5CBtc-106" source="m39vFG9uocM71Nc5CBtc-110" target="m39vFG9uocM71Nc5CBtc-107">
          <mxGeometry relative="1" as="geometry" />
        </mxCell>
        <mxCell id="m39vFG9uocM71Nc5CBtc-110" value="" style="rounded=1;whiteSpace=wrap;html=1;fillColor=#dae8fc;strokeColor=#6c8ebf;" vertex="1" parent="m39vFG9uocM71Nc5CBtc-106">
          <mxGeometry y="170" width="200" height="240" as="geometry" />
        </mxCell>
        <mxCell id="m39vFG9uocM71Nc5CBtc-111" value="SPI" style="rounded=1;whiteSpace=wrap;html=1;direction=south;fillColor=#0050ef;strokeColor=#001DBC;fontColor=#ffffff;" vertex="1" parent="m39vFG9uocM71Nc5CBtc-106">
          <mxGeometry x="155" y="-10" width="20" height="50" as="geometry" />
        </mxCell>
        <mxCell id="m39vFG9uocM71Nc5CBtc-112" value="" style="pointerEvents=1;verticalLabelPosition=bottom;shadow=0;dashed=0;align=center;html=1;verticalAlign=top;shape=mxgraph.electrical.miscellaneous.batteryStack;direction=north;" vertex="1" parent="m39vFG9uocM71Nc5CBtc-106">
          <mxGeometry x="82.5" y="220" width="35" height="165" as="geometry" />
        </mxCell>
        <mxCell id="m39vFG9uocM71Nc5CBtc-113" value="-" style="rounded=1;whiteSpace=wrap;html=1;strokeColor=#666666;fontColor=#333333;fillColor=#f5f5f5;" vertex="1" parent="m39vFG9uocM71Nc5CBtc-105">
          <mxGeometry y="370" width="50" height="20" as="geometry" />
        </mxCell>
        <mxCell id="m39vFG9uocM71Nc5CBtc-114" value="+" style="rounded=1;whiteSpace=wrap;html=1;fillColor=#f5f5f5;strokeColor=#666666;fontColor=#333333;" vertex="1" parent="m39vFG9uocM71Nc5CBtc-105">
          <mxGeometry x="200" y="370" width="50" height="20" as="geometry" />
        </mxCell>
        <mxCell id="m39vFG9uocM71Nc5CBtc-115" value="" style="group;fillColor=#fff2cc;strokeColor=#d6b656;" vertex="1" connectable="0" parent="tb_iwrgmpNeFT452qtZq-1">
          <mxGeometry x="374.8" y="960" width="250" height="440" as="geometry" />
        </mxCell>
        <mxCell id="m39vFG9uocM71Nc5CBtc-116" value="" style="group" vertex="1" connectable="0" parent="m39vFG9uocM71Nc5CBtc-115">
          <mxGeometry x="30" y="10" width="220" height="410" as="geometry" />
        </mxCell>
        <mxCell id="m39vFG9uocM71Nc5CBtc-117" value="&lt;font style=&quot;font-size: 24px&quot;&gt;&lt;b&gt;MCU&lt;/b&gt;&lt;/font&gt;" style="rounded=1;whiteSpace=wrap;html=1;fillColor=#e1d5e7;strokeColor=#9673a6;" vertex="1" parent="m39vFG9uocM71Nc5CBtc-116">
          <mxGeometry width="200" height="100" as="geometry" />
        </mxCell>
        <mxCell id="m39vFG9uocM71Nc5CBtc-118" value="V" style="edgeStyle=orthogonalEdgeStyle;rounded=0;orthogonalLoop=1;jettySize=auto;html=1;exitX=0.25;exitY=0;exitDx=0;exitDy=0;entryX=0.25;entryY=1;entryDx=0;entryDy=0;" edge="1" parent="m39vFG9uocM71Nc5CBtc-116" source="m39vFG9uocM71Nc5CBtc-120" target="m39vFG9uocM71Nc5CBtc-117">
          <mxGeometry relative="1" as="geometry" />
        </mxCell>
        <mxCell id="m39vFG9uocM71Nc5CBtc-119" value="T" style="edgeStyle=orthogonalEdgeStyle;rounded=0;orthogonalLoop=1;jettySize=auto;html=1;exitX=0.5;exitY=0;exitDx=0;exitDy=0;" edge="1" parent="m39vFG9uocM71Nc5CBtc-116" source="m39vFG9uocM71Nc5CBtc-120" target="m39vFG9uocM71Nc5CBtc-117">
          <mxGeometry relative="1" as="geometry" />
        </mxCell>
        <mxCell id="m39vFG9uocM71Nc5CBtc-120" value="" style="rounded=1;whiteSpace=wrap;html=1;fillColor=#dae8fc;strokeColor=#6c8ebf;" vertex="1" parent="m39vFG9uocM71Nc5CBtc-116">
          <mxGeometry y="170" width="200" height="240" as="geometry" />
        </mxCell>
        <mxCell id="m39vFG9uocM71Nc5CBtc-121" value="SPI" style="rounded=1;whiteSpace=wrap;html=1;direction=south;fillColor=#0050ef;strokeColor=#001DBC;fontColor=#ffffff;" vertex="1" parent="m39vFG9uocM71Nc5CBtc-116">
          <mxGeometry x="155" y="-10" width="20" height="50" as="geometry" />
        </mxCell>
        <mxCell id="m39vFG9uocM71Nc5CBtc-122" value="" style="pointerEvents=1;verticalLabelPosition=bottom;shadow=0;dashed=0;align=center;html=1;verticalAlign=top;shape=mxgraph.electrical.miscellaneous.batteryStack;direction=north;" vertex="1" parent="m39vFG9uocM71Nc5CBtc-116">
          <mxGeometry x="82.5" y="220" width="35" height="165" as="geometry" />
        </mxCell>
        <mxCell id="m39vFG9uocM71Nc5CBtc-123" value="-" style="rounded=1;whiteSpace=wrap;html=1;strokeColor=#666666;fontColor=#333333;fillColor=#f5f5f5;" vertex="1" parent="m39vFG9uocM71Nc5CBtc-115">
          <mxGeometry y="370" width="50" height="20" as="geometry" />
        </mxCell>
        <mxCell id="m39vFG9uocM71Nc5CBtc-124" value="+" style="rounded=1;whiteSpace=wrap;html=1;fillColor=#f5f5f5;strokeColor=#666666;fontColor=#333333;" vertex="1" parent="m39vFG9uocM71Nc5CBtc-115">
          <mxGeometry x="200" y="370" width="50" height="20" as="geometry" />
        </mxCell>
        <mxCell id="m39vFG9uocM71Nc5CBtc-125" value="&lt;font style=&quot;font-size: 48px&quot;&gt;............&lt;/font&gt;" style="text;html=1;strokeColor=none;fillColor=none;align=center;verticalAlign=middle;whiteSpace=wrap;rounded=0;" vertex="1" parent="tb_iwrgmpNeFT452qtZq-1">
          <mxGeometry x="584.8" y="1150" width="290" height="20" as="geometry" />
        </mxCell>
        <mxCell id="m39vFG9uocM71Nc5CBtc-126" value="" style="group;fillColor=#fff2cc;strokeColor=#d6b656;" vertex="1" connectable="0" parent="tb_iwrgmpNeFT452qtZq-1">
          <mxGeometry x="834.8" y="961" width="250" height="440" as="geometry" />
        </mxCell>
        <mxCell id="m39vFG9uocM71Nc5CBtc-127" value="" style="rounded=0;whiteSpace=wrap;html=1;fillColor=#f5f5f5;strokeColor=#666666;fontColor=#333333;" vertex="1" parent="m39vFG9uocM71Nc5CBtc-126">
          <mxGeometry width="250" height="440" as="geometry" />
        </mxCell>
        <mxCell id="m39vFG9uocM71Nc5CBtc-128" value="" style="group" vertex="1" connectable="0" parent="m39vFG9uocM71Nc5CBtc-126">
          <mxGeometry x="30" y="10" width="220" height="410" as="geometry" />
        </mxCell>
        <mxCell id="m39vFG9uocM71Nc5CBtc-129" value="&lt;b&gt;&lt;font style=&quot;font-size: 24px&quot;&gt;MCU&lt;/font&gt;&lt;/b&gt;" style="rounded=1;whiteSpace=wrap;html=1;fillColor=#e1d5e7;strokeColor=#9673a6;" vertex="1" parent="m39vFG9uocM71Nc5CBtc-128">
          <mxGeometry width="200" height="100" as="geometry" />
        </mxCell>
        <mxCell id="m39vFG9uocM71Nc5CBtc-130" value="V" style="edgeStyle=orthogonalEdgeStyle;rounded=0;orthogonalLoop=1;jettySize=auto;html=1;exitX=0.25;exitY=0;exitDx=0;exitDy=0;entryX=0.25;entryY=1;entryDx=0;entryDy=0;" edge="1" parent="m39vFG9uocM71Nc5CBtc-128" source="m39vFG9uocM71Nc5CBtc-132" target="m39vFG9uocM71Nc5CBtc-129">
          <mxGeometry relative="1" as="geometry" />
        </mxCell>
        <mxCell id="m39vFG9uocM71Nc5CBtc-131" value="T" style="edgeStyle=orthogonalEdgeStyle;rounded=0;orthogonalLoop=1;jettySize=auto;html=1;exitX=0.5;exitY=0;exitDx=0;exitDy=0;" edge="1" parent="m39vFG9uocM71Nc5CBtc-128" source="m39vFG9uocM71Nc5CBtc-132" target="m39vFG9uocM71Nc5CBtc-129">
          <mxGeometry relative="1" as="geometry" />
        </mxCell>
        <mxCell id="m39vFG9uocM71Nc5CBtc-132" value="" style="rounded=1;whiteSpace=wrap;html=1;fillColor=#dae8fc;strokeColor=#6c8ebf;" vertex="1" parent="m39vFG9uocM71Nc5CBtc-128">
          <mxGeometry y="170" width="200" height="240" as="geometry" />
        </mxCell>
        <mxCell id="m39vFG9uocM71Nc5CBtc-133" value="SPI" style="rounded=1;whiteSpace=wrap;html=1;direction=south;fillColor=#0050ef;strokeColor=#001DBC;fontColor=#ffffff;" vertex="1" parent="m39vFG9uocM71Nc5CBtc-128">
          <mxGeometry x="155" y="-10" width="20" height="50" as="geometry" />
        </mxCell>
        <mxCell id="m39vFG9uocM71Nc5CBtc-134" value="" style="pointerEvents=1;verticalLabelPosition=bottom;shadow=0;dashed=0;align=center;html=1;verticalAlign=top;shape=mxgraph.electrical.miscellaneous.batteryStack;direction=north;" vertex="1" parent="m39vFG9uocM71Nc5CBtc-128">
          <mxGeometry x="82.5" y="220" width="35" height="165" as="geometry" />
        </mxCell>
        <mxCell id="m39vFG9uocM71Nc5CBtc-135" value="-" style="rounded=1;whiteSpace=wrap;html=1;fillColor=#f5f5f5;strokeColor=#666666;fontColor=#333333;" vertex="1" parent="m39vFG9uocM71Nc5CBtc-126">
          <mxGeometry y="370" width="50" height="20" as="geometry" />
        </mxCell>
        <mxCell id="m39vFG9uocM71Nc5CBtc-136" value="+" style="rounded=1;whiteSpace=wrap;html=1;fillColor=#f5f5f5;strokeColor=#666666;fontColor=#333333;" vertex="1" parent="m39vFG9uocM71Nc5CBtc-126">
          <mxGeometry x="200" y="370" width="50" height="20" as="geometry" />
        </mxCell>
        <mxCell id="m39vFG9uocM71Nc5CBtc-137" style="edgeStyle=orthogonalEdgeStyle;rounded=0;orthogonalLoop=1;jettySize=auto;html=1;exitX=1;exitY=0.5;exitDx=0;exitDy=0;entryX=0;entryY=0.5;entryDx=0;entryDy=0;endArrow=none;endFill=0;strokeWidth=19;strokeColor=#FF9933;" edge="1" parent="tb_iwrgmpNeFT452qtZq-1" source="m39vFG9uocM71Nc5CBtc-114" target="m39vFG9uocM71Nc5CBtc-123">
          <mxGeometry relative="1" as="geometry">
            <Array as="points">
              <mxPoint x="364.8" y="1340" />
              <mxPoint x="364.8" y="1340" />
            </Array>
          </mxGeometry>
        </mxCell>
        <mxCell id="m39vFG9uocM71Nc5CBtc-138" style="edgeStyle=orthogonalEdgeStyle;rounded=0;orthogonalLoop=1;jettySize=auto;html=1;exitX=1;exitY=0.5;exitDx=0;exitDy=0;entryX=0;entryY=0.5;entryDx=0;entryDy=0;endArrow=none;endFill=0;strokeWidth=19;strokeColor=#FF9933;" edge="1" parent="tb_iwrgmpNeFT452qtZq-1" source="m39vFG9uocM71Nc5CBtc-124" target="m39vFG9uocM71Nc5CBtc-135">
          <mxGeometry relative="1" as="geometry" />
        </mxCell>
        <mxCell id="m39vFG9uocM71Nc5CBtc-139" style="edgeStyle=orthogonalEdgeStyle;rounded=0;orthogonalLoop=1;jettySize=auto;html=1;exitX=0;exitY=0.5;exitDx=0;exitDy=0;endArrow=none;endFill=0;strokeWidth=19;strokeColor=#FF9933;" edge="1" parent="tb_iwrgmpNeFT452qtZq-1" target="m39vFG9uocM71Nc5CBtc-142">
          <mxGeometry relative="1" as="geometry">
            <mxPoint x="1380.7999999999997" y="1421.5" as="sourcePoint" />
          </mxGeometry>
        </mxCell>
        <mxCell id="m39vFG9uocM71Nc5CBtc-140" value="" style="pointerEvents=1;verticalLabelPosition=bottom;shadow=0;dashed=0;align=center;html=1;verticalAlign=top;shape=mxgraph.electrical.electro-mechanical.isolator;fillColor=none;" vertex="1" parent="tb_iwrgmpNeFT452qtZq-1">
          <mxGeometry x="1450" y="1406" width="55" height="20" as="geometry" />
        </mxCell>
        <mxCell id="m39vFG9uocM71Nc5CBtc-141" style="edgeStyle=orthogonalEdgeStyle;rounded=0;orthogonalLoop=1;jettySize=auto;html=1;exitX=0.5;exitY=0;exitDx=0;exitDy=0;entryX=0.5;entryY=1;entryDx=0;entryDy=0;endArrow=none;endFill=0;strokeColor=#56517e;strokeWidth=2;fillColor=#d0cee2;jumpStyle=gap;jumpSize=35;" edge="1" parent="tb_iwrgmpNeFT452qtZq-1" source="m39vFG9uocM71Nc5CBtc-142" target="m39vFG9uocM71Nc5CBtc-165">
          <mxGeometry relative="1" as="geometry">
            <Array as="points">
              <mxPoint x="1325" y="1370" />
              <mxPoint x="1265" y="1370" />
            </Array>
          </mxGeometry>
        </mxCell>
        <mxCell id="m39vFG9uocM71Nc5CBtc-142" value="" style="ellipse;whiteSpace=wrap;html=1;fillColor=#d0cee2;strokeColor=#56517e;" vertex="1" parent="tb_iwrgmpNeFT452qtZq-1">
          <mxGeometry x="1314.8" y="1386" width="20" height="69" as="geometry" />
        </mxCell>
        <mxCell id="m39vFG9uocM71Nc5CBtc-143" style="edgeStyle=orthogonalEdgeStyle;rounded=0;orthogonalLoop=1;jettySize=auto;html=1;exitX=0;exitY=0.5;exitDx=0;exitDy=0;endArrow=none;endFill=0;strokeWidth=19;entryX=0;entryY=0.5;entryDx=0;entryDy=0;strokeColor=#FF9933;" edge="1" parent="tb_iwrgmpNeFT452qtZq-1" target="m39vFG9uocM71Nc5CBtc-142">
          <mxGeometry relative="1" as="geometry">
            <mxPoint x="1204.8000000000002" y="1418.5" as="targetPoint" />
            <Array as="points">
              <mxPoint x="90" y="1340" />
              <mxPoint x="90" y="1420" />
              <mxPoint x="1160" y="1420" />
            </Array>
            <mxPoint x="1217.3000000000002" y="1420.5" as="sourcePoint" />
          </mxGeometry>
        </mxCell>
        <mxCell id="m39vFG9uocM71Nc5CBtc-144" style="edgeStyle=orthogonalEdgeStyle;rounded=0;orthogonalLoop=1;jettySize=auto;html=1;exitX=1;exitY=0.8;exitDx=0;exitDy=0;exitPerimeter=0;entryX=1;entryY=0.5;entryDx=0;entryDy=0;endArrow=none;endFill=0;strokeColor=#FF9933;strokeWidth=19;" edge="1" parent="tb_iwrgmpNeFT452qtZq-1" source="m39vFG9uocM71Nc5CBtc-146" target="m39vFG9uocM71Nc5CBtc-163">
          <mxGeometry relative="1" as="geometry" />
        </mxCell>
        <mxCell id="m39vFG9uocM71Nc5CBtc-145" style="edgeStyle=orthogonalEdgeStyle;rounded=0;orthogonalLoop=1;jettySize=auto;html=1;exitX=0;exitY=0.8;exitDx=0;exitDy=0;exitPerimeter=0;entryX=1;entryY=0.5;entryDx=0;entryDy=0;entryPerimeter=0;endArrow=none;endFill=0;strokeColor=#FF9933;strokeWidth=19;" edge="1" parent="tb_iwrgmpNeFT452qtZq-1" source="m39vFG9uocM71Nc5CBtc-146" target="m39vFG9uocM71Nc5CBtc-182">
          <mxGeometry relative="1" as="geometry">
            <Array as="points">
              <mxPoint x="1300" y="1247" />
              <mxPoint x="1300" y="1342" />
            </Array>
          </mxGeometry>
        </mxCell>
        <mxCell id="m39vFG9uocM71Nc5CBtc-146" value="" style="pointerEvents=1;verticalLabelPosition=bottom;shadow=0;dashed=0;align=center;html=1;verticalAlign=top;shape=mxgraph.electrical.electro-mechanical.isolator;fillColor=none;" vertex="1" parent="tb_iwrgmpNeFT452qtZq-1">
          <mxGeometry x="1512" y="1231" width="55" height="20" as="geometry" />
        </mxCell>
        <mxCell id="m39vFG9uocM71Nc5CBtc-147" style="edgeStyle=orthogonalEdgeStyle;rounded=0;orthogonalLoop=1;jettySize=auto;html=1;exitX=0;exitY=0.8;exitDx=0;exitDy=0;exitPerimeter=0;entryX=1;entryY=0.5;entryDx=0;entryDy=0;entryPerimeter=0;endArrow=none;endFill=0;strokeWidth=19;strokeColor=#FF9933;" edge="1" parent="tb_iwrgmpNeFT452qtZq-1" source="m39vFG9uocM71Nc5CBtc-149" target="m39vFG9uocM71Nc5CBtc-150">
          <mxGeometry relative="1" as="geometry" />
        </mxCell>
        <mxCell id="m39vFG9uocM71Nc5CBtc-148" style="edgeStyle=orthogonalEdgeStyle;rounded=0;orthogonalLoop=1;jettySize=auto;html=1;exitX=1;exitY=0.8;exitDx=0;exitDy=0;exitPerimeter=0;entryX=1;entryY=0.5;entryDx=0;entryDy=0;endArrow=none;endFill=0;strokeColor=#FF9933;strokeWidth=19;" edge="1" parent="tb_iwrgmpNeFT452qtZq-1" source="m39vFG9uocM71Nc5CBtc-149" target="m39vFG9uocM71Nc5CBtc-163">
          <mxGeometry relative="1" as="geometry">
            <Array as="points">
              <mxPoint x="1640" y="1299" />
              <mxPoint x="1640" y="1310" />
            </Array>
          </mxGeometry>
        </mxCell>
        <mxCell id="m39vFG9uocM71Nc5CBtc-149" value="" style="pointerEvents=1;verticalLabelPosition=bottom;shadow=0;dashed=0;align=center;html=1;verticalAlign=top;shape=mxgraph.electrical.electro-mechanical.isolator;fillColor=none;" vertex="1" parent="tb_iwrgmpNeFT452qtZq-1">
          <mxGeometry x="1474.8" y="1283" width="55" height="20" as="geometry" />
        </mxCell>
        <mxCell id="m39vFG9uocM71Nc5CBtc-150" value="" style="pointerEvents=1;verticalLabelPosition=bottom;shadow=0;dashed=0;align=center;html=1;verticalAlign=top;shape=mxgraph.electrical.resistors.resistor_2;fillColor=none;" vertex="1" parent="tb_iwrgmpNeFT452qtZq-1">
          <mxGeometry x="1370.8" y="1288" width="50" height="20" as="geometry" />
        </mxCell>
        <mxCell id="m39vFG9uocM71Nc5CBtc-151" style="edgeStyle=orthogonalEdgeStyle;rounded=0;orthogonalLoop=1;jettySize=auto;html=1;exitX=0;exitY=0.75;exitDx=0;exitDy=0;entryX=0;entryY=0.25;entryDx=0;entryDy=0;endArrow=none;endFill=0;strokeWidth=3;strokeColor=#3333FF;" edge="1" parent="tb_iwrgmpNeFT452qtZq-1" source="m39vFG9uocM71Nc5CBtc-152" target="m39vFG9uocM71Nc5CBtc-133">
          <mxGeometry relative="1" as="geometry" />
        </mxCell>
        <mxCell id="m39vFG9uocM71Nc5CBtc-152" value="SPI" style="rounded=1;whiteSpace=wrap;html=1;direction=south;fillColor=#0050ef;strokeColor=#001DBC;fontColor=#ffffff;" vertex="1" parent="tb_iwrgmpNeFT452qtZq-1">
          <mxGeometry x="1264.8" y="960" width="20" height="50" as="geometry" />
        </mxCell>
        <mxCell id="m39vFG9uocM71Nc5CBtc-153" value="" style="rounded=1;whiteSpace=wrap;html=1;direction=south;fillColor=#000000;" vertex="1" parent="tb_iwrgmpNeFT452qtZq-1">
          <mxGeometry x="1217.3" y="960" width="20" height="50" as="geometry" />
        </mxCell>
        <mxCell id="m39vFG9uocM71Nc5CBtc-154" style="edgeStyle=orthogonalEdgeStyle;rounded=0;orthogonalLoop=1;jettySize=auto;html=1;exitX=0;exitY=0.75;exitDx=0;exitDy=0;entryX=0;entryY=0.25;entryDx=0;entryDy=0;endArrow=none;endFill=0;strokeColor=#3333FF;strokeWidth=3;" edge="1" parent="tb_iwrgmpNeFT452qtZq-1" source="m39vFG9uocM71Nc5CBtc-133" target="m39vFG9uocM71Nc5CBtc-121">
          <mxGeometry relative="1" as="geometry" />
        </mxCell>
        <mxCell id="m39vFG9uocM71Nc5CBtc-155" style="edgeStyle=orthogonalEdgeStyle;rounded=0;orthogonalLoop=1;jettySize=auto;html=1;exitX=0;exitY=0.75;exitDx=0;exitDy=0;entryX=0;entryY=0.25;entryDx=0;entryDy=0;endArrow=none;endFill=0;strokeColor=#3333FF;strokeWidth=3;" edge="1" parent="tb_iwrgmpNeFT452qtZq-1" source="m39vFG9uocM71Nc5CBtc-121" target="m39vFG9uocM71Nc5CBtc-111">
          <mxGeometry relative="1" as="geometry" />
        </mxCell>
        <mxCell id="m39vFG9uocM71Nc5CBtc-156" style="edgeStyle=orthogonalEdgeStyle;rounded=0;orthogonalLoop=1;jettySize=auto;html=1;exitX=0;exitY=0.75;exitDx=0;exitDy=0;entryX=0;entryY=0.25;entryDx=0;entryDy=0;endArrow=none;endFill=0;strokeWidth=3;strokeColor=#3333FF;" edge="1" parent="tb_iwrgmpNeFT452qtZq-1" source="m39vFG9uocM71Nc5CBtc-111" target="m39vFG9uocM71Nc5CBtc-152">
          <mxGeometry relative="1" as="geometry">
            <Array as="points">
              <mxPoint x="299.8" y="930" />
              <mxPoint x="1279.8" y="930" />
            </Array>
          </mxGeometry>
        </mxCell>
        <mxCell id="m39vFG9uocM71Nc5CBtc-157" value="Power" style="rounded=1;whiteSpace=wrap;html=1;direction=west;strokeColor=#314354;fontColor=#ffffff;fillColor=#000000;" vertex="1" parent="tb_iwrgmpNeFT452qtZq-1">
          <mxGeometry x="1704.8" y="910" width="50" height="20" as="geometry" />
        </mxCell>
        <mxCell id="m39vFG9uocM71Nc5CBtc-158" value="CAN" style="rounded=1;whiteSpace=wrap;html=1;direction=west;fillColor=#ffff88;strokeColor=#36393d;" vertex="1" parent="tb_iwrgmpNeFT452qtZq-1">
          <mxGeometry x="1704.8" y="941" width="50" height="20" as="geometry" />
        </mxCell>
        <mxCell id="m39vFG9uocM71Nc5CBtc-159" style="edgeStyle=orthogonalEdgeStyle;rounded=1;orthogonalLoop=1;jettySize=auto;html=1;exitX=0;exitY=0.5;exitDx=0;exitDy=0;entryX=1;entryY=0.5;entryDx=0;entryDy=0;endArrow=none;endFill=0;strokeColor=#000000;strokeWidth=3;jumpStyle=arc;" edge="1" parent="tb_iwrgmpNeFT452qtZq-1" source="m39vFG9uocM71Nc5CBtc-153" target="m39vFG9uocM71Nc5CBtc-157">
          <mxGeometry relative="1" as="geometry" />
        </mxCell>
        <mxCell id="m39vFG9uocM71Nc5CBtc-160" style="edgeStyle=orthogonalEdgeStyle;rounded=1;orthogonalLoop=1;jettySize=auto;html=1;exitX=0;exitY=0.5;exitDx=0;exitDy=0;entryX=1;entryY=0.5;entryDx=0;entryDy=0;endArrow=none;endFill=0;strokeWidth=3;strokeColor=#FFFF66;" edge="1" parent="tb_iwrgmpNeFT452qtZq-1" source="m39vFG9uocM71Nc5CBtc-161" target="m39vFG9uocM71Nc5CBtc-158">
          <mxGeometry relative="1" as="geometry">
            <Array as="points">
              <mxPoint x="1522.8" y="950" />
              <mxPoint x="1618.8" y="950" />
            </Array>
          </mxGeometry>
        </mxCell>
        <mxCell id="m39vFG9uocM71Nc5CBtc-161" value="CAN" style="rounded=1;whiteSpace=wrap;html=1;direction=south;fillColor=#ffff88;strokeColor=#36393d;" vertex="1" parent="tb_iwrgmpNeFT452qtZq-1">
          <mxGeometry x="1405" y="960" width="20" height="50" as="geometry" />
        </mxCell>
        <mxCell id="m39vFG9uocM71Nc5CBtc-162" style="edgeStyle=orthogonalEdgeStyle;rounded=0;orthogonalLoop=1;jettySize=auto;html=1;exitX=1;exitY=0.5;exitDx=0;exitDy=0;entryX=1;entryY=0.5;entryDx=0;entryDy=0;endArrow=none;endFill=0;strokeColor=#FF9933;strokeWidth=19;" edge="1" parent="tb_iwrgmpNeFT452qtZq-1" source="m39vFG9uocM71Nc5CBtc-187" target="m39vFG9uocM71Nc5CBtc-164">
          <mxGeometry relative="1" as="geometry">
            <mxPoint x="1754.8" y="1235" as="targetPoint" />
            <Array as="points">
              <mxPoint x="1660" y="1423" />
              <mxPoint x="1660" y="1378" />
            </Array>
            <mxPoint x="1640" y="1428" as="sourcePoint" />
          </mxGeometry>
        </mxCell>
        <mxCell id="m39vFG9uocM71Nc5CBtc-163" value="&lt;font style=&quot;font-size: 24px&quot;&gt;+&lt;/font&gt;" style="rounded=1;whiteSpace=wrap;html=1;direction=west;" vertex="1" parent="tb_iwrgmpNeFT452qtZq-1">
          <mxGeometry x="1704.8" y="1300" width="50" height="20" as="geometry" />
        </mxCell>
        <mxCell id="m39vFG9uocM71Nc5CBtc-164" value="&lt;font style=&quot;font-size: 24px&quot;&gt;-&lt;/font&gt;" style="rounded=1;whiteSpace=wrap;html=1;direction=west;" vertex="1" parent="tb_iwrgmpNeFT452qtZq-1">
          <mxGeometry x="1704.8" y="1367.5" width="50" height="20" as="geometry" />
        </mxCell>
        <mxCell id="m39vFG9uocM71Nc5CBtc-165" value="CURRENT SENSOR" style="rounded=1;whiteSpace=wrap;html=1;fillColor=#d0cee2;strokeColor=#56517e;" vertex="1" parent="tb_iwrgmpNeFT452qtZq-1">
          <mxGeometry x="1204.8" y="1129" width="120" height="41" as="geometry" />
        </mxCell>
        <mxCell id="m39vFG9uocM71Nc5CBtc-166" style="edgeStyle=orthogonalEdgeStyle;rounded=0;orthogonalLoop=1;jettySize=auto;html=1;exitX=0;exitY=0.8;exitDx=0;exitDy=0;exitPerimeter=0;endArrow=none;endFill=0;strokeWidth=19;strokeColor=#FF9933;entryX=1;entryY=0.5;entryDx=0;entryDy=0;" edge="1" parent="tb_iwrgmpNeFT452qtZq-1" source="m39vFG9uocM71Nc5CBtc-140">
          <mxGeometry relative="1" as="geometry">
            <mxPoint x="1494.8000000000002" y="1419" as="sourcePoint" />
            <mxPoint x="1410.7999999999997" y="1421.5" as="targetPoint" />
            <Array as="points" />
          </mxGeometry>
        </mxCell>
        <mxCell id="m39vFG9uocM71Nc5CBtc-167" style="edgeStyle=orthogonalEdgeStyle;rounded=0;orthogonalLoop=1;jettySize=auto;html=1;exitX=1;exitY=0.8;exitDx=0;exitDy=0;exitPerimeter=0;entryX=0;entryY=0.5;entryDx=0;entryDy=0;endArrow=none;endFill=0;strokeColor=#FF9933;strokeWidth=19;" edge="1" parent="tb_iwrgmpNeFT452qtZq-1" source="m39vFG9uocM71Nc5CBtc-140" target="m39vFG9uocM71Nc5CBtc-187">
          <mxGeometry relative="1" as="geometry">
            <mxPoint x="1549.8000000000002" y="1378" as="sourcePoint" />
            <mxPoint x="1610" y="1419" as="targetPoint" />
            <Array as="points" />
          </mxGeometry>
        </mxCell>
        <mxCell id="m39vFG9uocM71Nc5CBtc-168" style="edgeStyle=orthogonalEdgeStyle;rounded=0;orthogonalLoop=1;jettySize=auto;html=1;exitX=0.75;exitY=1;exitDx=0;exitDy=0;endArrow=none;endFill=0;strokeWidth=2;dashed=1;" edge="1" parent="tb_iwrgmpNeFT452qtZq-1" source="m39vFG9uocM71Nc5CBtc-171" target="m39vFG9uocM71Nc5CBtc-146">
          <mxGeometry relative="1" as="geometry" />
        </mxCell>
        <mxCell id="m39vFG9uocM71Nc5CBtc-169" style="edgeStyle=orthogonalEdgeStyle;rounded=0;orthogonalLoop=1;jettySize=auto;html=1;exitX=0.5;exitY=1;exitDx=0;exitDy=0;entryX=0.565;entryY=-0.083;entryDx=0;entryDy=0;entryPerimeter=0;dashed=1;endArrow=none;endFill=0;strokeColor=#000000;strokeWidth=2;" edge="1" parent="tb_iwrgmpNeFT452qtZq-1" source="m39vFG9uocM71Nc5CBtc-171" target="m39vFG9uocM71Nc5CBtc-149">
          <mxGeometry relative="1" as="geometry">
            <Array as="points">
              <mxPoint x="1510" y="1240" />
            </Array>
          </mxGeometry>
        </mxCell>
        <mxCell id="m39vFG9uocM71Nc5CBtc-170" style="edgeStyle=orthogonalEdgeStyle;rounded=0;orthogonalLoop=1;jettySize=auto;html=1;exitX=0.25;exitY=1;exitDx=0;exitDy=0;entryX=0.64;entryY=0.4;entryDx=0;entryDy=0;entryPerimeter=0;dashed=1;endArrow=none;endFill=0;strokeColor=#000000;strokeWidth=2;jumpStyle=gap;" edge="1" parent="tb_iwrgmpNeFT452qtZq-1" source="m39vFG9uocM71Nc5CBtc-171" target="m39vFG9uocM71Nc5CBtc-140">
          <mxGeometry relative="1" as="geometry">
            <Array as="points">
              <mxPoint x="1480" y="1371" />
            </Array>
          </mxGeometry>
        </mxCell>
        <mxCell id="m39vFG9uocM71Nc5CBtc-171" value="CONTACTOR&lt;br&gt;CONTROL" style="rounded=1;whiteSpace=wrap;html=1;fillColor=#d5e8d4;strokeColor=#82b366;" vertex="1" parent="tb_iwrgmpNeFT452qtZq-1">
          <mxGeometry x="1450" y="1129" width="120" height="41" as="geometry" />
        </mxCell>
        <mxCell id="m39vFG9uocM71Nc5CBtc-172" style="edgeStyle=orthogonalEdgeStyle;rounded=0;orthogonalLoop=1;jettySize=auto;html=1;exitX=0;exitY=0.5;exitDx=0;exitDy=0;entryX=1;entryY=0.5;entryDx=0;entryDy=0;endArrow=none;endFill=0;strokeWidth=3;strokeColor=#67AB9F;" edge="1" parent="tb_iwrgmpNeFT452qtZq-1" source="m39vFG9uocM71Nc5CBtc-173">
          <mxGeometry relative="1" as="geometry">
            <mxPoint x="1704.8000000000002" y="985" as="targetPoint" />
          </mxGeometry>
        </mxCell>
        <mxCell id="m39vFG9uocM71Nc5CBtc-173" value="PWM" style="rounded=1;whiteSpace=wrap;html=1;direction=west;fillColor=#67AB9F;strokeColor=#67AB9F;" vertex="1" parent="tb_iwrgmpNeFT452qtZq-1">
          <mxGeometry x="1529.8" y="975" width="50" height="20" as="geometry" />
        </mxCell>
        <mxCell id="m39vFG9uocM71Nc5CBtc-174" value="A/D IO" style="rounded=1;whiteSpace=wrap;html=1;direction=west;fillColor=#7EA6E0;" vertex="1" parent="tb_iwrgmpNeFT452qtZq-1">
          <mxGeometry x="1529.8" y="1010" width="50" height="20" as="geometry" />
        </mxCell>
        <mxCell id="m39vFG9uocM71Nc5CBtc-175" style="edgeStyle=orthogonalEdgeStyle;rounded=0;orthogonalLoop=1;jettySize=auto;html=1;exitX=1;exitY=0.5;exitDx=0;exitDy=0;entryX=0;entryY=0.5;entryDx=0;entryDy=0;endArrow=none;endFill=0;strokeWidth=3;strokeColor=#7EA6E0;" edge="1" parent="tb_iwrgmpNeFT452qtZq-1" target="m39vFG9uocM71Nc5CBtc-174">
          <mxGeometry relative="1" as="geometry">
            <mxPoint x="1704.8000000000002" y="1020" as="sourcePoint" />
          </mxGeometry>
        </mxCell>
        <mxCell id="m39vFG9uocM71Nc5CBtc-176" value="HV CON" style="rounded=1;whiteSpace=wrap;html=1;fillColor=none;" vertex="1" parent="tb_iwrgmpNeFT452qtZq-1">
          <mxGeometry x="1690" y="1267" width="80" height="149" as="geometry" />
        </mxCell>
        <mxCell id="m39vFG9uocM71Nc5CBtc-177" style="edgeStyle=orthogonalEdgeStyle;rounded=0;orthogonalLoop=1;jettySize=auto;html=1;exitX=1;exitY=0.5;exitDx=0;exitDy=0;entryX=0;entryY=0.5;entryDx=0;entryDy=0;endArrow=none;endFill=0;strokeWidth=3;strokeColor=#66B2FF;jumpStyle=arc;jumpSize=30;" edge="1" parent="tb_iwrgmpNeFT452qtZq-1" source="m39vFG9uocM71Nc5CBtc-178" target="m39vFG9uocM71Nc5CBtc-194">
          <mxGeometry relative="1" as="geometry">
            <Array as="points">
              <mxPoint x="1660" y="1342" />
              <mxPoint x="1660" y="1055" />
            </Array>
          </mxGeometry>
        </mxCell>
        <mxCell id="m39vFG9uocM71Nc5CBtc-178" value="&lt;font style=&quot;font-size: 18px&quot;&gt;HVIL&lt;/font&gt;" style="rounded=1;whiteSpace=wrap;html=1;direction=west;fillColor=#66B2FF;strokeColor=#66B2FF;" vertex="1" parent="tb_iwrgmpNeFT452qtZq-1">
          <mxGeometry x="1704.8" y="1331.5" width="50" height="20" as="geometry" />
        </mxCell>
        <mxCell id="m39vFG9uocM71Nc5CBtc-179" value="HV VOLTAGE&lt;br&gt;SENSE" style="rounded=1;whiteSpace=wrap;html=1;fillColor=#cdeb8b;strokeColor=#36393d;" vertex="1" parent="tb_iwrgmpNeFT452qtZq-1">
          <mxGeometry x="1204.8" y="1045" width="115.2" height="65" as="geometry" />
        </mxCell>
        <mxCell id="m39vFG9uocM71Nc5CBtc-180" style="edgeStyle=orthogonalEdgeStyle;rounded=0;orthogonalLoop=1;jettySize=auto;html=1;exitX=0;exitY=0.5;exitDx=0;exitDy=0;exitPerimeter=0;entryX=1;entryY=0.5;entryDx=0;entryDy=0;endArrow=none;endFill=0;strokeColor=#FF9933;strokeWidth=19;" edge="1" parent="tb_iwrgmpNeFT452qtZq-1" source="m39vFG9uocM71Nc5CBtc-182">
          <mxGeometry relative="1" as="geometry">
            <mxPoint x="1142" y="1341.5" as="targetPoint" />
          </mxGeometry>
        </mxCell>
        <mxCell id="m39vFG9uocM71Nc5CBtc-181" style="edgeStyle=orthogonalEdgeStyle;rounded=0;orthogonalLoop=1;jettySize=auto;html=1;exitX=1;exitY=0.5;exitDx=0;exitDy=0;exitPerimeter=0;entryX=0;entryY=0.5;entryDx=0;entryDy=0;entryPerimeter=0;endArrow=none;endFill=0;strokeColor=#FF9933;strokeWidth=19;jumpStyle=arc;jumpSize=30;" edge="1" parent="tb_iwrgmpNeFT452qtZq-1" source="m39vFG9uocM71Nc5CBtc-182" target="m39vFG9uocM71Nc5CBtc-150">
          <mxGeometry relative="1" as="geometry">
            <Array as="points">
              <mxPoint x="1300" y="1342" />
              <mxPoint x="1300" y="1298" />
            </Array>
          </mxGeometry>
        </mxCell>
        <mxCell id="m39vFG9uocM71Nc5CBtc-182" value="" style="pointerEvents=1;verticalLabelPosition=bottom;shadow=0;dashed=0;align=center;html=1;verticalAlign=top;shape=mxgraph.electrical.miscellaneous.fuse_4;fillColor=none;" vertex="1" parent="tb_iwrgmpNeFT452qtZq-1">
          <mxGeometry x="1209.3" y="1330.5" width="45" height="22" as="geometry" />
        </mxCell>
        <mxCell id="m39vFG9uocM71Nc5CBtc-183" value="&lt;font style=&quot;font-size: 9px&quot;&gt;HV_Sense&lt;br&gt;&lt;/font&gt;V1+" style="ellipse;whiteSpace=wrap;html=1;aspect=fixed;fillColor=#cdeb8b;strokeColor=#36393d;" vertex="1" parent="tb_iwrgmpNeFT452qtZq-1">
          <mxGeometry x="1155" y="1317.5" width="50" height="50" as="geometry" />
        </mxCell>
        <mxCell id="m39vFG9uocM71Nc5CBtc-184" value="&lt;font color=&quot;#ffffff&quot;&gt;Power&lt;/font&gt;" style="text;html=1;strokeColor=none;fillColor=none;align=center;verticalAlign=middle;whiteSpace=wrap;rounded=0;direction=east;rotation=-90;" vertex="1" parent="tb_iwrgmpNeFT452qtZq-1">
          <mxGeometry x="1207.3" y="975" width="40" height="20" as="geometry" />
        </mxCell>
        <mxCell id="m39vFG9uocM71Nc5CBtc-185" value="&lt;font style=&quot;font-size: 9px&quot;&gt;HV_Sense&lt;br&gt;&lt;/font&gt;V2+" style="ellipse;whiteSpace=wrap;html=1;aspect=fixed;fillColor=#cdeb8b;strokeColor=#36393d;" vertex="1" parent="tb_iwrgmpNeFT452qtZq-1">
          <mxGeometry x="1275.8" y="1311" width="50" height="50" as="geometry" />
        </mxCell>
        <mxCell id="m39vFG9uocM71Nc5CBtc-186" value="&lt;font style=&quot;font-size: 9px&quot;&gt;HV_Sense&lt;br&gt;&lt;/font&gt;V3+" style="ellipse;whiteSpace=wrap;html=1;aspect=fixed;fillColor=#cdeb8b;strokeColor=#36393d;" vertex="1" parent="tb_iwrgmpNeFT452qtZq-1">
          <mxGeometry x="1609" y="1277.5" width="50" height="50" as="geometry" />
        </mxCell>
        <mxCell id="m39vFG9uocM71Nc5CBtc-187" value="&lt;font style=&quot;font-size: 9px&quot;&gt;HV_Sense&lt;br&gt;&lt;/font&gt;V2-" style="ellipse;whiteSpace=wrap;html=1;aspect=fixed;fillColor=#cdeb8b;strokeColor=#36393d;" vertex="1" parent="tb_iwrgmpNeFT452qtZq-1">
          <mxGeometry x="1590" y="1397.5" width="50" height="50" as="geometry" />
        </mxCell>
        <mxCell id="m39vFG9uocM71Nc5CBtc-188" value="&lt;font style=&quot;font-size: 9px&quot;&gt;HV_Sense&lt;br&gt;&lt;/font&gt;V1-" style="ellipse;whiteSpace=wrap;html=1;aspect=fixed;fillColor=#cdeb8b;strokeColor=#36393d;" vertex="1" parent="tb_iwrgmpNeFT452qtZq-1">
          <mxGeometry x="1370.8" y="1395.5" width="50" height="50" as="geometry" />
        </mxCell>
        <mxCell id="m39vFG9uocM71Nc5CBtc-189" style="edgeStyle=orthogonalEdgeStyle;rounded=0;orthogonalLoop=1;jettySize=auto;html=1;exitX=0.5;exitY=1;exitDx=0;exitDy=0;entryX=0.458;entryY=-0.067;entryDx=0;entryDy=0;entryPerimeter=0;endArrow=none;endFill=0;strokeWidth=2;fillColor=#f8cecc;strokeColor=#F19C99;jumpStyle=arc;jumpSize=24;" edge="1" parent="tb_iwrgmpNeFT452qtZq-1" source="m39vFG9uocM71Nc5CBtc-191" target="m39vFG9uocM71Nc5CBtc-150">
          <mxGeometry relative="1" as="geometry" />
        </mxCell>
        <mxCell id="m39vFG9uocM71Nc5CBtc-190" style="edgeStyle=orthogonalEdgeStyle;rounded=0;orthogonalLoop=1;jettySize=auto;html=1;exitX=0.75;exitY=1;exitDx=0;exitDy=0;entryX=0;entryY=0.8;entryDx=0;entryDy=0;entryPerimeter=0;endArrow=none;endFill=0;strokeColor=#F19C99;strokeWidth=2;fillColor=#f8cecc;jumpStyle=arc;" edge="1" parent="tb_iwrgmpNeFT452qtZq-1" source="m39vFG9uocM71Nc5CBtc-191" target="m39vFG9uocM71Nc5CBtc-146">
          <mxGeometry relative="1" as="geometry">
            <Array as="points">
              <mxPoint x="1409" y="1210" />
              <mxPoint x="1520" y="1210" />
              <mxPoint x="1520" y="1247" />
            </Array>
          </mxGeometry>
        </mxCell>
        <mxCell id="m39vFG9uocM71Nc5CBtc-191" value="TEMPERATURE&lt;br&gt;SENSE" style="rounded=1;whiteSpace=wrap;html=1;fillColor=#f8cecc;strokeColor=#b85450;" vertex="1" parent="tb_iwrgmpNeFT452qtZq-1">
          <mxGeometry x="1337.8" y="1129" width="95.2" height="40" as="geometry" />
        </mxCell>
        <mxCell id="m39vFG9uocM71Nc5CBtc-192" value="ISOLATION&lt;br&gt;MONITOR" style="rounded=1;whiteSpace=wrap;html=1;strokeColor=#10739e;fillColor=#B1DDF0;" vertex="1" parent="tb_iwrgmpNeFT452qtZq-1">
          <mxGeometry x="1451" y="1079" width="115.2" height="45" as="geometry" />
        </mxCell>
        <mxCell id="m39vFG9uocM71Nc5CBtc-193" style="edgeStyle=orthogonalEdgeStyle;rounded=0;orthogonalLoop=1;jettySize=auto;html=1;exitX=0;exitY=0.5;exitDx=0;exitDy=0;endArrow=none;endFill=0;strokeWidth=19;entryX=0;entryY=0.5;entryDx=0;entryDy=0;strokeColor=#FF9933;" edge="1" parent="tb_iwrgmpNeFT452qtZq-1" source="m39vFG9uocM71Nc5CBtc-197">
          <mxGeometry relative="1" as="geometry">
            <mxPoint x="1217.3000000000002" y="1420.5" as="targetPoint" />
            <Array as="points">
              <mxPoint x="970" y="1421" />
              <mxPoint x="970" y="1421" />
            </Array>
            <mxPoint x="109.79999999999995" y="1340" as="sourcePoint" />
          </mxGeometry>
        </mxCell>
        <mxCell id="m39vFG9uocM71Nc5CBtc-194" value="HVIL" style="rounded=1;whiteSpace=wrap;html=1;direction=west;fillColor=#66B2FF;strokeColor=#66B2FF;" vertex="1" parent="tb_iwrgmpNeFT452qtZq-1">
          <mxGeometry x="1529.8" y="1045" width="50" height="20" as="geometry" />
        </mxCell>
        <mxCell id="m39vFG9uocM71Nc5CBtc-195" style="edgeStyle=orthogonalEdgeStyle;rounded=0;orthogonalLoop=1;jettySize=auto;html=1;exitX=0;exitY=0.5;exitDx=0;exitDy=0;entryX=1;entryY=0.5;entryDx=0;entryDy=0;endArrow=none;endFill=0;strokeColor=#FF9933;strokeWidth=19;" edge="1" parent="tb_iwrgmpNeFT452qtZq-1" source="m39vFG9uocM71Nc5CBtc-196" target="m39vFG9uocM71Nc5CBtc-136">
          <mxGeometry relative="1" as="geometry" />
        </mxCell>
        <mxCell id="m39vFG9uocM71Nc5CBtc-196" value="&lt;font style=&quot;font-size: 9px&quot;&gt;&lt;b&gt;ISO_MON&lt;br&gt;HV+&lt;/b&gt;&lt;/font&gt;" style="ellipse;whiteSpace=wrap;html=1;aspect=fixed;strokeColor=#36393d;fillColor=#B1DDF0;" vertex="1" parent="tb_iwrgmpNeFT452qtZq-1">
          <mxGeometry x="1100" y="1316.5" width="50" height="50" as="geometry" />
        </mxCell>
        <mxCell id="m39vFG9uocM71Nc5CBtc-197" value="&lt;font style=&quot;font-size: 9px&quot;&gt;&lt;b&gt;ISO_MON&lt;br&gt;HV-&lt;/b&gt;&lt;/font&gt;" style="ellipse;whiteSpace=wrap;html=1;aspect=fixed;strokeColor=#36393d;fillColor=#B1DDF0;" vertex="1" parent="tb_iwrgmpNeFT452qtZq-1">
          <mxGeometry x="1100" y="1395.5" width="50" height="50" as="geometry" />
        </mxCell>
        <mxCell id="m39vFG9uocM71Nc5CBtc-198" style="edgeStyle=orthogonalEdgeStyle;rounded=0;orthogonalLoop=1;jettySize=auto;html=1;exitX=0;exitY=0.5;exitDx=0;exitDy=0;endArrow=none;endFill=0;strokeWidth=19;entryX=0;entryY=0.5;entryDx=0;entryDy=0;strokeColor=#FF9933;" edge="1" parent="tb_iwrgmpNeFT452qtZq-1" source="m39vFG9uocM71Nc5CBtc-113" target="m39vFG9uocM71Nc5CBtc-197">
          <mxGeometry relative="1" as="geometry">
            <mxPoint x="1217.3000000000002" y="1420.5" as="targetPoint" />
            <Array as="points" />
            <mxPoint x="109.79999999999995" y="1340" as="sourcePoint" />
          </mxGeometry>
        </mxCell>
        <mxCell id="m39vFG9uocM71Nc5CBtc-199" value="&lt;font style=&quot;font-size: 9px&quot;&gt;&lt;b&gt;ISO_MON&lt;br&gt;GND&lt;br&gt;&lt;/b&gt;&lt;/font&gt;" style="ellipse;whiteSpace=wrap;html=1;aspect=fixed;strokeColor=#36393d;fillColor=#B1DDF0;" vertex="1" parent="tb_iwrgmpNeFT452qtZq-1">
          <mxGeometry x="1167.3" y="1435" width="50" height="50" as="geometry" />
        </mxCell>
        <mxCell id="m39vFG9uocM71Nc5CBtc-200" value="PWM" style="rounded=1;whiteSpace=wrap;html=1;direction=west;fillColor=#67AB9F;strokeColor=#67AB9F;" vertex="1" parent="tb_iwrgmpNeFT452qtZq-1">
          <mxGeometry x="1705" y="975" width="50" height="20" as="geometry" />
        </mxCell>
        <mxCell id="m39vFG9uocM71Nc5CBtc-201" value="A/D IO" style="rounded=1;whiteSpace=wrap;html=1;direction=west;fillColor=#7EA6E0;" vertex="1" parent="tb_iwrgmpNeFT452qtZq-1">
          <mxGeometry x="1705" y="1010" width="50" height="20" as="geometry" />
        </mxCell>
        <mxCell id="m39vFG9uocM71Nc5CBtc-202" value="&lt;font style=&quot;font-size: 17px&quot; color=&quot;#ffffff&quot;&gt;&lt;b&gt;SPI Cables shall be twisted&lt;/b&gt;&lt;/font&gt;" style="shape=note;size=15;align=left;spacingLeft=10;html=1;whiteSpace=wrap;rounded=0;strokeColor=#000000;fillColor=#3333FF;" vertex="1" parent="tb_iwrgmpNeFT452qtZq-1">
          <mxGeometry x="80" y="891" width="190" height="50" as="geometry" />
        </mxCell>
        <mxCell id="m39vFG9uocM71Nc5CBtc-203" value="" style="endArrow=classic;html=1;strokeWidth=2;entryX=1;entryY=0.38;entryDx=0;entryDy=0;entryPerimeter=0;strokeColor=#3333FF;" edge="1" parent="tb_iwrgmpNeFT452qtZq-1" target="m39vFG9uocM71Nc5CBtc-202">
          <mxGeometry width="50" height="50" relative="1" as="geometry">
            <mxPoint x="580" y="930" as="sourcePoint" />
            <mxPoint x="610" y="990" as="targetPoint" />
          </mxGeometry>
        </mxCell>
        <mxCell id="m39vFG9uocM71Nc5CBtc-204" value="PWM" style="rounded=1;whiteSpace=wrap;html=1;direction=west;fillColor=#67AB9F;strokeColor=#67AB9F;" vertex="1" parent="tb_iwrgmpNeFT452qtZq-1">
          <mxGeometry x="2170" y="175" width="50" height="20" as="geometry" />
        </mxCell>
        <mxCell id="m39vFG9uocM71Nc5CBtc-205" value="A/D IO" style="rounded=1;whiteSpace=wrap;html=1;direction=west;fillColor=#7EA6E0;" vertex="1" parent="tb_iwrgmpNeFT452qtZq-1">
          <mxGeometry x="2170" y="210" width="50" height="20" as="geometry" />
        </mxCell>
        <mxCell id="m39vFG9uocM71Nc5CBtc-206" value="CAN" style="rounded=1;whiteSpace=wrap;html=1;direction=west;fillColor=#ffff88;strokeColor=#36393d;" vertex="1" parent="tb_iwrgmpNeFT452qtZq-1">
          <mxGeometry x="1910" y="141" width="50" height="20" as="geometry" />
        </mxCell>
        <mxCell id="m39vFG9uocM71Nc5CBtc-207" value="CAN" style="rounded=1;whiteSpace=wrap;html=1;direction=west;fillColor=#00CC00;" vertex="1" parent="tb_iwrgmpNeFT452qtZq-1">
          <mxGeometry x="2610" y="50" width="50" height="20" as="geometry" />
        </mxCell>
        <mxCell id="m39vFG9uocM71Nc5CBtc-208" value="CAN" style="rounded=1;whiteSpace=wrap;html=1;direction=west;fillColor=#00CC00;" vertex="1" parent="tb_iwrgmpNeFT452qtZq-1">
          <mxGeometry x="2620" y="495" width="50" height="20" as="geometry" />
        </mxCell>
        <mxCell id="m39vFG9uocM71Nc5CBtc-209" value="CAN" style="rounded=1;whiteSpace=wrap;html=1;direction=west;fillColor=#00CC00;" vertex="1" parent="tb_iwrgmpNeFT452qtZq-1">
          <mxGeometry x="2620" y="904" width="50" height="20" as="geometry" />
        </mxCell>
        <mxCell id="m39vFG9uocM71Nc5CBtc-210" value="CAN" style="rounded=1;whiteSpace=wrap;html=1;direction=west;fillColor=#00CC00;" vertex="1" parent="tb_iwrgmpNeFT452qtZq-1">
          <mxGeometry x="2620" y="1334" width="50" height="20" as="geometry" />
        </mxCell>
        <mxCell id="m39vFG9uocM71Nc5CBtc-211" value="PWM" style="rounded=1;whiteSpace=wrap;html=1;direction=west;fillColor=#67AB9F;strokeColor=#67AB9F;" vertex="1" parent="tb_iwrgmpNeFT452qtZq-1">
          <mxGeometry x="2610" y="80" width="50" height="20" as="geometry" />
        </mxCell>
        <mxCell id="m39vFG9uocM71Nc5CBtc-212" value="A/D IO" style="rounded=1;whiteSpace=wrap;html=1;direction=west;fillColor=#7EA6E0;" vertex="1" parent="tb_iwrgmpNeFT452qtZq-1">
          <mxGeometry x="2610" y="110" width="50" height="20" as="geometry" />
        </mxCell>
        <mxCell id="m39vFG9uocM71Nc5CBtc-213" value="PWM" style="rounded=1;whiteSpace=wrap;html=1;direction=west;fillColor=#67AB9F;strokeColor=#67AB9F;" vertex="1" parent="tb_iwrgmpNeFT452qtZq-1">
          <mxGeometry x="2620" y="530.5" width="50" height="20" as="geometry" />
        </mxCell>
        <mxCell id="m39vFG9uocM71Nc5CBtc-214" value="A/D IO" style="rounded=1;whiteSpace=wrap;html=1;direction=west;fillColor=#7EA6E0;" vertex="1" parent="tb_iwrgmpNeFT452qtZq-1">
          <mxGeometry x="2620" y="560.5" width="50" height="20" as="geometry" />
        </mxCell>
        <mxCell id="m39vFG9uocM71Nc5CBtc-215" value="PWM" style="rounded=1;whiteSpace=wrap;html=1;direction=west;fillColor=#67AB9F;strokeColor=#67AB9F;" vertex="1" parent="tb_iwrgmpNeFT452qtZq-1">
          <mxGeometry x="2620" y="940.5" width="50" height="20" as="geometry" />
        </mxCell>
        <mxCell id="m39vFG9uocM71Nc5CBtc-216" value="A/D IO" style="rounded=1;whiteSpace=wrap;html=1;direction=west;fillColor=#7EA6E0;" vertex="1" parent="tb_iwrgmpNeFT452qtZq-1">
          <mxGeometry x="2620" y="970.5" width="50" height="20" as="geometry" />
        </mxCell>
        <mxCell id="m39vFG9uocM71Nc5CBtc-217" value="PWM" style="rounded=1;whiteSpace=wrap;html=1;direction=west;fillColor=#67AB9F;strokeColor=#67AB9F;" vertex="1" parent="tb_iwrgmpNeFT452qtZq-1">
          <mxGeometry x="2620" y="1366" width="50" height="20" as="geometry" />
        </mxCell>
        <mxCell id="m39vFG9uocM71Nc5CBtc-218" value="A/D IO" style="rounded=1;whiteSpace=wrap;html=1;direction=west;fillColor=#7EA6E0;" vertex="1" parent="tb_iwrgmpNeFT452qtZq-1">
          <mxGeometry x="2620" y="1396" width="50" height="20" as="geometry" />
        </mxCell>
      </root>
    </mxGraphModel>
  </diagram>
  <diagram id="GnCOdnWyfNBWDZZqLYO9" name="PACK">
    <mxGraphModel dx="1791" dy="1234" grid="1" gridSize="10" guides="1" tooltips="1" connect="1" arrows="1" fold="1" page="1" pageScale="1" pageWidth="850" pageHeight="1100" math="0" shadow="0">
      <root>
        <mxCell id="JRNWBRCcu6URMo0CWgO8-0" />
        <mxCell id="JRNWBRCcu6URMo0CWgO8-1" parent="JRNWBRCcu6URMo0CWgO8-0" />
        <mxCell id="JRNWBRCcu6URMo0CWgO8-3" value="" style="rounded=0;whiteSpace=wrap;html=1;fillColor=#f5f5f5;strokeColor=#666666;fontColor=#333333;" vertex="1" parent="JRNWBRCcu6URMo0CWgO8-1">
          <mxGeometry x="60" y="80" width="1710" height="580" as="geometry" />
        </mxCell>
        <mxCell id="JRNWBRCcu6URMo0CWgO8-92" value="" style="rounded=1;whiteSpace=wrap;html=1;fillColor=none;" vertex="1" parent="JRNWBRCcu6URMo0CWgO8-1">
          <mxGeometry x="1690" y="91" width="80" height="149" as="geometry" />
        </mxCell>
        <mxCell id="JRNWBRCcu6URMo0CWgO8-4" value="&lt;b&gt;&lt;font style=&quot;font-size: 24px&quot;&gt;BCU&lt;/font&gt;&lt;/b&gt;" style="rounded=1;whiteSpace=wrap;html=1;fillColor=#fff2cc;strokeColor=#d6b656;" vertex="1" parent="JRNWBRCcu6URMo0CWgO8-1">
          <mxGeometry x="1164.8" y="161" width="435.2" height="209" as="geometry" />
        </mxCell>
        <mxCell id="JRNWBRCcu6URMo0CWgO8-5" value="" style="group;fillColor=#f5f5f5;strokeColor=#666666;fontColor=#333333;" vertex="1" connectable="0" parent="JRNWBRCcu6URMo0CWgO8-1">
          <mxGeometry x="109.8" y="160" width="250" height="440" as="geometry" />
        </mxCell>
        <mxCell id="JRNWBRCcu6URMo0CWgO8-7" value="" style="group" vertex="1" connectable="0" parent="JRNWBRCcu6URMo0CWgO8-5">
          <mxGeometry x="30" y="10" width="220" height="410" as="geometry" />
        </mxCell>
        <mxCell id="JRNWBRCcu6URMo0CWgO8-8" value="&lt;font style=&quot;font-size: 24px&quot;&gt;&lt;b&gt;MCU&lt;/b&gt;&lt;/font&gt;" style="rounded=1;whiteSpace=wrap;html=1;fillColor=#e1d5e7;strokeColor=#9673a6;" vertex="1" parent="JRNWBRCcu6URMo0CWgO8-7">
          <mxGeometry width="200" height="100" as="geometry" />
        </mxCell>
        <mxCell id="JRNWBRCcu6URMo0CWgO8-9" value="V" style="edgeStyle=orthogonalEdgeStyle;rounded=0;orthogonalLoop=1;jettySize=auto;html=1;exitX=0.25;exitY=0;exitDx=0;exitDy=0;entryX=0.25;entryY=1;entryDx=0;entryDy=0;" edge="1" parent="JRNWBRCcu6URMo0CWgO8-7" source="JRNWBRCcu6URMo0CWgO8-11" target="JRNWBRCcu6URMo0CWgO8-8">
          <mxGeometry relative="1" as="geometry" />
        </mxCell>
        <mxCell id="JRNWBRCcu6URMo0CWgO8-10" value="T" style="edgeStyle=orthogonalEdgeStyle;rounded=0;orthogonalLoop=1;jettySize=auto;html=1;exitX=0.5;exitY=0;exitDx=0;exitDy=0;" edge="1" parent="JRNWBRCcu6URMo0CWgO8-7" source="JRNWBRCcu6URMo0CWgO8-11" target="JRNWBRCcu6URMo0CWgO8-8">
          <mxGeometry relative="1" as="geometry" />
        </mxCell>
        <mxCell id="JRNWBRCcu6URMo0CWgO8-11" value="" style="rounded=1;whiteSpace=wrap;html=1;fillColor=#dae8fc;strokeColor=#6c8ebf;" vertex="1" parent="JRNWBRCcu6URMo0CWgO8-7">
          <mxGeometry y="170" width="200" height="240" as="geometry" />
        </mxCell>
        <mxCell id="JRNWBRCcu6URMo0CWgO8-12" value="SPI" style="rounded=1;whiteSpace=wrap;html=1;direction=south;fillColor=#0050ef;strokeColor=#001DBC;fontColor=#ffffff;" vertex="1" parent="JRNWBRCcu6URMo0CWgO8-7">
          <mxGeometry x="155" y="-10" width="20" height="50" as="geometry" />
        </mxCell>
        <mxCell id="JRNWBRCcu6URMo0CWgO8-13" value="" style="pointerEvents=1;verticalLabelPosition=bottom;shadow=0;dashed=0;align=center;html=1;verticalAlign=top;shape=mxgraph.electrical.miscellaneous.batteryStack;direction=north;" vertex="1" parent="JRNWBRCcu6URMo0CWgO8-7">
          <mxGeometry x="82.5" y="220" width="35" height="165" as="geometry" />
        </mxCell>
        <mxCell id="JRNWBRCcu6URMo0CWgO8-14" value="-" style="rounded=1;whiteSpace=wrap;html=1;strokeColor=#666666;fontColor=#333333;fillColor=#f5f5f5;" vertex="1" parent="JRNWBRCcu6URMo0CWgO8-5">
          <mxGeometry y="370" width="50" height="20" as="geometry" />
        </mxCell>
        <mxCell id="JRNWBRCcu6URMo0CWgO8-15" value="+" style="rounded=1;whiteSpace=wrap;html=1;fillColor=#f5f5f5;strokeColor=#666666;fontColor=#333333;" vertex="1" parent="JRNWBRCcu6URMo0CWgO8-5">
          <mxGeometry x="200" y="370" width="50" height="20" as="geometry" />
        </mxCell>
        <mxCell id="JRNWBRCcu6URMo0CWgO8-16" value="" style="group;fillColor=#fff2cc;strokeColor=#d6b656;" vertex="1" connectable="0" parent="JRNWBRCcu6URMo0CWgO8-1">
          <mxGeometry x="374.8" y="160" width="250" height="440" as="geometry" />
        </mxCell>
        <mxCell id="JRNWBRCcu6URMo0CWgO8-18" value="" style="group" vertex="1" connectable="0" parent="JRNWBRCcu6URMo0CWgO8-16">
          <mxGeometry x="30" y="10" width="220" height="410" as="geometry" />
        </mxCell>
        <mxCell id="JRNWBRCcu6URMo0CWgO8-19" value="&lt;font style=&quot;font-size: 24px&quot;&gt;&lt;b&gt;MCU&lt;/b&gt;&lt;/font&gt;" style="rounded=1;whiteSpace=wrap;html=1;fillColor=#e1d5e7;strokeColor=#9673a6;" vertex="1" parent="JRNWBRCcu6URMo0CWgO8-18">
          <mxGeometry width="200" height="100" as="geometry" />
        </mxCell>
        <mxCell id="JRNWBRCcu6URMo0CWgO8-20" value="V" style="edgeStyle=orthogonalEdgeStyle;rounded=0;orthogonalLoop=1;jettySize=auto;html=1;exitX=0.25;exitY=0;exitDx=0;exitDy=0;entryX=0.25;entryY=1;entryDx=0;entryDy=0;" edge="1" parent="JRNWBRCcu6URMo0CWgO8-18" source="JRNWBRCcu6URMo0CWgO8-22" target="JRNWBRCcu6URMo0CWgO8-19">
          <mxGeometry relative="1" as="geometry" />
        </mxCell>
        <mxCell id="JRNWBRCcu6URMo0CWgO8-21" value="T" style="edgeStyle=orthogonalEdgeStyle;rounded=0;orthogonalLoop=1;jettySize=auto;html=1;exitX=0.5;exitY=0;exitDx=0;exitDy=0;" edge="1" parent="JRNWBRCcu6URMo0CWgO8-18" source="JRNWBRCcu6URMo0CWgO8-22" target="JRNWBRCcu6URMo0CWgO8-19">
          <mxGeometry relative="1" as="geometry" />
        </mxCell>
        <mxCell id="JRNWBRCcu6URMo0CWgO8-22" value="" style="rounded=1;whiteSpace=wrap;html=1;fillColor=#dae8fc;strokeColor=#6c8ebf;" vertex="1" parent="JRNWBRCcu6URMo0CWgO8-18">
          <mxGeometry y="170" width="200" height="240" as="geometry" />
        </mxCell>
        <mxCell id="JRNWBRCcu6URMo0CWgO8-23" value="SPI" style="rounded=1;whiteSpace=wrap;html=1;direction=south;fillColor=#0050ef;strokeColor=#001DBC;fontColor=#ffffff;" vertex="1" parent="JRNWBRCcu6URMo0CWgO8-18">
          <mxGeometry x="155" y="-10" width="20" height="50" as="geometry" />
        </mxCell>
        <mxCell id="JRNWBRCcu6URMo0CWgO8-24" value="" style="pointerEvents=1;verticalLabelPosition=bottom;shadow=0;dashed=0;align=center;html=1;verticalAlign=top;shape=mxgraph.electrical.miscellaneous.batteryStack;direction=north;" vertex="1" parent="JRNWBRCcu6URMo0CWgO8-18">
          <mxGeometry x="82.5" y="220" width="35" height="165" as="geometry" />
        </mxCell>
        <mxCell id="JRNWBRCcu6URMo0CWgO8-25" value="-" style="rounded=1;whiteSpace=wrap;html=1;strokeColor=#666666;fontColor=#333333;fillColor=#f5f5f5;" vertex="1" parent="JRNWBRCcu6URMo0CWgO8-16">
          <mxGeometry y="370" width="50" height="20" as="geometry" />
        </mxCell>
        <mxCell id="JRNWBRCcu6URMo0CWgO8-26" value="+" style="rounded=1;whiteSpace=wrap;html=1;fillColor=#f5f5f5;strokeColor=#666666;fontColor=#333333;" vertex="1" parent="JRNWBRCcu6URMo0CWgO8-16">
          <mxGeometry x="200" y="370" width="50" height="20" as="geometry" />
        </mxCell>
        <mxCell id="JRNWBRCcu6URMo0CWgO8-27" value="&lt;font style=&quot;font-size: 48px&quot;&gt;............&lt;/font&gt;" style="text;html=1;strokeColor=none;fillColor=none;align=center;verticalAlign=middle;whiteSpace=wrap;rounded=0;" vertex="1" parent="JRNWBRCcu6URMo0CWgO8-1">
          <mxGeometry x="584.8" y="350" width="290" height="20" as="geometry" />
        </mxCell>
        <mxCell id="JRNWBRCcu6URMo0CWgO8-28" value="" style="group;fillColor=#fff2cc;strokeColor=#d6b656;" vertex="1" connectable="0" parent="JRNWBRCcu6URMo0CWgO8-1">
          <mxGeometry x="834.8" y="161" width="250" height="440" as="geometry" />
        </mxCell>
        <mxCell id="JRNWBRCcu6URMo0CWgO8-29" value="" style="rounded=0;whiteSpace=wrap;html=1;fillColor=#f5f5f5;strokeColor=#666666;fontColor=#333333;" vertex="1" parent="JRNWBRCcu6URMo0CWgO8-28">
          <mxGeometry width="250" height="440" as="geometry" />
        </mxCell>
        <mxCell id="JRNWBRCcu6URMo0CWgO8-30" value="" style="group" vertex="1" connectable="0" parent="JRNWBRCcu6URMo0CWgO8-28">
          <mxGeometry x="30" y="10" width="220" height="410" as="geometry" />
        </mxCell>
        <mxCell id="JRNWBRCcu6URMo0CWgO8-31" value="&lt;b&gt;&lt;font style=&quot;font-size: 24px&quot;&gt;MCU&lt;/font&gt;&lt;/b&gt;" style="rounded=1;whiteSpace=wrap;html=1;fillColor=#e1d5e7;strokeColor=#9673a6;" vertex="1" parent="JRNWBRCcu6URMo0CWgO8-30">
          <mxGeometry width="200" height="100" as="geometry" />
        </mxCell>
        <mxCell id="JRNWBRCcu6URMo0CWgO8-32" value="V" style="edgeStyle=orthogonalEdgeStyle;rounded=0;orthogonalLoop=1;jettySize=auto;html=1;exitX=0.25;exitY=0;exitDx=0;exitDy=0;entryX=0.25;entryY=1;entryDx=0;entryDy=0;" edge="1" parent="JRNWBRCcu6URMo0CWgO8-30" source="JRNWBRCcu6URMo0CWgO8-34" target="JRNWBRCcu6URMo0CWgO8-31">
          <mxGeometry relative="1" as="geometry" />
        </mxCell>
        <mxCell id="JRNWBRCcu6URMo0CWgO8-33" value="T" style="edgeStyle=orthogonalEdgeStyle;rounded=0;orthogonalLoop=1;jettySize=auto;html=1;exitX=0.5;exitY=0;exitDx=0;exitDy=0;" edge="1" parent="JRNWBRCcu6URMo0CWgO8-30" source="JRNWBRCcu6URMo0CWgO8-34" target="JRNWBRCcu6URMo0CWgO8-31">
          <mxGeometry relative="1" as="geometry" />
        </mxCell>
        <mxCell id="JRNWBRCcu6URMo0CWgO8-34" value="" style="rounded=1;whiteSpace=wrap;html=1;fillColor=#dae8fc;strokeColor=#6c8ebf;" vertex="1" parent="JRNWBRCcu6URMo0CWgO8-30">
          <mxGeometry y="170" width="200" height="240" as="geometry" />
        </mxCell>
        <mxCell id="JRNWBRCcu6URMo0CWgO8-35" value="SPI" style="rounded=1;whiteSpace=wrap;html=1;direction=south;fillColor=#0050ef;strokeColor=#001DBC;fontColor=#ffffff;" vertex="1" parent="JRNWBRCcu6URMo0CWgO8-30">
          <mxGeometry x="155" y="-10" width="20" height="50" as="geometry" />
        </mxCell>
        <mxCell id="JRNWBRCcu6URMo0CWgO8-36" value="" style="pointerEvents=1;verticalLabelPosition=bottom;shadow=0;dashed=0;align=center;html=1;verticalAlign=top;shape=mxgraph.electrical.miscellaneous.batteryStack;direction=north;" vertex="1" parent="JRNWBRCcu6URMo0CWgO8-30">
          <mxGeometry x="82.5" y="220" width="35" height="165" as="geometry" />
        </mxCell>
        <mxCell id="JRNWBRCcu6URMo0CWgO8-37" value="-" style="rounded=1;whiteSpace=wrap;html=1;fillColor=#f5f5f5;strokeColor=#666666;fontColor=#333333;" vertex="1" parent="JRNWBRCcu6URMo0CWgO8-28">
          <mxGeometry y="370" width="50" height="20" as="geometry" />
        </mxCell>
        <mxCell id="JRNWBRCcu6URMo0CWgO8-38" value="+" style="rounded=1;whiteSpace=wrap;html=1;fillColor=#f5f5f5;strokeColor=#666666;fontColor=#333333;" vertex="1" parent="JRNWBRCcu6URMo0CWgO8-28">
          <mxGeometry x="200" y="370" width="50" height="20" as="geometry" />
        </mxCell>
        <mxCell id="JRNWBRCcu6URMo0CWgO8-39" style="edgeStyle=orthogonalEdgeStyle;rounded=0;orthogonalLoop=1;jettySize=auto;html=1;exitX=1;exitY=0.5;exitDx=0;exitDy=0;entryX=0;entryY=0.5;entryDx=0;entryDy=0;endArrow=none;endFill=0;strokeWidth=19;strokeColor=#FF9933;" edge="1" parent="JRNWBRCcu6URMo0CWgO8-1" source="JRNWBRCcu6URMo0CWgO8-15" target="JRNWBRCcu6URMo0CWgO8-25">
          <mxGeometry relative="1" as="geometry">
            <Array as="points">
              <mxPoint x="364.8" y="540" />
              <mxPoint x="364.8" y="540" />
            </Array>
          </mxGeometry>
        </mxCell>
        <mxCell id="JRNWBRCcu6URMo0CWgO8-40" style="edgeStyle=orthogonalEdgeStyle;rounded=0;orthogonalLoop=1;jettySize=auto;html=1;exitX=1;exitY=0.5;exitDx=0;exitDy=0;entryX=0;entryY=0.5;entryDx=0;entryDy=0;endArrow=none;endFill=0;strokeWidth=19;strokeColor=#FF9933;" edge="1" parent="JRNWBRCcu6URMo0CWgO8-1" source="JRNWBRCcu6URMo0CWgO8-26" target="JRNWBRCcu6URMo0CWgO8-37">
          <mxGeometry relative="1" as="geometry" />
        </mxCell>
        <mxCell id="JRNWBRCcu6URMo0CWgO8-41" style="edgeStyle=orthogonalEdgeStyle;rounded=0;orthogonalLoop=1;jettySize=auto;html=1;exitX=0;exitY=0.5;exitDx=0;exitDy=0;endArrow=none;endFill=0;strokeWidth=19;strokeColor=#FF9933;" edge="1" parent="JRNWBRCcu6URMo0CWgO8-1" target="JRNWBRCcu6URMo0CWgO8-46">
          <mxGeometry relative="1" as="geometry">
            <mxPoint x="1380.8000000000002" y="621.5" as="sourcePoint" />
          </mxGeometry>
        </mxCell>
        <mxCell id="JRNWBRCcu6URMo0CWgO8-42" value="" style="pointerEvents=1;verticalLabelPosition=bottom;shadow=0;dashed=0;align=center;html=1;verticalAlign=top;shape=mxgraph.electrical.electro-mechanical.isolator;fillColor=none;" vertex="1" parent="JRNWBRCcu6URMo0CWgO8-1">
          <mxGeometry x="1450" y="606" width="55" height="20" as="geometry" />
        </mxCell>
        <mxCell id="DKIulV-_7S1QdqxFHfU1-41" style="edgeStyle=orthogonalEdgeStyle;rounded=0;orthogonalLoop=1;jettySize=auto;html=1;exitX=0.5;exitY=0;exitDx=0;exitDy=0;entryX=0.5;entryY=1;entryDx=0;entryDy=0;endArrow=none;endFill=0;strokeColor=#56517e;strokeWidth=2;fillColor=#d0cee2;jumpStyle=gap;jumpSize=35;" edge="1" parent="JRNWBRCcu6URMo0CWgO8-1" source="JRNWBRCcu6URMo0CWgO8-46" target="JRNWBRCcu6URMo0CWgO8-73">
          <mxGeometry relative="1" as="geometry">
            <Array as="points">
              <mxPoint x="1325" y="570" />
              <mxPoint x="1265" y="570" />
            </Array>
          </mxGeometry>
        </mxCell>
        <mxCell id="JRNWBRCcu6URMo0CWgO8-46" value="" style="ellipse;whiteSpace=wrap;html=1;fillColor=#d0cee2;strokeColor=#56517e;" vertex="1" parent="JRNWBRCcu6URMo0CWgO8-1">
          <mxGeometry x="1314.8" y="586" width="20" height="69" as="geometry" />
        </mxCell>
        <mxCell id="JRNWBRCcu6URMo0CWgO8-47" style="edgeStyle=orthogonalEdgeStyle;rounded=0;orthogonalLoop=1;jettySize=auto;html=1;exitX=0;exitY=0.5;exitDx=0;exitDy=0;endArrow=none;endFill=0;strokeWidth=19;entryX=0;entryY=0.5;entryDx=0;entryDy=0;strokeColor=#FF9933;" edge="1" parent="JRNWBRCcu6URMo0CWgO8-1" target="JRNWBRCcu6URMo0CWgO8-46">
          <mxGeometry relative="1" as="geometry">
            <mxPoint x="1204.8000000000002" y="618.5" as="targetPoint" />
            <Array as="points">
              <mxPoint x="90" y="540" />
              <mxPoint x="90" y="620" />
              <mxPoint x="1160" y="620" />
            </Array>
            <mxPoint x="1217.3000000000002" y="620.5" as="sourcePoint" />
          </mxGeometry>
        </mxCell>
        <mxCell id="JRNWBRCcu6URMo0CWgO8-49" style="edgeStyle=orthogonalEdgeStyle;rounded=0;orthogonalLoop=1;jettySize=auto;html=1;exitX=1;exitY=0.8;exitDx=0;exitDy=0;exitPerimeter=0;entryX=1;entryY=0.5;entryDx=0;entryDy=0;endArrow=none;endFill=0;strokeColor=#FF9933;strokeWidth=19;" edge="1" parent="JRNWBRCcu6URMo0CWgO8-1" source="JRNWBRCcu6URMo0CWgO8-50" target="JRNWBRCcu6URMo0CWgO8-68">
          <mxGeometry relative="1" as="geometry" />
        </mxCell>
        <mxCell id="DKIulV-_7S1QdqxFHfU1-6" style="edgeStyle=orthogonalEdgeStyle;rounded=0;orthogonalLoop=1;jettySize=auto;html=1;exitX=0;exitY=0.8;exitDx=0;exitDy=0;exitPerimeter=0;entryX=1;entryY=0.5;entryDx=0;entryDy=0;entryPerimeter=0;endArrow=none;endFill=0;strokeColor=#FF9933;strokeWidth=19;" edge="1" parent="JRNWBRCcu6URMo0CWgO8-1" source="JRNWBRCcu6URMo0CWgO8-50" target="DKIulV-_7S1QdqxFHfU1-1">
          <mxGeometry relative="1" as="geometry">
            <Array as="points">
              <mxPoint x="1300" y="447" />
              <mxPoint x="1300" y="542" />
            </Array>
          </mxGeometry>
        </mxCell>
        <mxCell id="JRNWBRCcu6URMo0CWgO8-50" value="" style="pointerEvents=1;verticalLabelPosition=bottom;shadow=0;dashed=0;align=center;html=1;verticalAlign=top;shape=mxgraph.electrical.electro-mechanical.isolator;fillColor=none;" vertex="1" parent="JRNWBRCcu6URMo0CWgO8-1">
          <mxGeometry x="1512" y="431" width="55" height="20" as="geometry" />
        </mxCell>
        <mxCell id="JRNWBRCcu6URMo0CWgO8-51" style="edgeStyle=orthogonalEdgeStyle;rounded=0;orthogonalLoop=1;jettySize=auto;html=1;exitX=0;exitY=0.8;exitDx=0;exitDy=0;exitPerimeter=0;entryX=1;entryY=0.5;entryDx=0;entryDy=0;entryPerimeter=0;endArrow=none;endFill=0;strokeWidth=19;strokeColor=#FF9933;" edge="1" parent="JRNWBRCcu6URMo0CWgO8-1" source="JRNWBRCcu6URMo0CWgO8-53" target="JRNWBRCcu6URMo0CWgO8-55">
          <mxGeometry relative="1" as="geometry" />
        </mxCell>
        <mxCell id="JRNWBRCcu6URMo0CWgO8-52" style="edgeStyle=orthogonalEdgeStyle;rounded=0;orthogonalLoop=1;jettySize=auto;html=1;exitX=1;exitY=0.8;exitDx=0;exitDy=0;exitPerimeter=0;entryX=1;entryY=0.5;entryDx=0;entryDy=0;endArrow=none;endFill=0;strokeColor=#FF9933;strokeWidth=19;" edge="1" parent="JRNWBRCcu6URMo0CWgO8-1" source="JRNWBRCcu6URMo0CWgO8-53" target="JRNWBRCcu6URMo0CWgO8-68">
          <mxGeometry relative="1" as="geometry">
            <Array as="points">
              <mxPoint x="1640" y="499" />
              <mxPoint x="1640" y="510" />
            </Array>
          </mxGeometry>
        </mxCell>
        <mxCell id="JRNWBRCcu6URMo0CWgO8-53" value="" style="pointerEvents=1;verticalLabelPosition=bottom;shadow=0;dashed=0;align=center;html=1;verticalAlign=top;shape=mxgraph.electrical.electro-mechanical.isolator;fillColor=none;" vertex="1" parent="JRNWBRCcu6URMo0CWgO8-1">
          <mxGeometry x="1474.8" y="483" width="55" height="20" as="geometry" />
        </mxCell>
        <mxCell id="JRNWBRCcu6URMo0CWgO8-55" value="" style="pointerEvents=1;verticalLabelPosition=bottom;shadow=0;dashed=0;align=center;html=1;verticalAlign=top;shape=mxgraph.electrical.resistors.resistor_2;fillColor=none;" vertex="1" parent="JRNWBRCcu6URMo0CWgO8-1">
          <mxGeometry x="1370.8" y="488" width="50" height="20" as="geometry" />
        </mxCell>
        <mxCell id="JRNWBRCcu6URMo0CWgO8-56" style="edgeStyle=orthogonalEdgeStyle;rounded=0;orthogonalLoop=1;jettySize=auto;html=1;exitX=0;exitY=0.75;exitDx=0;exitDy=0;entryX=0;entryY=0.25;entryDx=0;entryDy=0;endArrow=none;endFill=0;strokeWidth=3;strokeColor=#3333FF;" edge="1" parent="JRNWBRCcu6URMo0CWgO8-1" source="JRNWBRCcu6URMo0CWgO8-57" target="JRNWBRCcu6URMo0CWgO8-35">
          <mxGeometry relative="1" as="geometry" />
        </mxCell>
        <mxCell id="JRNWBRCcu6URMo0CWgO8-57" value="SPI" style="rounded=1;whiteSpace=wrap;html=1;direction=south;fillColor=#0050ef;strokeColor=#001DBC;fontColor=#ffffff;" vertex="1" parent="JRNWBRCcu6URMo0CWgO8-1">
          <mxGeometry x="1264.8" y="160" width="20" height="50" as="geometry" />
        </mxCell>
        <mxCell id="JRNWBRCcu6URMo0CWgO8-58" value="" style="rounded=1;whiteSpace=wrap;html=1;direction=south;fillColor=#000000;" vertex="1" parent="JRNWBRCcu6URMo0CWgO8-1">
          <mxGeometry x="1217.3" y="160" width="20" height="50" as="geometry" />
        </mxCell>
        <mxCell id="JRNWBRCcu6URMo0CWgO8-59" style="edgeStyle=orthogonalEdgeStyle;rounded=0;orthogonalLoop=1;jettySize=auto;html=1;exitX=0;exitY=0.75;exitDx=0;exitDy=0;entryX=0;entryY=0.25;entryDx=0;entryDy=0;endArrow=none;endFill=0;strokeColor=#3333FF;strokeWidth=3;" edge="1" parent="JRNWBRCcu6URMo0CWgO8-1" source="JRNWBRCcu6URMo0CWgO8-35" target="JRNWBRCcu6URMo0CWgO8-23">
          <mxGeometry relative="1" as="geometry" />
        </mxCell>
        <mxCell id="JRNWBRCcu6URMo0CWgO8-60" style="edgeStyle=orthogonalEdgeStyle;rounded=0;orthogonalLoop=1;jettySize=auto;html=1;exitX=0;exitY=0.75;exitDx=0;exitDy=0;entryX=0;entryY=0.25;entryDx=0;entryDy=0;endArrow=none;endFill=0;strokeColor=#3333FF;strokeWidth=3;" edge="1" parent="JRNWBRCcu6URMo0CWgO8-1" source="JRNWBRCcu6URMo0CWgO8-23" target="JRNWBRCcu6URMo0CWgO8-12">
          <mxGeometry relative="1" as="geometry" />
        </mxCell>
        <mxCell id="JRNWBRCcu6URMo0CWgO8-61" style="edgeStyle=orthogonalEdgeStyle;rounded=0;orthogonalLoop=1;jettySize=auto;html=1;exitX=0;exitY=0.75;exitDx=0;exitDy=0;entryX=0;entryY=0.25;entryDx=0;entryDy=0;endArrow=none;endFill=0;strokeWidth=3;strokeColor=#3333FF;" edge="1" parent="JRNWBRCcu6URMo0CWgO8-1" source="JRNWBRCcu6URMo0CWgO8-12" target="JRNWBRCcu6URMo0CWgO8-57">
          <mxGeometry relative="1" as="geometry">
            <Array as="points">
              <mxPoint x="299.8" y="130" />
              <mxPoint x="1279.8" y="130" />
            </Array>
          </mxGeometry>
        </mxCell>
        <mxCell id="JRNWBRCcu6URMo0CWgO8-62" value="Power" style="rounded=1;whiteSpace=wrap;html=1;direction=west;strokeColor=#314354;fontColor=#ffffff;fillColor=#000000;" vertex="1" parent="JRNWBRCcu6URMo0CWgO8-1">
          <mxGeometry x="1704.8" y="110" width="50" height="20" as="geometry" />
        </mxCell>
        <mxCell id="JRNWBRCcu6URMo0CWgO8-63" value="CAN" style="rounded=1;whiteSpace=wrap;html=1;direction=west;fillColor=#ffff88;strokeColor=#36393d;" vertex="1" parent="JRNWBRCcu6URMo0CWgO8-1">
          <mxGeometry x="1704.8" y="141" width="50" height="20" as="geometry" />
        </mxCell>
        <mxCell id="JRNWBRCcu6URMo0CWgO8-64" style="edgeStyle=orthogonalEdgeStyle;rounded=1;orthogonalLoop=1;jettySize=auto;html=1;exitX=0;exitY=0.5;exitDx=0;exitDy=0;entryX=1;entryY=0.5;entryDx=0;entryDy=0;endArrow=none;endFill=0;strokeColor=#000000;strokeWidth=3;jumpStyle=arc;" edge="1" parent="JRNWBRCcu6URMo0CWgO8-1" source="JRNWBRCcu6URMo0CWgO8-58" target="JRNWBRCcu6URMo0CWgO8-62">
          <mxGeometry relative="1" as="geometry" />
        </mxCell>
        <mxCell id="JRNWBRCcu6URMo0CWgO8-65" style="edgeStyle=orthogonalEdgeStyle;rounded=1;orthogonalLoop=1;jettySize=auto;html=1;exitX=0;exitY=0.5;exitDx=0;exitDy=0;entryX=1;entryY=0.5;entryDx=0;entryDy=0;endArrow=none;endFill=0;strokeWidth=3;strokeColor=#FFFF66;" edge="1" parent="JRNWBRCcu6URMo0CWgO8-1" source="JRNWBRCcu6URMo0CWgO8-66" target="JRNWBRCcu6URMo0CWgO8-63">
          <mxGeometry relative="1" as="geometry">
            <Array as="points">
              <mxPoint x="1522.8" y="150" />
              <mxPoint x="1618.8" y="150" />
            </Array>
          </mxGeometry>
        </mxCell>
        <mxCell id="JRNWBRCcu6URMo0CWgO8-66" value="CAN" style="rounded=1;whiteSpace=wrap;html=1;direction=south;fillColor=#ffff88;strokeColor=#36393d;" vertex="1" parent="JRNWBRCcu6URMo0CWgO8-1">
          <mxGeometry x="1405" y="160" width="20" height="50" as="geometry" />
        </mxCell>
        <mxCell id="JRNWBRCcu6URMo0CWgO8-67" style="edgeStyle=orthogonalEdgeStyle;rounded=0;orthogonalLoop=1;jettySize=auto;html=1;exitX=1;exitY=0.5;exitDx=0;exitDy=0;entryX=1;entryY=0.5;entryDx=0;entryDy=0;endArrow=none;endFill=0;strokeColor=#FF9933;strokeWidth=19;" edge="1" parent="JRNWBRCcu6URMo0CWgO8-1" source="DKIulV-_7S1QdqxFHfU1-32" target="JRNWBRCcu6URMo0CWgO8-69">
          <mxGeometry relative="1" as="geometry">
            <mxPoint x="1754.8" y="435" as="targetPoint" />
            <Array as="points">
              <mxPoint x="1660" y="623" />
              <mxPoint x="1660" y="578" />
            </Array>
            <mxPoint x="1640" y="628" as="sourcePoint" />
          </mxGeometry>
        </mxCell>
        <mxCell id="JRNWBRCcu6URMo0CWgO8-68" value="&lt;font style=&quot;font-size: 24px&quot;&gt;+&lt;/font&gt;" style="rounded=1;whiteSpace=wrap;html=1;direction=west;" vertex="1" parent="JRNWBRCcu6URMo0CWgO8-1">
          <mxGeometry x="1704.8" y="500" width="50" height="20" as="geometry" />
        </mxCell>
        <mxCell id="JRNWBRCcu6URMo0CWgO8-69" value="&lt;font style=&quot;font-size: 24px&quot;&gt;-&lt;/font&gt;" style="rounded=1;whiteSpace=wrap;html=1;direction=west;" vertex="1" parent="JRNWBRCcu6URMo0CWgO8-1">
          <mxGeometry x="1704.8" y="567.5" width="50" height="20" as="geometry" />
        </mxCell>
        <mxCell id="JRNWBRCcu6URMo0CWgO8-73" value="CURRENT SENSOR" style="rounded=1;whiteSpace=wrap;html=1;fillColor=#d0cee2;strokeColor=#56517e;" vertex="1" parent="JRNWBRCcu6URMo0CWgO8-1">
          <mxGeometry x="1204.8" y="329" width="120" height="41" as="geometry" />
        </mxCell>
        <mxCell id="JRNWBRCcu6URMo0CWgO8-76" style="edgeStyle=orthogonalEdgeStyle;rounded=0;orthogonalLoop=1;jettySize=auto;html=1;exitX=0;exitY=0.8;exitDx=0;exitDy=0;exitPerimeter=0;endArrow=none;endFill=0;strokeWidth=19;strokeColor=#FF9933;entryX=1;entryY=0.5;entryDx=0;entryDy=0;" edge="1" parent="JRNWBRCcu6URMo0CWgO8-1" source="JRNWBRCcu6URMo0CWgO8-42">
          <mxGeometry relative="1" as="geometry">
            <mxPoint x="1494.8000000000002" y="619" as="sourcePoint" />
            <mxPoint x="1410.8000000000002" y="621.5" as="targetPoint" />
            <Array as="points" />
          </mxGeometry>
        </mxCell>
        <mxCell id="JRNWBRCcu6URMo0CWgO8-78" style="edgeStyle=orthogonalEdgeStyle;rounded=0;orthogonalLoop=1;jettySize=auto;html=1;exitX=1;exitY=0.8;exitDx=0;exitDy=0;exitPerimeter=0;entryX=0;entryY=0.5;entryDx=0;entryDy=0;endArrow=none;endFill=0;strokeColor=#FF9933;strokeWidth=19;" edge="1" parent="JRNWBRCcu6URMo0CWgO8-1" source="JRNWBRCcu6URMo0CWgO8-42" target="DKIulV-_7S1QdqxFHfU1-32">
          <mxGeometry relative="1" as="geometry">
            <mxPoint x="1549.8000000000002" y="578" as="sourcePoint" />
            <mxPoint x="1610" y="619" as="targetPoint" />
            <Array as="points" />
          </mxGeometry>
        </mxCell>
        <mxCell id="JRNWBRCcu6URMo0CWgO8-81" style="edgeStyle=orthogonalEdgeStyle;rounded=0;orthogonalLoop=1;jettySize=auto;html=1;exitX=0.75;exitY=1;exitDx=0;exitDy=0;endArrow=none;endFill=0;strokeWidth=2;dashed=1;" edge="1" parent="JRNWBRCcu6URMo0CWgO8-1" source="JRNWBRCcu6URMo0CWgO8-84" target="JRNWBRCcu6URMo0CWgO8-50">
          <mxGeometry relative="1" as="geometry" />
        </mxCell>
        <mxCell id="JRNWBRCcu6URMo0CWgO8-82" style="edgeStyle=orthogonalEdgeStyle;rounded=0;orthogonalLoop=1;jettySize=auto;html=1;exitX=0.5;exitY=1;exitDx=0;exitDy=0;entryX=0.565;entryY=-0.083;entryDx=0;entryDy=0;entryPerimeter=0;dashed=1;endArrow=none;endFill=0;strokeColor=#000000;strokeWidth=2;" edge="1" parent="JRNWBRCcu6URMo0CWgO8-1" source="JRNWBRCcu6URMo0CWgO8-84" target="JRNWBRCcu6URMo0CWgO8-53">
          <mxGeometry relative="1" as="geometry">
            <Array as="points">
              <mxPoint x="1510" y="440" />
            </Array>
          </mxGeometry>
        </mxCell>
        <mxCell id="JRNWBRCcu6URMo0CWgO8-83" style="edgeStyle=orthogonalEdgeStyle;rounded=0;orthogonalLoop=1;jettySize=auto;html=1;exitX=0.25;exitY=1;exitDx=0;exitDy=0;entryX=0.64;entryY=0.4;entryDx=0;entryDy=0;entryPerimeter=0;dashed=1;endArrow=none;endFill=0;strokeColor=#000000;strokeWidth=2;jumpStyle=gap;" edge="1" parent="JRNWBRCcu6URMo0CWgO8-1" source="JRNWBRCcu6URMo0CWgO8-84" target="JRNWBRCcu6URMo0CWgO8-42">
          <mxGeometry relative="1" as="geometry">
            <Array as="points">
              <mxPoint x="1480" y="571" />
            </Array>
          </mxGeometry>
        </mxCell>
        <mxCell id="JRNWBRCcu6URMo0CWgO8-84" value="CONTACTOR&lt;br&gt;CONTROL" style="rounded=1;whiteSpace=wrap;html=1;fillColor=#d5e8d4;strokeColor=#82b366;" vertex="1" parent="JRNWBRCcu6URMo0CWgO8-1">
          <mxGeometry x="1450" y="329" width="120" height="41" as="geometry" />
        </mxCell>
        <mxCell id="JRNWBRCcu6URMo0CWgO8-90" style="edgeStyle=orthogonalEdgeStyle;rounded=0;orthogonalLoop=1;jettySize=auto;html=1;exitX=0;exitY=0.5;exitDx=0;exitDy=0;entryX=1;entryY=0.5;entryDx=0;entryDy=0;endArrow=none;endFill=0;strokeWidth=3;strokeColor=#67AB9F;" edge="1" parent="JRNWBRCcu6URMo0CWgO8-1" source="JRNWBRCcu6URMo0CWgO8-85">
          <mxGeometry relative="1" as="geometry">
            <mxPoint x="1704.8000000000002" y="185" as="targetPoint" />
          </mxGeometry>
        </mxCell>
        <mxCell id="JRNWBRCcu6URMo0CWgO8-85" value="PWM" style="rounded=1;whiteSpace=wrap;html=1;direction=west;fillColor=#67AB9F;strokeColor=#67AB9F;" vertex="1" parent="JRNWBRCcu6URMo0CWgO8-1">
          <mxGeometry x="1529.8" y="175" width="50" height="20" as="geometry" />
        </mxCell>
        <mxCell id="JRNWBRCcu6URMo0CWgO8-86" value="A/D IO" style="rounded=1;whiteSpace=wrap;html=1;direction=west;fillColor=#7EA6E0;" vertex="1" parent="JRNWBRCcu6URMo0CWgO8-1">
          <mxGeometry x="1529.8" y="210" width="50" height="20" as="geometry" />
        </mxCell>
        <mxCell id="JRNWBRCcu6URMo0CWgO8-91" style="edgeStyle=orthogonalEdgeStyle;rounded=0;orthogonalLoop=1;jettySize=auto;html=1;exitX=1;exitY=0.5;exitDx=0;exitDy=0;entryX=0;entryY=0.5;entryDx=0;entryDy=0;endArrow=none;endFill=0;strokeWidth=3;strokeColor=#7EA6E0;" edge="1" parent="JRNWBRCcu6URMo0CWgO8-1" target="JRNWBRCcu6URMo0CWgO8-86">
          <mxGeometry relative="1" as="geometry">
            <mxPoint x="1704.8000000000002" y="220" as="sourcePoint" />
          </mxGeometry>
        </mxCell>
        <mxCell id="JRNWBRCcu6URMo0CWgO8-93" value="HV CON" style="rounded=1;whiteSpace=wrap;html=1;fillColor=none;" vertex="1" parent="JRNWBRCcu6URMo0CWgO8-1">
          <mxGeometry x="1690" y="467" width="80" height="149" as="geometry" />
        </mxCell>
        <mxCell id="JRNWBRCcu6URMo0CWgO8-96" style="edgeStyle=orthogonalEdgeStyle;rounded=0;orthogonalLoop=1;jettySize=auto;html=1;exitX=1;exitY=0.5;exitDx=0;exitDy=0;entryX=0;entryY=0.5;entryDx=0;entryDy=0;endArrow=none;endFill=0;strokeWidth=3;strokeColor=#66B2FF;jumpStyle=arc;jumpSize=30;" edge="1" parent="JRNWBRCcu6URMo0CWgO8-1" source="JRNWBRCcu6URMo0CWgO8-95" target="DKIulV-_7S1QdqxFHfU1-44">
          <mxGeometry relative="1" as="geometry">
            <Array as="points">
              <mxPoint x="1660" y="542" />
              <mxPoint x="1660" y="255" />
            </Array>
          </mxGeometry>
        </mxCell>
        <mxCell id="JRNWBRCcu6URMo0CWgO8-95" value="&lt;font style=&quot;font-size: 18px&quot;&gt;HVIL&lt;/font&gt;" style="rounded=1;whiteSpace=wrap;html=1;direction=west;fillColor=#66B2FF;strokeColor=#66B2FF;" vertex="1" parent="JRNWBRCcu6URMo0CWgO8-1">
          <mxGeometry x="1704.8" y="531.5" width="50" height="20" as="geometry" />
        </mxCell>
        <mxCell id="DKIulV-_7S1QdqxFHfU1-0" value="HV VOLTAGE&lt;br&gt;SENSE" style="rounded=1;whiteSpace=wrap;html=1;fillColor=#cdeb8b;strokeColor=#36393d;" vertex="1" parent="JRNWBRCcu6URMo0CWgO8-1">
          <mxGeometry x="1204.8" y="245" width="115.2" height="65" as="geometry" />
        </mxCell>
        <mxCell id="DKIulV-_7S1QdqxFHfU1-4" style="edgeStyle=orthogonalEdgeStyle;rounded=0;orthogonalLoop=1;jettySize=auto;html=1;exitX=0;exitY=0.5;exitDx=0;exitDy=0;exitPerimeter=0;entryX=1;entryY=0.5;entryDx=0;entryDy=0;endArrow=none;endFill=0;strokeColor=#FF9933;strokeWidth=19;" edge="1" parent="JRNWBRCcu6URMo0CWgO8-1" source="DKIulV-_7S1QdqxFHfU1-1">
          <mxGeometry relative="1" as="geometry">
            <mxPoint x="1142" y="541.5" as="targetPoint" />
          </mxGeometry>
        </mxCell>
        <mxCell id="DKIulV-_7S1QdqxFHfU1-5" style="edgeStyle=orthogonalEdgeStyle;rounded=0;orthogonalLoop=1;jettySize=auto;html=1;exitX=1;exitY=0.5;exitDx=0;exitDy=0;exitPerimeter=0;entryX=0;entryY=0.5;entryDx=0;entryDy=0;entryPerimeter=0;endArrow=none;endFill=0;strokeColor=#FF9933;strokeWidth=19;jumpStyle=arc;jumpSize=30;" edge="1" parent="JRNWBRCcu6URMo0CWgO8-1" source="DKIulV-_7S1QdqxFHfU1-1" target="JRNWBRCcu6URMo0CWgO8-55">
          <mxGeometry relative="1" as="geometry">
            <Array as="points">
              <mxPoint x="1300" y="542" />
              <mxPoint x="1300" y="498" />
            </Array>
          </mxGeometry>
        </mxCell>
        <mxCell id="DKIulV-_7S1QdqxFHfU1-1" value="" style="pointerEvents=1;verticalLabelPosition=bottom;shadow=0;dashed=0;align=center;html=1;verticalAlign=top;shape=mxgraph.electrical.miscellaneous.fuse_4;fillColor=none;" vertex="1" parent="JRNWBRCcu6URMo0CWgO8-1">
          <mxGeometry x="1209.3" y="530.5" width="45" height="22" as="geometry" />
        </mxCell>
        <mxCell id="DKIulV-_7S1QdqxFHfU1-8" value="&lt;font style=&quot;font-size: 9px&quot;&gt;HV_Sense&lt;br&gt;&lt;/font&gt;V1+" style="ellipse;whiteSpace=wrap;html=1;aspect=fixed;fillColor=#cdeb8b;strokeColor=#36393d;" vertex="1" parent="JRNWBRCcu6URMo0CWgO8-1">
          <mxGeometry x="1155" y="517.5" width="50" height="50" as="geometry" />
        </mxCell>
        <mxCell id="DKIulV-_7S1QdqxFHfU1-10" value="&lt;font color=&quot;#ffffff&quot;&gt;Power&lt;/font&gt;" style="text;html=1;strokeColor=none;fillColor=none;align=center;verticalAlign=middle;whiteSpace=wrap;rounded=0;direction=east;rotation=-90;" vertex="1" parent="JRNWBRCcu6URMo0CWgO8-1">
          <mxGeometry x="1207.3" y="175" width="40" height="20" as="geometry" />
        </mxCell>
        <mxCell id="DKIulV-_7S1QdqxFHfU1-28" value="&lt;font style=&quot;font-size: 9px&quot;&gt;HV_Sense&lt;br&gt;&lt;/font&gt;V2+" style="ellipse;whiteSpace=wrap;html=1;aspect=fixed;fillColor=#cdeb8b;strokeColor=#36393d;" vertex="1" parent="JRNWBRCcu6URMo0CWgO8-1">
          <mxGeometry x="1275.8" y="511" width="50" height="50" as="geometry" />
        </mxCell>
        <mxCell id="DKIulV-_7S1QdqxFHfU1-30" value="&lt;font style=&quot;font-size: 9px&quot;&gt;HV_Sense&lt;br&gt;&lt;/font&gt;V3+" style="ellipse;whiteSpace=wrap;html=1;aspect=fixed;fillColor=#cdeb8b;strokeColor=#36393d;" vertex="1" parent="JRNWBRCcu6URMo0CWgO8-1">
          <mxGeometry x="1609" y="477.5" width="50" height="50" as="geometry" />
        </mxCell>
        <mxCell id="DKIulV-_7S1QdqxFHfU1-32" value="&lt;font style=&quot;font-size: 9px&quot;&gt;HV_Sense&lt;br&gt;&lt;/font&gt;V2-" style="ellipse;whiteSpace=wrap;html=1;aspect=fixed;fillColor=#cdeb8b;strokeColor=#36393d;" vertex="1" parent="JRNWBRCcu6URMo0CWgO8-1">
          <mxGeometry x="1590" y="597.5" width="50" height="50" as="geometry" />
        </mxCell>
        <mxCell id="DKIulV-_7S1QdqxFHfU1-34" value="&lt;font style=&quot;font-size: 9px&quot;&gt;HV_Sense&lt;br&gt;&lt;/font&gt;V1-" style="ellipse;whiteSpace=wrap;html=1;aspect=fixed;fillColor=#cdeb8b;strokeColor=#36393d;" vertex="1" parent="JRNWBRCcu6URMo0CWgO8-1">
          <mxGeometry x="1370.8" y="595.5" width="50" height="50" as="geometry" />
        </mxCell>
        <mxCell id="DKIulV-_7S1QdqxFHfU1-37" style="edgeStyle=orthogonalEdgeStyle;rounded=0;orthogonalLoop=1;jettySize=auto;html=1;exitX=0.5;exitY=1;exitDx=0;exitDy=0;entryX=0.458;entryY=-0.067;entryDx=0;entryDy=0;entryPerimeter=0;endArrow=none;endFill=0;strokeWidth=2;fillColor=#f8cecc;strokeColor=#F19C99;jumpStyle=arc;jumpSize=24;" edge="1" parent="JRNWBRCcu6URMo0CWgO8-1" source="DKIulV-_7S1QdqxFHfU1-35" target="JRNWBRCcu6URMo0CWgO8-55">
          <mxGeometry relative="1" as="geometry" />
        </mxCell>
        <mxCell id="DKIulV-_7S1QdqxFHfU1-45" style="edgeStyle=orthogonalEdgeStyle;rounded=0;orthogonalLoop=1;jettySize=auto;html=1;exitX=0.75;exitY=1;exitDx=0;exitDy=0;entryX=0;entryY=0.8;entryDx=0;entryDy=0;entryPerimeter=0;endArrow=none;endFill=0;strokeColor=#F19C99;strokeWidth=2;fillColor=#f8cecc;jumpStyle=arc;" edge="1" parent="JRNWBRCcu6URMo0CWgO8-1" source="DKIulV-_7S1QdqxFHfU1-35" target="JRNWBRCcu6URMo0CWgO8-50">
          <mxGeometry relative="1" as="geometry">
            <Array as="points">
              <mxPoint x="1409" y="410" />
              <mxPoint x="1520" y="410" />
              <mxPoint x="1520" y="447" />
            </Array>
          </mxGeometry>
        </mxCell>
        <mxCell id="DKIulV-_7S1QdqxFHfU1-35" value="TEMPERATURE&lt;br&gt;SENSE" style="rounded=1;whiteSpace=wrap;html=1;fillColor=#f8cecc;strokeColor=#b85450;" vertex="1" parent="JRNWBRCcu6URMo0CWgO8-1">
          <mxGeometry x="1337.8" y="329" width="95.2" height="40" as="geometry" />
        </mxCell>
        <mxCell id="DKIulV-_7S1QdqxFHfU1-38" value="ISOLATION&lt;br&gt;MONITOR" style="rounded=1;whiteSpace=wrap;html=1;strokeColor=#10739e;fillColor=#B1DDF0;" vertex="1" parent="JRNWBRCcu6URMo0CWgO8-1">
          <mxGeometry x="1451" y="279" width="115.2" height="45" as="geometry" />
        </mxCell>
        <mxCell id="DKIulV-_7S1QdqxFHfU1-40" style="edgeStyle=orthogonalEdgeStyle;rounded=0;orthogonalLoop=1;jettySize=auto;html=1;exitX=0;exitY=0.5;exitDx=0;exitDy=0;endArrow=none;endFill=0;strokeWidth=19;entryX=0;entryY=0.5;entryDx=0;entryDy=0;strokeColor=#FF9933;" edge="1" parent="JRNWBRCcu6URMo0CWgO8-1" source="DKIulV-_7S1QdqxFHfU1-48">
          <mxGeometry relative="1" as="geometry">
            <mxPoint x="1217.3000000000002" y="620.5" as="targetPoint" />
            <Array as="points">
              <mxPoint x="970" y="621" />
              <mxPoint x="970" y="621" />
            </Array>
            <mxPoint x="109.79999999999995" y="540" as="sourcePoint" />
          </mxGeometry>
        </mxCell>
        <mxCell id="DKIulV-_7S1QdqxFHfU1-44" value="HVIL" style="rounded=1;whiteSpace=wrap;html=1;direction=west;fillColor=#66B2FF;strokeColor=#66B2FF;" vertex="1" parent="JRNWBRCcu6URMo0CWgO8-1">
          <mxGeometry x="1529.8" y="245" width="50" height="20" as="geometry" />
        </mxCell>
        <mxCell id="DKIulV-_7S1QdqxFHfU1-51" style="edgeStyle=orthogonalEdgeStyle;rounded=0;orthogonalLoop=1;jettySize=auto;html=1;exitX=0;exitY=0.5;exitDx=0;exitDy=0;entryX=1;entryY=0.5;entryDx=0;entryDy=0;endArrow=none;endFill=0;strokeColor=#FF9933;strokeWidth=19;" edge="1" parent="JRNWBRCcu6URMo0CWgO8-1" source="DKIulV-_7S1QdqxFHfU1-46" target="JRNWBRCcu6URMo0CWgO8-38">
          <mxGeometry relative="1" as="geometry" />
        </mxCell>
        <mxCell id="DKIulV-_7S1QdqxFHfU1-46" value="&lt;font style=&quot;font-size: 9px&quot;&gt;&lt;b&gt;ISO_MON&lt;br&gt;HV+&lt;/b&gt;&lt;/font&gt;" style="ellipse;whiteSpace=wrap;html=1;aspect=fixed;strokeColor=#36393d;fillColor=#B1DDF0;" vertex="1" parent="JRNWBRCcu6URMo0CWgO8-1">
          <mxGeometry x="1100" y="516.5" width="50" height="50" as="geometry" />
        </mxCell>
        <mxCell id="DKIulV-_7S1QdqxFHfU1-48" value="&lt;font style=&quot;font-size: 9px&quot;&gt;&lt;b&gt;ISO_MON&lt;br&gt;HV-&lt;/b&gt;&lt;/font&gt;" style="ellipse;whiteSpace=wrap;html=1;aspect=fixed;strokeColor=#36393d;fillColor=#B1DDF0;" vertex="1" parent="JRNWBRCcu6URMo0CWgO8-1">
          <mxGeometry x="1100" y="595.5" width="50" height="50" as="geometry" />
        </mxCell>
        <mxCell id="DKIulV-_7S1QdqxFHfU1-49" style="edgeStyle=orthogonalEdgeStyle;rounded=0;orthogonalLoop=1;jettySize=auto;html=1;exitX=0;exitY=0.5;exitDx=0;exitDy=0;endArrow=none;endFill=0;strokeWidth=19;entryX=0;entryY=0.5;entryDx=0;entryDy=0;strokeColor=#FF9933;" edge="1" parent="JRNWBRCcu6URMo0CWgO8-1" source="JRNWBRCcu6URMo0CWgO8-14" target="DKIulV-_7S1QdqxFHfU1-48">
          <mxGeometry relative="1" as="geometry">
            <mxPoint x="1217.3000000000002" y="620.5" as="targetPoint" />
            <Array as="points" />
            <mxPoint x="109.79999999999995" y="540" as="sourcePoint" />
          </mxGeometry>
        </mxCell>
        <mxCell id="DKIulV-_7S1QdqxFHfU1-50" value="&lt;font style=&quot;font-size: 9px&quot;&gt;&lt;b&gt;ISO_MON&lt;br&gt;GND&lt;br&gt;&lt;/b&gt;&lt;/font&gt;" style="ellipse;whiteSpace=wrap;html=1;aspect=fixed;strokeColor=#36393d;fillColor=#B1DDF0;" vertex="1" parent="JRNWBRCcu6URMo0CWgO8-1">
          <mxGeometry x="1167.3" y="635" width="50" height="50" as="geometry" />
        </mxCell>
        <mxCell id="DKIulV-_7S1QdqxFHfU1-52" value="PWM" style="rounded=1;whiteSpace=wrap;html=1;direction=west;fillColor=#67AB9F;strokeColor=#67AB9F;" vertex="1" parent="JRNWBRCcu6URMo0CWgO8-1">
          <mxGeometry x="1705" y="175" width="50" height="20" as="geometry" />
        </mxCell>
        <mxCell id="DKIulV-_7S1QdqxFHfU1-53" value="A/D IO" style="rounded=1;whiteSpace=wrap;html=1;direction=west;fillColor=#7EA6E0;" vertex="1" parent="JRNWBRCcu6URMo0CWgO8-1">
          <mxGeometry x="1705" y="210" width="50" height="20" as="geometry" />
        </mxCell>
        <mxCell id="Jxmq55vNy5YjOS-Jjrd3-2" value="&lt;font style=&quot;font-size: 17px&quot; color=&quot;#ffffff&quot;&gt;&lt;b&gt;SPI Cables shall be twisted&lt;/b&gt;&lt;/font&gt;" style="shape=note;size=15;align=left;spacingLeft=10;html=1;whiteSpace=wrap;rounded=0;strokeColor=#000000;fillColor=#3333FF;" vertex="1" parent="JRNWBRCcu6URMo0CWgO8-1">
          <mxGeometry x="80" y="91" width="190" height="50" as="geometry" />
        </mxCell>
        <mxCell id="Jxmq55vNy5YjOS-Jjrd3-6" value="" style="endArrow=classic;html=1;strokeWidth=2;entryX=1;entryY=0.38;entryDx=0;entryDy=0;entryPerimeter=0;strokeColor=#3333FF;" edge="1" parent="JRNWBRCcu6URMo0CWgO8-1" target="Jxmq55vNy5YjOS-Jjrd3-2">
          <mxGeometry width="50" height="50" relative="1" as="geometry">
            <mxPoint x="580" y="130" as="sourcePoint" />
            <mxPoint x="610" y="190" as="targetPoint" />
          </mxGeometry>
        </mxCell>
      </root>
    </mxGraphModel>
  </diagram>
</mxfile>
